<svg id="error-bg" xmlns="http://www.w3.org/2000/svg" xmlns:xlink="http://www.w3.org/1999/xlink" width="1200" height="628" viewBox="0 0 1200 628">
  <defs>
    <clipPath id="clip-path">
      <rect id="Rectangle_26" data-name="Rectangle 26" width="1200" height="628" fill="none"/>
    </clipPath>
    <clipPath id="clip-path-2">
      <ellipse id="Ellipse_7" data-name="Ellipse 7" cx="33.96" cy="70.91" rx="33.96" ry="70.91" transform="translate(931.5 310.7)" fill="none"/>
    </clipPath>
    <clipPath id="clip-path-5">
      <path id="Path_185" data-name="Path 185" d="M609.75,108.4a13.814,13.814,0,0,0-27.35-2.15,13.814,13.814,0,0,0-27.36,2.7c0,4.09,2.2,7.48,4.6,10.29l20.71,20.43a2.569,2.569,0,0,0,3.59.02l20.28-19.67c3.14-3.24,5.75-6.81,5.53-11.61Z" fill="none"/>
    </clipPath>
  </defs>
  <g id="BACKGROUND">
    <path id="Path_191" data-name="Path 191" d="M0,0H1200V628H0Z" fill="#edebff"/>
  </g>
  <g id="OBJECTS">
    <g id="Group_46" data-name="Group 46" clip-path="url(#clip-path)">
      <path id="Path_119" data-name="Path 119" d="M1341.25,65.45c-116.24-10.75-237.16,13.62-343.14,47.14S795.09,189,687.37,220.52s-232.2,51.34-345.41,33.92c-100.06-15.4-177.77-57.34-262.6-90.36-84.81-33.01-193.63-58.21-292.62-35.55-67.31,15.41-113.12,48.65-148.64,86.14l35.97,458.36,40,113.9c-.73-56.77,166.95-241.12,509.64-291.28,140.05-20.5,281.51-3.46,419.57-30.38,110.35-21.51,190.71-84.47,258.13-145.61s135.03-127.16,237.82-162.31c113.26-38.73,255.75-30.09,350.47,17.26,27.6,13.8,50.97,30.58,69.85,49.38l-6.66-84.89c-49.99-38.88-127.06-65.83-211.63-73.65Z" fill="#d5d1ff"/>
    </g>
    <g id="Group_73" data-name="Group 73">
      <g id="Group_57" data-name="Group 57">
        <rect id="Rectangle_27" data-name="Rectangle 27" width="152.49" height="281.02" transform="translate(966.97 242.78)" fill="#fff"/>
        <ellipse id="Ellipse_3" data-name="Ellipse 3" cx="64.38" cy="140.51" rx="64.38" ry="140.51" transform="translate(902.59 242.78)" fill="#d5d1ff"/>
        <path id="Path_192" data-name="Path 192" d="M53.59,0c29.6,0,53.59,57.813,53.59,129.13S83.187,258.26,53.59,258.26,0,200.447,0,129.13,23.993,0,53.59,0Z" transform="translate(913.38 253.97)" fill="#5a4de4"/>
        <g id="Group_48" data-name="Group 48">
          <path id="Path_193" data-name="Path 193" d="M33.96,0C52.716,0,67.92,31.747,67.92,70.91s-15.2,70.91-33.96,70.91S0,110.073,0,70.91,15.2,0,33.96,0Z" transform="translate(931.5 310.7)" fill="#bbb6f2"/>
          <g id="Group_47" data-name="Group 47" clip-path="url(#clip-path-2)">
            <ellipse id="Ellipse_6" data-name="Ellipse 6" cx="33.96" cy="70.91" rx="33.96" ry="70.91" transform="translate(961.35 312.19)" fill="#fff"/>
          </g>
        </g>
        <ellipse id="Ellipse_8" data-name="Ellipse 8" cx="55.61" cy="140.6" rx="55.61" ry="140.6" transform="translate(1063.85 242.78)" fill="#fff"/>
        <path id="Path_120" data-name="Path 120" d="M1084.93,523.8c30.71,0,55.61-60.72,55.61-140.7s-24.9-140.32-55.61-140.32" fill="none" stroke="#5a4de4" stroke-linecap="round" stroke-linejoin="round" stroke-width="1.93"/>
        <path id="Path_121" data-name="Path 121" d="M1000.08,523.8c30.71,0,54.94-62.22,54.94-142.19s-24.9-138.83-55.61-138.83" fill="none" stroke="#5a4de4" stroke-linecap="round" stroke-linejoin="round" stroke-width="1.93"/>
        <line id="Line_26" data-name="Line 26" x1="85.23" transform="translate(1049.5 318.63)" fill="none" stroke="#5a4de4" stroke-miterlimit="10" stroke-width="1.74"/>
        <line id="Line_27" data-name="Line 27" x1="85.23" transform="translate(1052.98 424.9)" fill="none" stroke="#5a4de4" stroke-miterlimit="10" stroke-width="1.74"/>
        <g id="Group_49" data-name="Group 49">
          <ellipse id="Ellipse_9" data-name="Ellipse 9" cx="6.22" cy="8.77" rx="6.22" ry="8.77" transform="translate(960.36 276.37)" fill="#fff"/>
          <path id="Path_122" data-name="Path 122" d="M959.24,482.18c0,4.84,2.78,8.77,6.22,8.77s6.22-3.93,6.22-8.77-2.78-8.77-6.22-8.77S959.24,477.34,959.24,482.18Z" fill="#fff"/>
        </g>
        <g id="Group_56" data-name="Group 56">
          <g id="Group_50" data-name="Group 50">
            <path id="Path_123" data-name="Path 123" d="M662.72,451.54H936.08a7.46,7.46,0,0,1,7.46,7.46v32.09H658.42V455.82a4.289,4.289,0,0,1,4.291-4.29Z" transform="translate(1601.97 942.63) rotate(180)" fill="#5a4de4"/>
            <path id="Path_124" data-name="Path 124" d="M965.32,421.7v20.63a8.723,8.723,0,0,1-4.45,7.6l-42.08,23.63a8.724,8.724,0,0,1-4.27,1.12H716.77l-67.18-19.22-37.51.56V424.17l353.23-2.47Z" fill="#fff"/>
            <path id="Path_125" data-name="Path 125" d="M612.09,412.35H965.32v11.82a3.862,3.862,0,0,1-3.86,3.86H615.94a3.862,3.862,0,0,1-3.86-3.86V412.35h0Z" transform="translate(1577.41 840.37) rotate(180)" fill="#5a4de4"/>
            <path id="Path_126" data-name="Path 126" d="M624.97,404.26H925.58v2.64a5.446,5.446,0,0,1-5.44,5.44H632.5a7.535,7.535,0,0,1-7.53-7.53v-.56h0Z" transform="translate(1550.54 816.61) rotate(180)" fill="#b5b0e8"/>
          </g>
          <g id="Group_55" data-name="Group 55">
            <g id="Group_52" data-name="Group 52">
              <g id="Group_51" data-name="Group 51">
                <path id="Path_194" data-name="Path 194" d="M13.73,0A13.73,13.73,0,1,1,0,13.73,13.73,13.73,0,0,1,13.73,0Z" transform="translate(908.575 500.658) rotate(-13.2)" fill="#05261f"/>
                <circle id="Ellipse_11" data-name="Ellipse 11" cx="8.39" cy="8.39" r="8.39" transform="translate(916.7 502.44)" fill="#5a4de4"/>
              </g>
              <rect id="Rectangle_28" data-name="Rectangle 28" width="5.97" height="26.12" rx="1.28" transform="translate(927.87 512.37) rotate(180)" fill="#5a4de4"/>
            </g>
            <g id="Group_54" data-name="Group 54">
              <g id="Group_53" data-name="Group 53">
                <circle id="Ellipse_12" data-name="Ellipse 12" cx="13.73" cy="13.73" r="13.73" transform="translate(669.309 499.441) rotate(-9.18)" fill="#05261f"/>
                <circle id="Ellipse_13" data-name="Ellipse 13" cx="8.39" cy="8.39" r="8.39" transform="translate(673.877 514.849) rotate(-64.65)" fill="#5a4de4"/>
              </g>
              <rect id="Rectangle_29" data-name="Rectangle 29" width="5.97" height="26.12" rx="1.28" transform="translate(687.82 513.11) rotate(180)" fill="#5a4de4"/>
            </g>
          </g>
        </g>
      </g>
      <g id="Group_72" data-name="Group 72">
        <g id="Group_61" data-name="Group 61">
          <g id="Group_58" data-name="Group 58">
            <path id="Path_127" data-name="Path 127" d="M860.78,396.84a5.635,5.635,0,0,0,1.17-11.21c-.49-.05-35.43-.38-35.43-.38a4.761,4.761,0,1,0-.98,9.471l35.25,2.109Z" fill="#edbca0"/>
            <path id="Path_128" data-name="Path 128" d="M845.47,396.97l15.19.92A6.564,6.564,0,1,0,862,384.83c-.26-.03-7.66-.11-15.85-.2a53.2,53.2,0,0,0-.68,12.35Z" fill="#5baa95"/>
          </g>
          <g id="Group_60" data-name="Group 60">
            <path id="Path_129" data-name="Path 129" d="M826.47,394.23a4.424,4.424,0,0,0,4.07-4.67,4.552,4.552,0,0,0-4.68-4.22h0s-7.76-.87-32.02,1.96l.34,5.63s20.94,2.92,31.92,1.32c.07-.01.37-.01.37-.01Z" fill="#edbca0"/>
            <g id="Group_59" data-name="Group 59">
              <path id="Path_130" data-name="Path 130" d="M796.67,391.41s-3.3,2.58-4.75,2.9l-7.75-1.8s2.24-5.47,4.72-5.62,5.44-.47,7.21.62.57,3.89.57,3.89Z" fill="#e9baa0"/>
              <path id="Path_131" data-name="Path 131" d="M789.67,392.67a36.207,36.207,0,0,1-3.81,2.37.973.973,0,0,0,.64,1.82,4.584,4.584,0,0,0,.59-.17,33.982,33.982,0,0,0,5.5-2.63s-.16-1.87-2.91-1.4Z" fill="#e9baa0"/>
              <path id="Path_132" data-name="Path 132" d="M784.68,392.54a25.155,25.155,0,0,0-6.17.8s-1.44-.01-.82-1.34,9.34-2.13,9.34-2.13l-2.36,2.67Z" fill="#e9baa0"/>
              <path id="Path_133" data-name="Path 133" d="M785.98,389.6a25.157,25.157,0,0,0-6.17.8s-1.44-.01-.82-1.34,9.34-2.13,9.34-2.13l-2.36,2.67Z" fill="#e9baa0"/>
              <path id="Path_134" data-name="Path 134" d="M785.33,391.17a28.973,28.973,0,0,0-7.17.93s-1.68-.02-.95-1.56,10.86-2.48,10.86-2.48l-2.74,3.1Z" fill="#e9baa0"/>
            </g>
          </g>
        </g>
        <g id="Group_62" data-name="Group 62">
          <path id="Path_135" data-name="Path 135" d="M721.1,393.57l.31.03c18.83,2.89,63,7.69,63.06,7.69a12.545,12.545,0,1,0,3.67-24.82.969.969,0,0,1-.19-.04h0c-20.41-.42-36.11,0-66.57,1.26h-.26a7.944,7.944,0,0,0-1.01,15.8,8.43,8.43,0,0,0,.99.08Z" fill="#e2b098"/>
          <path id="Path_136" data-name="Path 136" d="M633.83,387.69c.5.5,2.89,2.08,2.89,2.08,5.78,3.48,15.8,4.23,15.8,4.23l5.71-.61h0c15.33-3.34,51.47-12.01,58.22-14.63a20.475,20.475,0,0,1,2.11-.6,7.941,7.941,0,0,1,3.69,15.39c-.13.04-.39.17-.4.17-.77.27-11.78,7.44-37.34,7.42-3.77,0-34.1,1.05-34.1,1.05-1.73,3.22-5.39,1.73-5.39,1.73-2.3-.03-4.93-3.97-4.93-3.97-.89-1.35-6.04-5.33-6.04-5.33-1.52-1.5-2.31-5.75-2.31-5.75-.34-2.83,2.08-1.18,2.08-1.18Z" fill="#dda792"/>
        </g>
        <g id="Group_63" data-name="Group 63">
          <path id="Path_137" data-name="Path 137" d="M721.13,395.12l.31.03c18.84,2.81,63.03,7.44,63.09,7.45a12.548,12.548,0,1,0,3.57-24.84c-.06,0-.19-.04-.19-.03h0c-20.41-.34-36.11.14-66.57,1.51h-.26a7.943,7.943,0,0,0-.95,15.8,8.423,8.423,0,0,0,.99.08Z" fill="#edbca0"/>
          <path id="Path_138" data-name="Path 138" d="M631.54,388.98c.5.5,2.89,2.08,2.89,2.08,5.78,3.48,15.8,4.23,15.8,4.23l5.71-.61h0c15.33-3.34,51.47-12.01,58.22-14.63a20.5,20.5,0,0,1,2.11-.6,7.941,7.941,0,0,1,3.69,15.39c-.13.04-.39.17-.4.17-.77.27-11.78,7.44-37.34,7.42-3.77,0-34.1,1.05-34.1,1.05-1.73,3.22-5.39,1.73-5.39,1.73-2.3-.03-4.93-3.97-4.93-3.97-.89-1.35-6.04-5.33-6.04-5.33-1.52-1.5-2.31-5.75-2.31-5.75-.34-2.83,2.08-1.18,2.08-1.18Z" fill="#edbca0"/>
        </g>
        <g id="Group_66" data-name="Group 66">
          <path id="Path_139" data-name="Path 139" d="M798.53,404.24c12.21.34,18.82,0,18.82,0l-.83-28.28s-26.8-1.12-33,5.19c-3.62,3.69-2.2,14.28-2.2,14.28C783.35,402.22,786.28,403.85,798.53,404.24Z" fill="#7c73da"/>
          <g id="Group_65" data-name="Group 65">
            <g id="Group_64" data-name="Group 64">
              <path id="Path_140" data-name="Path 140" d="M874.44,383.22l-8.2.29.35,10.03,10.66-.38a15.261,15.261,0,0,1-2.82-9.94Z" fill="#7c73da"/>
              <path id="Path_141" data-name="Path 141" d="M877.26,393.17l8.21-.29-.35-10.03-10.68.38a15.261,15.261,0,0,0,2.82,9.94Z" fill="#7c73da"/>
            </g>
            <path id="Path_142" data-name="Path 142" d="M871.57,393.08a25.954,25.954,0,0,0-.17-7.59c-.92-2.64-2.62-3.25-4.71-5.09-1.12-.87-8.89-5.51-8.89-5.51-3.74-4.58-6.73-6.8-10.27-6.89-7.94-.2-9.83,5.66-9.83,5.66l-21.17,2.3c-5.6,11.8-.69,28.21-.69,28.21,13.25.67,22.03.17,30.49.2,5.73.02,22.79,3.37,25.24-11.29Z" fill="#7c73da"/>
          </g>
        </g>
        <path id="Path_143" data-name="Path 143" d="M909.14,383.71c-.75-19.01-19.67-13.14-19.81-13.12a10.443,10.443,0,0,1-3.11-1.55c-1.01-.88-1.29-.88-1.29-.88a2.164,2.164,0,0,0-2.15,2.56c-.44.05-8.34,3.1-8.22,6.04.37,9.2,9.25,17.01,9.25,17.01a19.158,19.158,0,0,0,8.83,3.27s17.17,3.79,16.5-13.34Z" fill="#edbca0"/>
        <g id="Group_67" data-name="Group 67">
          <path id="Path_144" data-name="Path 144" d="M909.18,383.67c-.75-19.01-19.67-13.14-19.81-13.12a10.443,10.443,0,0,1-3.11-1.55c-1.01-.88-1.29-.88-1.29-.88a2.164,2.164,0,0,0-2.15,2.56c-.44.05-8.34,3.1-8.22,6.04.37,9.2,9.25,17.01,9.25,17.01a19.158,19.158,0,0,0,8.83,3.27s17.17,3.79,16.5-13.34Z" fill="#edbca0"/>
          <path id="Path_145" data-name="Path 145" d="M913.02,372.87c1.32,2.35,4.12,8.01,2.72,10.19,0,0,2.74,12.33-2.77,16.92-15.5,12.91-36.61,5.63-46.73,4.28-2.82-.38,4.96-9.53,5.32-11.18.93-4.27,28.37-7.21,32.4-11.83,3.3-3.78.47-5.85-.33-7.65-2.03-4.63,5.99-6.77,9.38-.73Z" fill="#1f1f1f"/>
          <path id="Path_146" data-name="Path 146" d="M912.06,374.29a3.42,3.42,0,0,0-4.69-2.58c-5.89,2.44-16.79,8.18-18.58,17.74-1.68,8.98,5.24,8.17,5.24,8.17s21.46-2.86,18.03-23.33Z" fill="#1f1f1f"/>
        </g>
        <path id="Path_147" data-name="Path 147" d="M890.52,373.07c-1.31.27-2.24,1.13-2.08,1.91s1.36,1.2,2.67.93,2.24-1.13,2.08-1.91S891.83,372.8,890.52,373.07Z" fill="#242424"/>
        <path id="Path_148" data-name="Path 148" d="M886.11,373.46a2.321,2.321,0,1,0,2.25,1.75A2.042,2.042,0,0,0,886.11,373.46Z" fill="#ce826e" opacity="0.37"/>
        <path id="Path_149" data-name="Path 149" d="M879.94,375.45a6.242,6.242,0,0,1-1.62-2.7" fill="none" stroke="#b96d6d" stroke-linecap="round" stroke-linejoin="round" stroke-width="0.63"/>
        <path id="Path_150" data-name="Path 150" d="M816.52,375.96s-64.68-3.85-95.78.33L719,404.58l98.36-.34-.83-28.28Z" fill="#7c73da"/>
        <g id="Group_71" data-name="Group 71">
          <g id="Group_68" data-name="Group 68">
            <path id="Path_151" data-name="Path 151" d="M863.79,399.04a5.633,5.633,0,1,0-.61-11.25c-.49.03-35.05,5.23-35.05,5.23a4.763,4.763,0,1,0,.52,9.511l35.14-3.491Z" fill="#edbca0"/>
            <path id="Path_152" data-name="Path 152" d="M848.7,401.58l15.14-1.5a6.565,6.565,0,1,0-.74-13.11c-.26.01-7.58,1.1-15.69,2.31a52.8,52.8,0,0,0,1.29,12.3Z" fill="#675eca"/>
          </g>
          <g id="Group_70" data-name="Group 70">
            <path id="Path_153" data-name="Path 153" d="M826.45,402.89a4.631,4.631,0,0,0,4.1-4.98,4.691,4.691,0,0,0-4.65-4.56h0s-7.76-.99-32.03,1.88l.3,6.04s20.92,3.27,31.91,1.63c.07-.01.37-.01.37-.01Z" fill="#edbca0"/>
            <g id="Group_69" data-name="Group 69">
              <path id="Path_154" data-name="Path 154" d="M796.67,399.66s-3.32,2.74-4.76,3.07l-7.74-1.98s2.28-5.85,4.75-5.99,5.45-.47,7.2.72S796.67,399.66,796.67,399.66Z" fill="#e9baa0"/>
              <path id="Path_155" data-name="Path 155" d="M789.66,400.97a35.57,35.57,0,0,1-3.83,2.51c-1.01.54-.48,2.21.62,1.96.18-.04.37-.1.59-.17a33.2,33.2,0,0,0,5.52-2.78S792.42,400.48,789.66,400.97Z" fill="#e9baa0"/>
              <path id="Path_156" data-name="Path 156" d="M784.67,400.79a23.117,23.117,0,0,0-6.17.82s-1.44-.02-.81-1.44,9.36-2.22,9.36-2.22l-2.37,2.85Z" fill="#e9baa0"/>
              <path id="Path_157" data-name="Path 157" d="M785.99,397.64a23.116,23.116,0,0,0-6.17.82s-1.44-.02-.81-1.44,9.36-2.22,9.36-2.22L786,397.65Z" fill="#e9baa0"/>
              <path id="Path_158" data-name="Path 158" d="M785.33,399.33a27.52,27.52,0,0,0-7.18.95s-1.68-.03-.94-1.68,10.88-2.58,10.88-2.58l-2.76,3.31Z" fill="#e9baa0"/>
            </g>
          </g>
        </g>
        <path id="Path_159" data-name="Path 159" d="M894.4,371.47c.11-.07.42.18.73.73a4.842,4.842,0,0,1,.56,2.37,4.439,4.439,0,0,1-.67,2.37,1.493,1.493,0,0,1-.6.53c-.18.08-.3.07-.33,0-.07-.12.17-.37.31-.86a8.165,8.165,0,0,0,.31-2.07c.04-1.65-.55-2.95-.32-3.09Z" fill="#151741"/>
        <path id="Path_147-2" data-name="Path 147" d="M888.858,373.02a.74.74,0,0,0-.432.738.4.4,0,0,0,.555.359.74.74,0,0,0,.432-.738A.4.4,0,0,0,888.858,373.02Z" transform="translate(0.751 1.112)" fill="#828282"/>
      </g>
    </g>
    <rect id="Rectangle_30" data-name="Rectangle 30" width="534.67" height="3.6" transform="translate(588.54 521.95)" fill="#5a4de4"/>
    <g id="Group_88" data-name="Group 88">
      <g id="Group_77" data-name="Group 77">
        <g id="Group_74" data-name="Group 74">
          <path id="Path_160" data-name="Path 160" d="M642.34,152.53a6.436,6.436,0,0,0-6.44,6.44v143.2a6.436,6.436,0,0,0,6.44,6.44H760.88a6.009,6.009,0,0,0,6.01-6.011V158.04a5.5,5.5,0,0,0-5.5-5.5H642.34Z" fill="#5a4de4"/>
          <path id="Path_161" data-name="Path 161" d="M733.45,160.9H649.99a5.729,5.729,0,0,0-5.73,5.731V293.81a6.436,6.436,0,0,0,6.44,6.44H752.09a6.436,6.436,0,0,0,6.44-6.44V166.17a5.271,5.271,0,0,0-5.269-5.27Z" fill="#fff"/>
          <path id="Path_162" data-name="Path 162" d="M669.35,152.53v13.61a3.107,3.107,0,0,0,3.11,3.11h57.88a3.107,3.107,0,0,0,3.11-3.11V152.53Z" fill="#d5d1ff"/>
          <path id="Path_163" data-name="Path 163" d="M677.36,152.53h48.08v4.64a2.416,2.416,0,0,1-2.42,2.42H679.78a2.416,2.416,0,0,1-2.42-2.42v-4.64h0Z" fill="#3c2fc5"/>
        </g>
        <g id="Group_76" data-name="Group 76">
          <rect id="Rectangle_31" data-name="Rectangle 31" width="49.05" height="2.46" rx="0.84" transform="translate(698.32 190.59)" fill="#7c74d1"/>
          <rect id="Rectangle_32" data-name="Rectangle 32" width="49.05" height="2.46" rx="0.84" transform="translate(698.32 196.75)" fill="#7c74d1"/>
          <rect id="Rectangle_33" data-name="Rectangle 33" width="49.05" height="2.46" rx="0.84" transform="translate(698.32 203.47)" fill="#7c74d1"/>
          <rect id="Rectangle_34" data-name="Rectangle 34" width="49.05" height="2.46" rx="0.84" transform="translate(698.32 210.19)" fill="#7c74d1"/>
          <g id="Group_75" data-name="Group 75">
            <rect id="Rectangle_35" data-name="Rectangle 35" width="49.05" height="2.46" rx="0.84" transform="translate(653 242.31)" fill="#7c74d1"/>
            <rect id="Rectangle_36" data-name="Rectangle 36" width="49.05" height="2.46" rx="0.84" transform="translate(653 248.47)" fill="#7c74d1"/>
            <rect id="Rectangle_37" data-name="Rectangle 37" width="49.05" height="2.46" rx="0.84" transform="translate(653 255.19)" fill="#7c74d1"/>
            <rect id="Rectangle_38" data-name="Rectangle 38" width="49.05" height="2.46" rx="0.84" transform="translate(653 261.91)" fill="#7c74d1"/>
          </g>
          <rect id="Rectangle_39" data-name="Rectangle 39" width="95.19" height="2.46" rx="1.17" transform="translate(652.17 216.91)" fill="#7c74d1"/>
          <rect id="Rectangle_40" data-name="Rectangle 40" width="95.19" height="2.46" rx="1.17" transform="translate(652.17 222.94)" fill="#7c74d1"/>
          <rect id="Rectangle_41" data-name="Rectangle 41" width="95.19" height="2.46" rx="1.17" transform="translate(652.17 228.97)" fill="#7c74d1"/>
          <rect id="Rectangle_42" data-name="Rectangle 42" width="95.19" height="2.46" rx="1.17" transform="translate(653 269.08)" fill="#7c74d1"/>
          <rect id="Rectangle_43" data-name="Rectangle 43" width="95.19" height="2.46" rx="1.17" transform="translate(653 275.11)" fill="#7c74d1"/>
          <rect id="Rectangle_44" data-name="Rectangle 44" width="95.19" height="2.46" rx="1.17" transform="translate(653 281.14)" fill="#7c74d1"/>
        </g>
        <path id="Path_195" data-name="Path 195" d="M2.91,0H35.19A2.91,2.91,0,0,1,38.1,2.91v17a2.91,2.91,0,0,1-2.91,2.91H2.91A2.91,2.91,0,0,1,0,19.91v-17A2.91,2.91,0,0,1,2.91,0Z" transform="translate(654.14 189.84)" fill="#d5d1ff"/>
        <rect id="Rectangle_46" data-name="Rectangle 46" width="40.06" height="27.93" rx="2.95" transform="translate(706.53 237.06)" fill="#d5d1ff"/>
      </g>
      <g id="Group_79" data-name="Group 79">
        <path id="Path_164" data-name="Path 164" d="M677.2,197.13a.623.623,0,0,1-.62-.62V193.6h-6.8v2.91a.62.62,0,0,1-1.24,0v-3.53a.623.623,0,0,1,.62-.62h8.03a.623.623,0,0,1,.62.62v3.53a.623.623,0,0,1-.62.62Z" fill="#fff"/>
        <g id="Group_78" data-name="Group 78">
          <rect id="Rectangle_47" data-name="Rectangle 47" width="21.23" height="13.66" rx="2.59" transform="translate(662.57 195.61)" fill="#5a4de4"/>
          <path id="Path_165" data-name="Path 165" d="M677.24,200.67h-2.28v-2.28a.516.516,0,0,0-.52-.52h-2.5a.516.516,0,0,0-.52.52v2.28h-2.28a.516.516,0,0,0-.52.52v2.5a.516.516,0,0,0,.52.52h2.28v2.28a.516.516,0,0,0,.52.52h2.5a.516.516,0,0,0,.52-.52v-2.28h2.28a.516.516,0,0,0,.52-.52v-2.5a.516.516,0,0,0-.52-.52Z" fill="#fff"/>
        </g>
      </g>
      <g id="Group_87" data-name="Group 87">
        <g id="Group_83" data-name="Group 83">
          <g id="Group_82" data-name="Group 82">
            <g id="Group_80" data-name="Group 80">
              <path id="Path_166" data-name="Path 166" d="M720.51,253.18l-.19-.49a6.4,6.4,0,0,0,3.17-4.48l.69-3.49a1.608,1.608,0,0,0-.25-1.25,1.227,1.227,0,0,0-1-.56H721.6v-.54h1.34a1.662,1.662,0,0,1,1.36.76,2.287,2.287,0,0,1,.34,1.7l-.69,3.49a7.676,7.676,0,0,1-1.22,2.89,6.35,6.35,0,0,1-2.21,1.96Z" fill="#fff"/>
              <path id="Path_167" data-name="Path 167" d="M718.16,253.18l.19-.49a6.376,6.376,0,0,1-3.14-4.5l-.67-3.49a1.651,1.651,0,0,1,.25-1.25,1.2,1.2,0,0,1,1-.55l.99-.02.04-.53h-1.04a1.73,1.73,0,0,0-1.37.77,2.291,2.291,0,0,0-.35,1.7l.67,3.49a7.486,7.486,0,0,0,1.21,2.9,6.35,6.35,0,0,0,2.2,1.97Z" fill="#fff"/>
              <path id="Path_168" data-name="Path 168" d="M719.72,253.56a6.757,6.757,0,0,0,2.15-1.27,6.153,6.153,0,0,0,1.48-1.94,1.955,1.955,0,0,0,.12-.27l-.71-.23s-.03.08-.1.22a5.7,5.7,0,0,1-3.24,2.86h0a.407.407,0,0,1-.16,0h0a5.662,5.662,0,0,1-3.22-2.88c-.06-.14-.1-.22-.1-.22l-.71.23s.04.1.12.27a6.051,6.051,0,0,0,1.47,1.95,6.81,6.81,0,0,0,2.14,1.28" fill="#5a4de4"/>
            </g>
            <g id="Group_81" data-name="Group 81">
              <rect id="Rectangle_48" data-name="Rectangle 48" width="0.75" height="0.92" rx="0.27" transform="translate(721.744 243.145) rotate(179.97)" fill="#003126"/>
              <rect id="Rectangle_49" data-name="Rectangle 49" width="0.75" height="0.92" rx="0.27" transform="translate(717.254 243.113) rotate(179.97)" fill="#003126"/>
            </g>
          </g>
          <path id="Path_169" data-name="Path 169" d="M719.31,253.16a.414.414,0,0,1,.09-.02.394.394,0,0,1,.43.36c.26,2.93,1.16,5.07,2.69,6.34a5.364,5.364,0,0,0,3.54,1.25.4.4,0,0,1,.08.79,6.023,6.023,0,0,1-4.1-1.41c-1.7-1.41-2.7-3.73-2.98-6.89a.392.392,0,0,1,.27-.41Z" fill="#5a4de4"/>
        </g>
        <g id="Group_86" data-name="Group 86">
          <g id="Group_85" data-name="Group 85">
            <path id="Path_170" data-name="Path 170" d="M730.4,240.74a4.523,4.523,0,0,1,3.05.44c3.76,1.97,5.05,8.79,5.1,9.08l-.74.14c-.01-.07-1.35-6.69-4.76-8.48a4.059,4.059,0,0,0-3.73.04l-.34-.76a6.218,6.218,0,0,1,1.41-.45Z" fill="#5a4de4"/>
            <g id="Group_84" data-name="Group 84">
              <path id="Path_171" data-name="Path 171" d="M730.27,239.35a2.29,2.29,0,1,0,1.38,2.93,2.29,2.29,0,0,0-1.38-2.93Z" fill="#5a4de4"/>
              <path id="Path_172" data-name="Path 172" d="M729.94,240.27a1.317,1.317,0,1,0,.752.678,1.322,1.322,0,0,0-.752-.678Z" fill="#5a4de4"/>
            </g>
          </g>
          <path id="Path_173" data-name="Path 173" d="M736.98,246.42a.386.386,0,0,1,.5.2c3.39,7.55-1.75,11.77-1.8,11.81a.391.391,0,1,1-.49-.61c.19-.16,4.71-3.9,1.58-10.88a.392.392,0,0,1,.2-.52h.02Z" fill="#5a4de4"/>
        </g>
        <path id="Path_174" data-name="Path 174" d="M726.04,261.15a.611.611,0,0,1,.14-.03,14.838,14.838,0,0,0,9.24-3.45.368.368,0,0,1,.5.54,15.311,15.311,0,0,1-9.74,3.65.376.376,0,0,1-.37-.37A.363.363,0,0,1,726.04,261.15Z" fill="#5a4de4"/>
      </g>
    </g>
    <g id="Group_91" data-name="Group 91">
      <g id="Group_90" data-name="Group 90">
        <path id="Path_175" data-name="Path 175" d="M847.54,112.25a1.164,1.164,0,0,0-1.22,1.09v53.5a2.659,2.659,0,0,0,2.66,2.66H961.34a2.659,2.659,0,0,0,2.66-2.66v-53.5a1.164,1.164,0,0,0-1.22-1.09H847.55" fill="#fff"/>
        <path id="Path_176" data-name="Path 176" d="M847.47,112.25H962.76a1.229,1.229,0,0,1,1.23,1.23v7.5H846.32v-7.57a1.161,1.161,0,0,1,1.16-1.16Z" fill="#5a4de4"/>
        <g id="Group_89" data-name="Group 89">
          <circle id="Ellipse_14" data-name="Ellipse 14" cx="1.6" cy="1.6" r="1.6" transform="translate(956.16 114.93)" fill="#fff"/>
          <path id="Path_177" data-name="Path 177" d="M950.81,116.53a1.6,1.6,0,1,0,1.6-1.6,1.6,1.6,0,0,0-1.6,1.6Z" fill="#fff"/>
          <circle id="Ellipse_15" data-name="Ellipse 15" cx="1.6" cy="1.6" r="1.6" transform="translate(945.46 114.93)" fill="#fff"/>
        </g>
        <rect id="Rectangle_50" data-name="Rectangle 50" width="8.52" height="8.52" rx="0.61" transform="translate(856.66 127.11)" fill="#c4c1e9"/>
        <rect id="Rectangle_51" data-name="Rectangle 51" width="8.52" height="8.52" rx="0.61" transform="translate(856.66 138.88)" fill="#c4c1e9"/>
        <rect id="Rectangle_52" data-name="Rectangle 52" width="8.52" height="8.52" rx="0.61" transform="translate(856.66 150.64)" fill="#c4c1e9"/>
        <rect id="Rectangle_53" data-name="Rectangle 53" width="81.96" height="1.25" transform="translate(870.45 130.7)" fill="#c4c1e9"/>
        <rect id="Rectangle_54" data-name="Rectangle 54" width="81.96" height="1.25" transform="translate(870.45 142.51)" fill="#c4c1e9"/>
        <rect id="Rectangle_55" data-name="Rectangle 55" width="81.96" height="1.25" transform="translate(870.45 154.28)" fill="#c4c1e9"/>
      </g>
      <path id="Path_178" data-name="Path 178" d="M956.72,151.23a2.785,2.785,0,0,1-1.98-.83l-8.46-8.55a2.793,2.793,0,0,1,3.97-3.93l6.41,6.48,17.1-18.52a2.788,2.788,0,1,1,4.1,3.78l-19.08,20.66a2.824,2.824,0,0,1-2,.9h-.05Z" fill="#5a4de4"/>
    </g>
    <g id="Group_92" data-name="Group 92" clip-path="url(#clip-path)">
      <path id="Path_179" data-name="Path 179" d="M1074.26,119.58h51.82a12.288,12.288,0,0,1,12.29,12.293V148.93a12.273,12.273,0,0,0,12.44,12.28l82.52-1.04" fill="none" stroke="#5a4de4" stroke-linecap="round" stroke-linejoin="round" stroke-width="1.7" stroke-dasharray="13.52"/>
    </g>
    <g id="Group_93" data-name="Group 93">
      <path id="Path_180" data-name="Path 180" d="M1098.23,97.92l-21.01-9.66a6.425,6.425,0,0,0-5.39,0l-21.01,9.66a6.467,6.467,0,0,0-3.76,5.83c-.03,6.51.34,19.36,3.36,28.93,3.66,11.6,23.78,18.91,24.09,18.82.31.1,20.43-7.22,24.09-18.82,3.02-9.57,3.4-22.43,3.36-28.93a6.433,6.433,0,0,0-3.76-5.83Z" fill="#5a4de4"/>
      <path id="Path_181" data-name="Path 181" d="M1087.15,112.55h-6.13a1.788,1.788,0,0,1-1.79-1.79v-6.13a1.788,1.788,0,0,0-1.79-1.79h-6.37a1.788,1.788,0,0,0-1.79,1.79v6.13a1.788,1.788,0,0,1-1.79,1.79h-6.13a1.788,1.788,0,0,0-1.79,1.79v6.37a1.788,1.788,0,0,0,1.79,1.79h6.13a1.788,1.788,0,0,1,1.79,1.79v6.13a1.788,1.788,0,0,0,1.79,1.79h6.37a1.788,1.788,0,0,0,1.79-1.79v-6.13a1.788,1.788,0,0,1,1.79-1.79h6.13a1.788,1.788,0,0,0,1.79-1.79v-6.37a1.788,1.788,0,0,0-1.79-1.79Z" fill="#fff"/>
    </g>
    <g id="Group_94" data-name="Group 94" clip-path="url(#clip-path)">
      <path id="Path_182" data-name="Path 182" d="M582.4,112.1V69.11a10.7,10.7,0,0,1,10.7-10.7H704.54a10.7,10.7,0,0,0,10.7-10.7V-33.63" fill="none" stroke="#5a4de4" stroke-linecap="round" stroke-linejoin="round" stroke-width="1.7" stroke-dasharray="13.52"/>
    </g>
    <g id="Group_96" data-name="Group 96">
      <path id="Path_183" data-name="Path 183" d="M609.75,108.4a13.814,13.814,0,0,0-27.35-2.15,13.814,13.814,0,0,0-27.36,2.7c0,4.09,2.2,7.48,4.6,10.29l20.71,20.43a2.569,2.569,0,0,0,3.59.02l20.28-19.67c3.14-3.24,5.75-6.81,5.53-11.61Z" fill="#5a4de4"/>
      <g id="Group_95" data-name="Group 95" clip-path="url(#clip-path-5)">
        <path id="Path_184" data-name="Path 184" d="M557.98,120.39l12.33.1a.462.462,0,0,0,.45-.33l3.12-9.78a.474.474,0,0,1,.91.03l4.12,16.3a.471.471,0,0,0,.92-.03l2.31-12.42a.474.474,0,0,1,.93-.01l1.84,8.55a.472.472,0,0,0,.92.01l2.95-12.28a.47.47,0,0,1,.91-.02l3.02,10.25a.481.481,0,0,0,.44.34l11.21.23" fill="none" stroke="#e3f9f4" stroke-miterlimit="10" stroke-width="1.21"/>
      </g>
    </g>
    <g id="Group_97" data-name="Group 97" clip-path="url(#clip-path)">
      <path id="Path_186" data-name="Path 186" d="M78.42,655.73V605.51a12.24,12.24,0,0,1,12.24-12.24H220.11a12.24,12.24,0,0,0,12.24-12.24V553.27a15.522,15.522,0,0,1,15.518-15.52H321.35" fill="none" stroke="#5a4de4" stroke-linecap="round" stroke-linejoin="round" stroke-width="1.7" stroke-dasharray="13.52"/>
    </g>
    <g id="Group_98" data-name="Group 98">
      <path id="Path_187" data-name="Path 187" d="M106.86,79.82h-1.68a5.651,5.651,0,0,1-5.65-5.649V72.49a1.249,1.249,0,0,0-1.14-1.27,1.2,1.2,0,0,0-1.27,1.2v1.75a5.651,5.651,0,0,1-5.649,5.65H89.79a1.249,1.249,0,0,0-1.27,1.14,1.2,1.2,0,0,0,1.2,1.27h1.75a5.651,5.651,0,0,1,5.65,5.649V89.56a1.249,1.249,0,0,0,1.14,1.27,1.2,1.2,0,0,0,1.27-1.2V87.88a5.651,5.651,0,0,1,5.649-5.65h1.751a1.2,1.2,0,0,0,1.2-1.27A1.25,1.25,0,0,0,106.86,79.82Z" fill="#5a4de4"/>
      <path id="Path_188" data-name="Path 188" d="M557.11,261.07h-1.68a5.651,5.651,0,0,1-5.65-5.649V253.74a1.25,1.25,0,0,0-1.14-1.27,1.2,1.2,0,0,0-1.27,1.2v1.75a5.651,5.651,0,0,1-5.649,5.65H540.04a1.25,1.25,0,0,0-1.27,1.14,1.2,1.2,0,0,0,1.2,1.27h1.75a5.651,5.651,0,0,1,5.65,5.649v1.681a1.249,1.249,0,0,0,1.14,1.27,1.2,1.2,0,0,0,1.27-1.2v-1.75a5.651,5.651,0,0,1,5.649-5.65h1.751a1.2,1.2,0,0,0,1.2-1.27,1.25,1.25,0,0,0-1.27-1.14Z" fill="#5a4de4"/>
      <path id="Path_189" data-name="Path 189" d="M785.55,76.65h-1.68A5.651,5.651,0,0,1,778.22,71V69.32a1.249,1.249,0,0,0-1.14-1.27,1.2,1.2,0,0,0-1.27,1.2V71a5.651,5.651,0,0,1-5.649,5.65H768.48a1.25,1.25,0,0,0-1.27,1.14,1.2,1.2,0,0,0,1.2,1.27h1.75a5.651,5.651,0,0,1,5.65,5.649V86.39a1.249,1.249,0,0,0,1.14,1.27,1.2,1.2,0,0,0,1.27-1.2V84.71a5.651,5.651,0,0,1,5.649-5.65h1.751a1.2,1.2,0,0,0,1.2-1.27A1.25,1.25,0,0,0,785.55,76.65Z" fill="#5a4de4"/>
      <path id="Path_190" data-name="Path 190" d="M437.36,548.55h-1.68a5.651,5.651,0,0,1-5.65-5.649V541.22a1.25,1.25,0,0,0-1.14-1.27,1.2,1.2,0,0,0-1.27,1.2v1.75a5.651,5.651,0,0,1-5.649,5.65H420.29a1.249,1.249,0,0,0-1.27,1.14,1.2,1.2,0,0,0,1.2,1.27h1.75a5.651,5.651,0,0,1,5.65,5.649v1.681a1.25,1.25,0,0,0,1.14,1.27,1.2,1.2,0,0,0,1.27-1.2v-1.75a5.651,5.651,0,0,1,5.649-5.65h1.751a1.2,1.2,0,0,0,1.2-1.27,1.249,1.249,0,0,0-1.27-1.14Z" fill="#5a4de4"/>
    </g>
  </g>
</svg>
