<svg xmlns="http://www.w3.org/2000/svg" width="587.862" height="189" viewBox="0 0 587.862 189">
  <g id="Group_1" data-name="Group 1" transform="translate(-822 510)">
    <g id="Group_8" data-name="Group 8" transform="translate(337 -1167)">
      <circle id="Ellipse_1" data-name="Ellipse 1" cx="94.5" cy="94.5" r="94.5" transform="translate(485 657)" fill="#566fe2"/>
      <g id="Group_539" data-name="Group 539" transform="matrix(0.755, 0.656, -0.656, 0.755, 27.569, -647.401)">
        <path id="Union_8" data-name="Union 8" d="M22.36,94.9c-5.092-.26-10.9-15.422-15.268-31.062C4.848,55.8,2.99,47.642,1.8,41.3c3.3,3.129,9.977,6.078,23.4,3.856,15.311-2.539,28.394-8.238,40.315-11.347-11.922,3.107-25,8.8-40.312,11.341C11.772,47.383,5.1,44.429,1.8,41.3,1.216,38.2.791,35.529.562,33.53-1.2,18.209,1.345,9.191,6.03,4.409A15.529,15.529,0,0,1,7.678,2.97,14.772,14.772,0,0,1,13.176.4c8.074-1.958,17.107,6.776,25.4,6.776S54.721-1.093,62.534.122C68.684,1.077,73.872,5.063,76.048,14c.179.719.338,1.474.472,2.264h.006a58.559,58.559,0,0,1,.258,15.54h-.007c-.058.572-.11,1.138-.174,1.728-.748,6.44-3.5,19.745-7.129,32.324-4.286,14.9-9.812,28.8-14.688,29.045-3.7.194-4.2-10.811-6.187-20.447-4.069-19.7-16.273-18.9-20.167.607C26.555,84.46,26,94.9,22.463,94.9ZM1.789,41.3H1.8a.009.009,0,0,0,0,.007S1.793,41.3,1.789,41.3Z" transform="translate(1296.291 646.111)" fill="#fff"/>
      </g>
      <path id="Path_2" data-name="Path 2" d="M77.872-58.576v22.99q-15.3-9.2-26.8-9.2t-18.392,7.9q-6.9,7.9-6.9,21.266,0,12.645,7.256,20.224t19.4,7.58q10.633,0,25.433-8.55V26.489q-16.6,5.532-27.66,5.532a42.945,42.945,0,0,1-32.33-13.974Q4.59,4.073,4.59-16.043q0-20.476,13.543-34.665A43.827,43.827,0,0,1,51.074-64.9Q63.575-64.9,77.872-58.576Zm15.3-6.61h18.392V30.728H93.175ZM128.882-.022q0-14.3,9.124-23.35t23.422-9.052a29.939,29.939,0,0,1,22.308,9.232q9.017,9.232,9.017,22.883,0,13.938-9.017,23.134t-22.6,9.2q-15.3,0-23.781-9.735A32.992,32.992,0,0,1,128.882-.022Zm45.765,0a16.044,16.044,0,0,0-4.1-10.92A12.378,12.378,0,0,0,161-15.612a12.92,12.92,0,0,0-9.771,4.383,14.828,14.828,0,0,0-4.1,10.489,16.7,16.7,0,0,0,4.059,11.352A12.549,12.549,0,0,0,161,15.281a12.49,12.49,0,0,0,9.555-4.562A15.558,15.558,0,0,0,174.648-.022Zm27.8-31.037h19.425l16.964,36.21,16.938-36.21h19.237L246.249,30.728H231.241ZM344.274,4.217H300.233a14.853,14.853,0,0,0,3.916,9.7,11.116,11.116,0,0,0,8.3,3.736q8.478,0,13.291-7.687l16.884,5.6q-9.412,16.453-29.241,16.453-14.585,0-23.206-8.837T281.553-.6a30.707,30.707,0,0,1,9.088-22.559,30.353,30.353,0,0,1,22.38-9.124,29.246,29.246,0,0,1,22.308,9.591q8.945,9.591,8.945,23.96ZM300.377-8.14h24.858q-2.586-11.567-11.854-11.567a12.962,12.962,0,0,0-8.8,3.017A13.049,13.049,0,0,0,300.377-8.14Z" transform="translate(728.588 768.082)" fill="#1e1e1e"/>
    </g>
  </g>
</svg>
