<svg id="PRINT_1" xmlns="http://www.w3.org/2000/svg" width="612.28" height="858.9" viewBox="0 0 612.28 858.9">
    <g id="Group_37" data-name="Group 37">
        <rect id="Rectangle_6" data-name="Rectangle 6" width="612.28" height="858.9"
              transform="translate(612.28 858.9) rotate(180)" fill="#fff"/>
        <ellipse id="Ellipse_2" data-name="Ellipse 2" cx="211.49" cy="9" rx="211.49" ry="9"
                 transform="translate(88.78 659.64)" fill="#e2e2e2"/>
        <path id="Path_123" data-name="Path 123"
              d="M147.04,565.54c101.25,72.47,250.93,46.63,327.78-53.5,61.87-80.61,70.32-206.14,15.07-292.2-44.01-68.56-126.91-104.83-202.74-91.36-84.63,15.03-152.13,91.77-190.13,172.45C66.89,364.9,59.95,445.62,94.14,507.15c13.15,23.67,31.59,43.15,52.9,58.4Z"
              fill="#d8eefe"/>
        <g id="Group_34" data-name="Group 34">
            <path id="Path_124" data-name="Path 124"
                  d="M498.33,454.97c-22.06-8.35-40.21,1.06-54.12,16.95s-26.57,35.39-56.94,26.82-39.02-1.86-84.6,3.81-85.58-47.43-99.88-50.73c0,0,24.31-168.97,33.47-212.83s48.53-48.83,71.65-52.7c20.4-3.42,81.6,36.19,98.56,57.02s43.63,56.77,52.46,97.67,39.41,114,39.41,114Z"
                  fill="#cc3943"/>
            <path id="Path_125" data-name="Path 125"
                  d="M315.11,185.85s66.87,19.52,106.5,103.37c30.77,65.09,43.97,138.52,54.66,157.41,16.05,28.35,48.55,8.41,48.55,8.41s-26.41-30.52-47.35-86.55-60.35-131.4-95.69-155.83c-39.33-27.19-66.69-26.8-66.69-26.8Z"
                  fill="#e85d66"/>
            <path id="Path_126" data-name="Path 126"
                  d="M298.56,410.09s-2.19,71.23-6.57,104.98-12.88,130.99-12.88,130.99-17.45.77-27.67-2.3c0,0,1.24-192.96.51-213.67s2.6-102.78,2.6-102.78l59.04,3.68-15.03,79.09Z"
                  fill="#313858"/>
            <path id="Path_127" data-name="Path 127"
                  d="M369.76,658.02c-.39-.12-.74-.22-1.11-.33a60.235,60.235,0,0,1-4.75-6c-2.87-4.32-6.03-9.41-6.03-9.41l-1.13.5c-1.44-2.22-3.34-3.87-6.05-4.06-2.76-.2-4.73,1.88-4.66,5.72l-6.97-.64s.51,8.9-.2,12.96a95.326,95.326,0,0,0-.8,11.57h40.36c3.12,0-1.91-8.29-8.66-10.32Z"
                  fill="#313858"/>
            <g id="Group_31" data-name="Group 31">
                <path id="Path_128" data-name="Path 128"
                      d="M239.35,662.87c2.14-2.54,12.65-14.49,14.46-17.79s4.27-6.1,8.38-6.36,6.74,3.3,4.6,9.66-8.71,12.71-11.34,15-16.11-.51-16.11-.51Z"
                      fill="#313858"/>
                <path id="Path_129" data-name="Path 129"
                      d="M230.46,668.34c-3.58,0,2.19-8.29,9.91-10.32a137.744,137.744,0,0,1,14.2-3.22c1.97-.25,11.41-10.23,11.41-10.23l9.53-.76s-.59,8.9.23,12.96a84.417,84.417,0,0,1,.92,11.57H230.45Z"
                      fill="#313858"/>
                <path id="Path_130" data-name="Path 130"
                      d="M241.49,662.36c2.47-3.05,9.04-10.68,11.34-13.47a37.9,37.9,0,0,0,3.78-5.59l-2.63-1.02c-3.18,4.47-2.97,4.23-6.9,9.41a82.843,82.843,0,0,1-9.04,9.41l3.45,1.27Z"
                      fill="#313858"/>
            </g>
            <path id="Path_131" data-name="Path 131"
                  d="M292.13,423.46s14.79,70.56,21.19,93.95c8.98,32.82,24.74,133.63,24.74,133.63s15.35,2.95,25.58-.12c0,0-12.23-200.12-11.5-220.83s-2.6-102.78-2.6-102.78l-59.04,3.68,1.63,92.47Z"
                  fill="#313858"/>
            <path id="Path_132" data-name="Path 132"
                  d="M223.12,264.42s-.81,9.67,4.03,15.12,10.08,16.12,10.08,16.12,7.46-15.72,10.88-20.76,13.3-16.33,13.5-26.81-16.93-26.2-16.93-26.2-9.47,16.93-10.28,26.61-11.29,15.92-11.29,15.92Z"
                  fill="#eaa996"/>
            <path id="Path_133" data-name="Path 133"
                  d="M321.83,149.34s-6.79,30.39-2,36.47c2.76,3.5,13.68,13.46,13.68,13.46s-10.98,23.87-22.03,24.48c-51.72,2.84-36.79-26.71-36.79-26.71s10.81-6.78,12.59-11.59c1.81-4.9,4.5-23.19,4.5-23.19l30.04-12.92Z"
                  fill="#eaa996"/>
            <path id="Path_134" data-name="Path 134"
                  d="M318.37,181.39c-11.73,11.84-29.75,7.61-30.29,1.36,1.7-6.84,3.71-20.48,3.71-20.48l30.04-12.92s-4.86,21.8-3.46,32.05Z"
                  fill="#ca8875"/>
            <path id="Path_135" data-name="Path 135"
                  d="M247.87,355.28c2.71-6.57,5.74-12.33,5.74-12.33l93.44-.27s.51,4.63,1.23,12.61H247.87Z"
                  fill="#313858"/>
            <path id="Path_136" data-name="Path 136"
                  d="M249.7,392.32c-.92-.75-1.41-38.25-1.41-38.25s6.17-108.09,7.87-120.51,5.94-37.27,5.94-37.27l20.48-5.39s-1.91,10.21,11.31,12.36a30.3,30.3,0,0,0,31.26-13.68l27.14,16.46-2.25,186.28H249.7Z"
                  fill="#6eafcf"/>
            <g id="Group_32" data-name="Group 32">
                <path id="Path_137" data-name="Path 137"
                      d="M325.38,147.72s-.09-9.24,7.51-8.73c4.85.32,5.07,4.86,1.08,10.56-1.68,2.4-2.04,7.95-4.08,9.67-2.48,2.09-4.38-1.34-5.06-2.89-1.12-2.57.55-8.6.55-8.6Z"
                      fill="#eaa996"/>
                <path id="Path_138" data-name="Path 138"
                      d="M284.35,146.27s.75-9.21-6.88-9.24c-4.87-.02-5.4,4.49-1.82,10.46,1.51,2.51,1.47,8.07,3.39,9.93,2.33,2.26,4.46-1.02,5.25-2.52,1.3-2.48.06-8.62.06-8.62Z"
                      fill="#eaa996"/>
                <path id="Path_139" data-name="Path 139"
                      d="M332.51,132.24c-.22,2.88-.81,4.75-1.61,9.05-.19,1.04-.4,2.23-.61,3.62a102.812,102.812,0,0,1-6.58,22.52c-1.48,3.76-9.89,11.81-13.65,13.98s-8.35,1.54-11.96-.9-12.26-10.6-13.47-14.46a113.964,113.964,0,0,1-4.79-23.58c-.1-1.27-.21-2.35-.32-3.32-.48-4.29-.93-5.99-.94-8.83-.03-8.95,10.49-21.36,27.74-20.75,20.4.72,26.86,13.73,26.2,22.66Z"
                      fill="#eaa996"/>
                <path id="Path_140" data-name="Path 140"
                      d="M277.8,124.89c.15,1.29.39,10.66.7,12.55l.72,4.44.02-.03c.02.41.03.8.05,1.25.05,1.44.09,2.96.14,4.52l2.55.09c-.52-3.44-.84-6.64-1.01-8.6l.2-.31.15-.23a41.361,41.361,0,0,0,5.4-12.87l1.61-7.02h0c.17-.2,1.91-3.4,12.78-3.88,8.54-.38,18.34,3.52,18.99,4.24l5.41-1.84.32,9.1a41.432,41.432,0,0,0,3.44,14.98l.02.04c-.24,1.96-.64,4.9-1.24,8.03l2.39.08c.13-1.3.26-2.57.39-3.79.16-1.54.32-2.85.46-3.99l-.1-.16c.21-.69.45-1.48.72-2.36.54-1.8,1.6-12.9,1.65-13.2,1.06-6.78.33-10.17-5.26-11.23l-3.43-6.13s-4.43-4.72-13.91-6.31c-.34-.06-.67-.11-1.02-.15-10.1-1.39-21.57,2.24-26.32,8.48a20.455,20.455,0,0,0-1.77,3.65c-3.59,1.14-4.58,3.9-4.17,9.5.03.38.07.76.12,1.17Z"
                      fill="#313858"/>
                <path id="Path_141" data-name="Path 141"
                      d="M281.89,140.51c.1.56,1.6.95,1.86,1.11.55.36.17,3.21,2,7.37,1.35,3.07,4.47,4.57,11.11,3.93,5.07-.49,5.36-7.05,6.1-8.71s1.22-1.87,2-1.84h.35c.78.04,1.24.28,1.87,1.99s.45,8.27,5.47,9.12c6.58,1.11,9.8-.17,11.36-3.13,2.12-4.02,1.94-6.89,2.52-7.21.27-.15,1.8-.43,1.93-.98a6.787,6.787,0,0,0,.18-1.96c-.08-1.01-4.34-1.52-7.4-1.63s-11.23-.4-13.07.32a7.443,7.443,0,0,1-5.8-.21c-1.79-.85-9.95-1.14-13.02-1.25s-7.35.1-7.5,1.1a6.921,6.921,0,0,0,.04,1.97Zm26.89,1.02c.45-1.25,1.73-1.27,5.55-1.3s8.93-.03,9.54.63.74,4.79-.36,7.35c-1.26,2.95-3.12,4.87-7.37,4.72-7.1-.25-6.7-4.9-7.14-7.05A10.926,10.926,0,0,1,308.78,141.53Zm-22.22-2c.66-.61,5.75-.26,9.56.05s5.09.41,5.45,1.69a11.1,11.1,0,0,1-.53,4.32c-.6,2.11-.45,6.78-7.62,6.53-4.24-.15-6.03-2.2-7.08-5.23-.92-2.64-.43-6.75.23-7.36Z"
                      fill="#313858"/>
            </g>
            <path id="Path_142" data-name="Path 142"
                  d="M215.46,257.77c1.61,4.84,1.61,9.88,1.61,16.53s-.6,18.14,3.23,20.96,9.27,8.26,13.91,3.83,7.05-11.49,7.66-18.14-6.85-16.33-10.28-22.17l-16.12-1.01Z"
                  fill="#eaa996"/>
            <path id="Path_143" data-name="Path 143"
                  d="M356.8,268.59c2.02,3.46,6.69-56.51,3.57-59.99-5.58-6.25-28.94-16.9-28.94-16.9s-19.47,41.93-21.36,65.55c-1.39,17.36-3.13,62.35-1.24,77.46.53,4.27.53,20.48,1.24,29.18,1.93,20.57,3.25,153.52,3.25,153.52,25.89,9.75,63.11,1.88,63.11,1.88l-17-140.44c-.13-11.52-2.15-99.52-2.63-110.25Z"
                  fill="#fff"/>
            <path id="Path_144" data-name="Path 144"
                  d="M323.99,187.45s-11.69,26.51-15.47,63.35.31,83.91.31,83.91l17.9-87.85-7.21-10.39,11-6.65.91-38.11-7.44-4.25Z"
                  fill="#c0e7fa"/>
            <path id="Path_145" data-name="Path 145"
                  d="M262.11,196.28c-9.79,4.52-15.63,12.89-21.3,25.65s-9.23,36.85-9.23,36.85,1.26,46.18-2.29,56.8c4.36-3.35,21.26-19.13,28.34-32.59,10.23-19.44,4.47-86.71,4.47-86.71Z"
                  fill="#fff"/>
            <path id="Path_146" data-name="Path 146"
                  d="M229.3,315.58a11.7,11.7,0,0,1-19.13-7.09c-2.13-10.63-3.5-55.8-3.5-55.8l27.94-6.42s6.86,17.46,7.26,34.67c.43,18.74-12.57,34.63-12.57,34.63Z"
                  fill="#fff"/>
            <path id="Path_147" data-name="Path 147"
                  d="M282.34,516.92s-25.5,0-44.08-2.65c0,0,5.41-142.19,6.02-158.99.14-5.26.33-10.86.61-16.79,3.78-82.19,17.23-142.21,17.23-142.21l15.37-4.33-2.83,42.16s3.57,70.56,7.09,97.77c.37,2.83.12,65.02.3,102.39s.31,82.65.31,82.65Z"
                  fill="#fff"/>
            <path id="Path_148" data-name="Path 148" d="M244.57,346.22s3.85-80.97,9.24-111.15" fill="none"
                  stroke="#c0e7fa" stroke-linecap="round" stroke-linejoin="round" stroke-width="5.52"/>
            <path id="Path_149" data-name="Path 149"
                  d="M283.14,187.7s-5.2,79.94-4.25,105.45,2.83,38.73,2.83,38.73l-17-74.63,6.97-17.62-6.97-10.72,10.9-37.27,7.52-3.94Z"
                  fill="#c0e7fa"/>
            <path id="Path_150" data-name="Path 150"
                  d="M232.17,246.95c5.14,10.94-.5,27.21-11.85,26.07s-13.5-13.85-11.41-25.33,16.88-14.34,23.27-.74Z"
                  fill="#313858"/>
            <path id="Path_151" data-name="Path 151"
                  d="M221.19,262.62c-3.22-.88-7.51-1.24-8.58-3.35s-2.68-2.65-4.47-4.24-.72-3.18-2.86-5.12,0-5.3-.18-7.06a28.231,28.231,0,0,1,.36-8.47c.72-3.18,3.58-3.88,7.33-5.12s6.44-1.24,6.44.71-3.93,4.59-3.93,4.59,6.44-2.12,8.23-2.82,4.65.88,3.4,3.18-6.44,5.3-8.05,6.18a6.93,6.93,0,0,0-2.5,2.65,25.721,25.721,0,0,0,8.23-1.41c3.4-1.41,6.44-4.59,8.76-3.18s1.07,3.18-1.25,5.12c0,0-5.01,3.35-6.62,4.06,0,0,5.01.18,7.51-.88s3.76.18,3.04,2.12-7.69,3.53-7.87,4.24,1.25,2.47,2.15,4.59-9.12,4.24-9.12,4.24Z"
                  fill="#eaa996"/>
            <path id="Path_152" data-name="Path 152"
                  d="M231.81,265.26s4.17,11.28,4.43,19.45a57.07,57.07,0,0,1-2.15,16.07" fill="none" stroke="#c0e7fa"
                  stroke-linecap="round" stroke-linejoin="round" stroke-width="5.52"/>
            <path id="Path_153" data-name="Path 153"
                  d="M247.87,296.96s-16.1,19.14-22.14,20.67c-9.42,2.4-12.92-3.36-12.92-3.36" fill="none"
                  stroke="#c0e7fa" stroke-linecap="round" stroke-linejoin="round" stroke-width="5.52"/>
            <g id="Group_33" data-name="Group 33">
                <path id="Path_154" data-name="Path 154"
                      d="M126.66,229.53c58.7-7.33,81.53-33.25,81.53-33.25s23.96,25.25,81.53,33.25c0,0,22.55,116.93-81.53,171.39-104.09-54.46-81.53-171.39-81.53-171.39Z"
                      fill="#e85d66"/>
                <path id="Path_155" data-name="Path 155"
                      d="M208.2,382.2c34.7-20.15,56.55-50.37,64.96-89.93a174.674,174.674,0,0,0,3.28-47.03c-36.69-3.75-59.69-17.52-68.25-23.72-7.65,5.59-31.56,19.98-68.25,23.72a174.4,174.4,0,0,0,3.29,47.03c8.42,39.55,30.26,69.77,64.96,89.93Z"
                      fill="#fff"/>
                <path id="Path_156" data-name="Path 156"
                      d="M208.18,229.23c10.16,6.62,30.99,17.59,62.18,21.72a167.485,167.485,0,0,1-3.42,40.01c-7.76,36.46-27.51,64.65-58.74,83.84-31.22-19.19-50.98-47.37-58.74-83.84a167.485,167.485,0,0,1-3.42-40.01c31.7-4.24,53.26-16.02,62.14-21.71m.02-7.72c-7.65,5.59-31.56,19.98-68.25,23.73a174.4,174.4,0,0,0,3.29,47.03c8.42,39.55,30.26,69.77,64.96,89.93,34.7-20.15,56.55-50.37,64.96-89.93a174.674,174.674,0,0,0,3.28-47.03c-36.69-3.75-59.69-17.52-68.25-23.73h0Z"
                      fill="#cc3943"/>
                <ellipse id="Ellipse_3" data-name="Ellipse 3" cx="36.63" cy="37.94" rx="36.63" ry="37.94"
                         transform="translate(171.57 258.05)" fill="#6eafcf"/>
                <path id="Path_157" data-name="Path 157"
                      d="M189.96,290.13h12.38V277.76h11.72v12.37h12.37v11.72H214.06v12.38H202.34V301.85H189.96Z"
                      fill="#fff"/>
            </g>
            <rect id="Rectangle_7" data-name="Rectangle 7" width="20.37" height="4.98"
                  transform="translate(269.44 378.01) rotate(180)" fill="#c0e7fa"/>
            <rect id="Rectangle_8" data-name="Rectangle 8" width="20.37" height="4.98"
                  transform="translate(349.4 378.01) rotate(180)" fill="#c0e7fa"/>
            <path id="Path_158" data-name="Path 158"
                  d="M372.84,344.74c-2.89,2.25-5.91,2.36-8.94,3.35-.87.28-4.42-2.65-5.19-2.46s.2,6.24-.41,6.34c-3.33.56-6.98,1.14-9.16,2.14s-2.6,4.26-1.77,5.2a6.423,6.423,0,0,0,1.73,1.39s-3.48.21-3.85,2.65.89,3.27,1.92,3.73a6.938,6.938,0,0,0,2.68.35s-2.07,1.22-2.17,3.03,1.02,3.28,4.6,2.76c0,0-1.23,1.33.51,3.88s5.8.08,9.06.52,4.83-3.18,5.95-6.51,8.44-11.33,8.44-11.33l-3.41-15.02Z"
                  fill="#313858"/>
            <path id="Path_159" data-name="Path 159"
                  d="M360.37,208.6s41.97,70.27,49.07,82.35,10.95,27.1,4.85,36.36c-5.33,8.1-42.53,42.07-42.53,42.07s1.41-15.94-5.3-22.24c0,0,16.68-26.48,21.1-31.89,1.85-2.27-8.52-16.67-13.35-21.63-11.49-11.81-19.03-19.86-23-25.34-5.68-7.82,9.15-59.68,9.15-59.68Z"
                  fill="#fff"/>
            <path id="Path_160" data-name="Path 160" d="M357.48,245.51s-.68,26.38,0,50.48" fill="none" stroke="#c0e7fa"
                  stroke-linecap="round" stroke-linejoin="round" stroke-width="2.97"/>
        </g>
        <g id="Group_35" data-name="Group 35">
            <path id="Path_161" data-name="Path 161"
                  d="M522.02,594.31,96.11,653.33l10.5-49.43-10.5-46.41,425.91-59.02-8.4,51.12Z" fill="#c6c9cf"/>
            <path id="Path_162" data-name="Path 162"
                  d="M522.02,586.79,96.11,643.22l10.5-49.43-10.5-46.41,425.91-56.43-8.4,51.12Z" fill="#369ccf"/>
            <path id="Path_166" data-name="Path 166"
                  d="M16.48-56H3.2V0H17.04C25.84,0,30.4-4.64,30.4-13.28v-4.56c0-5.92-1.84-10.08-6.56-11.92v-.16c3.92-1.84,5.68-5.44,5.68-11.2v-2C29.52-51.76,25.6-56,16.48-56Zm-.56,30.8c4,0,5.68,1.6,5.68,6.8v4.88C21.6-9.36,20-8,17.04-8H12V-25.2ZM16.24-48c3.12,0,4.48,1.76,4.48,5.76v3.12c0,4.48-2,5.92-5.28,5.92H12V-48Zm28.24,0h15.2v-8h-24V0h24V-8H44.48V-24.4H56.56v-8H44.48ZM64-42.56c0,6.4,2.32,11.04,9.68,17.52C79.44-20,81.2-16.96,81.2-12.88c0,4-1.76,5.44-4.56,5.44s-4.56-1.44-4.56-5.44v-4H63.76v3.44C63.76-4.48,68.24.64,76.88.64S90-4.48,90-13.44c0-6.4-2.32-11.04-9.68-17.52C74.56-36,72.8-39.04,72.8-43.12c0-4,1.6-5.52,4.4-5.52s4.4,1.52,4.4,5.52v2.32h8.32v-1.76c0-8.96-4.4-14.08-12.96-14.08S64-51.52,64-42.56ZM92.48-48h9.2V0h8.8V-48h9.2v-8H92.48ZM135.92,0h13.92c8.8,0,13.12-4.88,13.12-13.84V-42.16c0-8.96-4.32-13.84-13.12-13.84H135.92Zm13.76-48c2.8,0,4.48,1.44,4.48,5.44v29.12c0,4-1.68,5.44-4.48,5.44h-4.96V-48Zm26.96,4.88c0-4,1.76-5.52,4.56-5.52s4.56,1.52,4.56,5.52v30.24c0,4-1.76,5.52-4.56,5.52s-4.56-1.52-4.56-5.52Zm-8.8,29.68c0,8.96,4.72,14.08,13.36,14.08s13.36-5.12,13.36-14.08V-42.56c0-8.96-4.72-14.08-13.36-14.08s-13.36,5.12-13.36,14.08Zm49.6-7.44v8c0,4-1.76,5.44-4.56,5.44s-4.56-1.44-4.56-5.44V-43.12c0-4,1.76-5.52,4.56-5.52s4.56,1.52,4.56,5.52v6h8.32v-5.44c0-8.96-4.48-14.08-13.12-14.08s-13.12,5.12-13.12,14.08v29.12C199.52-4.48,204,.64,212.64.64s13.12-5.12,13.12-14.08v-7.44ZM228.56-48h9.2V0h8.8V-48h9.2v-8h-27.2Zm39.12,4.88c0-4,1.76-5.52,4.56-5.52s4.56,1.52,4.56,5.52v30.24c0,4-1.76,5.52-4.56,5.52s-4.56-1.52-4.56-5.52Zm-8.8,29.68c0,8.96,4.72,14.08,13.36,14.08S285.6-4.48,285.6-13.44V-42.56c0-8.96-4.72-14.08-13.36-14.08s-13.36,5.12-13.36,14.08ZM318.64,0c-.88-2.08-.96-4.08-.96-6.8v-8.64c0-5.84-1.44-10-5.84-11.84v-.16c3.92-1.84,5.76-5.52,5.76-11.28v-4.4c0-8.64-3.92-12.88-13.04-12.88H291.28V0h8.8V-22.8h3.04c4,0,5.76,1.92,5.76,7.12v8.8c0,4.56.32,5.44.8,6.88ZM304.32-48c3.12,0,4.48,1.76,4.48,5.76v5.52c0,4.48-2,5.92-5.28,5.92h-3.44V-48Z"
                  transform="translate(150.405 620.8) rotate(-8)" fill="#fff"/>
        </g>
        <g id="Group_36" data-name="Group 36">
            <path id="Path_163" data-name="Path 163"
                  d="M414.8,509.73,178.04,542.98l6.78-31.91-6.78-29.97L414.8,447.86l-5.42,33Z" fill="#c6c9cf"/>
            <path id="Path_164" data-name="Path 164"
                  d="M414.8,504.88,178.04,536.45l6.78-31.91-6.78-29.96L414.8,443l-5.42,33Z" fill="#369ccf"/>
            <path id="Path_165" data-name="Path 165"
                  d="M7.9-30.184c0-2.8,1.232-3.864,3.192-3.864s3.192,1.064,3.192,3.864V-9.016c0,2.8-1.232,3.864-3.192,3.864S7.9-6.216,7.9-9.016ZM1.736-9.408c0,6.272,3.3,9.856,9.352,9.856S20.44-3.136,20.44-9.408V-29.792c0-6.272-3.3-9.856-9.352-9.856s-9.352,3.584-9.352,9.856Zm34.72-5.208v5.6c0,2.8-1.232,3.808-3.192,3.808s-3.192-1.008-3.192-3.808V-30.184c0-2.8,1.232-3.864,3.192-3.864s3.192,1.064,3.192,3.864v4.2H42.28v-3.808c0-6.272-3.136-9.856-9.184-9.856s-9.184,3.584-9.184,9.856V-9.408c0,6.272,3.136,9.856,9.184,9.856S42.28-3.136,42.28-9.408v-5.208ZM44.24-33.6h6.44V0h6.16V-33.6h6.44v-5.6H44.24Zm27.384,3.416c0-2.8,1.232-3.864,3.192-3.864s3.192,1.064,3.192,3.864V-9.016c0,2.8-1.232,3.864-3.192,3.864s-3.192-1.064-3.192-3.864ZM65.464-9.408c0,6.272,3.3,9.856,9.352,9.856s9.352-3.584,9.352-9.856V-29.792c0-6.272-3.3-9.856-9.352-9.856s-9.352,3.584-9.352,9.856ZM97.44-39.2h-9.3V0h9.688c6.16,0,9.352-3.248,9.352-9.3v-3.192c0-4.144-1.288-7.056-4.592-8.344v-.112c2.744-1.288,3.976-3.808,3.976-7.84v-1.4C106.568-36.232,103.824-39.2,97.44-39.2Zm-.392,21.56c2.8,0,3.976,1.12,3.976,4.76v3.416c0,2.912-1.12,3.864-3.192,3.864H94.3V-17.64Zm.224-15.96c2.184,0,3.136,1.232,3.136,4.032v2.184c0,3.136-1.4,4.144-3.7,4.144H94.3V-33.6Zm19.768,0h10.64v-5.6h-16.8V0h16.8V-5.6H117.04V-17.08H125.5v-5.6H117.04ZM150.64,0a11.544,11.544,0,0,1-.672-4.76v-6.048c0-4.088-1.008-7-4.088-8.288v-.112c2.744-1.288,4.032-3.864,4.032-7.9v-3.08c0-6.048-2.744-9.016-9.128-9.016h-9.3V0h6.16V-15.96h2.128c2.8,0,4.032,1.344,4.032,4.984v6.16c0,3.192.224,3.808.56,4.816ZM140.616-33.6c2.184,0,3.136,1.232,3.136,4.032V-25.7c0,3.136-1.4,4.144-3.7,4.144h-2.408V-33.6Z"
                  transform="matrix(0.993, -0.122, 0.122, 0.993, 221.062, 520.219)" fill="#fff"/>
        </g>
        <g id="Group">
            <text id="Lorem_ipsum_dolor_sit_amet_consectetuer_adipiscing_elit_sed_diam_nonummy_nibh_euismod_"
                  data-name="Lorem ipsum dolor sit amet, consectetuer adipiscing elit, sed diam nonummy nibh euismod "
                  transform="translate(101.2 757.39)" fill="#919295" font-size="10.44"
                  font-family="JosefinSans-Light, Josefin Sans" font-weight="300">
                <tspan x="0" y="0">Lorem ipsum dolor sit amet, consectetuer adipiscing elit, sed diam nonummy nibh
                    euismod
                </tspan>
            </text>
            <text id="tincidunt_ut_laoreet_dolore_magna_aliquam_erat_volutpat._Ut_wisi_enim_ad_minim_veniam_quis_"
                  data-name="tincidunt ut laoreet dolore magna aliquam erat volutpat. Ut wisi enim ad minim veniam, quis "
                  transform="translate(95.74 779.26)" fill="#919295" font-size="10.44"
                  font-family="JosefinSans-Light, Josefin Sans" font-weight="300">
                <tspan x="0" y="0">tincidunt ut laoreet dolore magna aliquam erat volutpat. Ut wisi enim ad minim
                    veniam, quis
                </tspan>
            </text>
            <text id="nostrud_exerci_tation_ullamcorper_suscipit."
                  data-name="nostrud exerci tation ullamcorper suscipit." transform="translate(210.76 801.13)"
                  fill="#919295" font-size="10.44" font-family="JosefinSans-Light, Josefin Sans" font-weight="300">
                <tspan x="0" y="0">nostrud exerci tation ullamcorper suscipit.</tspan>
            </text>
        </g>
        <path id="Path_170" data-name="Path 170"
              d="M3.2-9.811v7.945H7.811V0H1.266V-9.811ZM8.944-4.892a4.883,4.883,0,0,1,.673-2.493,5.087,5.087,0,0,1,1.826-1.846,4.8,4.8,0,0,1,2.5-.686,4.8,4.8,0,0,1,2.5.686,5.194,5.194,0,0,1,1.84,1.846,4.81,4.81,0,0,1,.686,2.493,4.788,4.788,0,0,1-.686,2.506,5.12,5.12,0,0,1-1.84,1.82,4.871,4.871,0,0,1-2.5.673,4.86,4.86,0,0,1-2.506-.673,5.031,5.031,0,0,1-1.82-1.82A4.86,4.86,0,0,1,8.944-4.892Zm2,0a3.144,3.144,0,0,0,.407,1.573,3.061,3.061,0,0,0,1.106,1.14,2.961,2.961,0,0,0,1.553.42,2.81,2.81,0,0,0,1.506-.42,2.972,2.972,0,0,0,1.066-1.133,3.261,3.261,0,0,0,.387-1.58,3.238,3.238,0,0,0-.4-1.6,3.043,3.043,0,0,0-1.086-1.14,2.868,2.868,0,0,0-1.526-.42,2.868,2.868,0,0,0-1.526.42,3.043,3.043,0,0,0-1.086,1.14A3.238,3.238,0,0,0,10.944-4.892ZM26.193,0,24.127-3.119H22.834V0H20.9V-9.811h2.973a4.146,4.146,0,0,1,2.833.886,3.059,3.059,0,0,1,1.006,2.419,3.884,3.884,0,0,1-.38,1.7,2.819,2.819,0,0,1-1.166,1.246L28.446,0ZM22.834-4.985h1.373a1.366,1.366,0,0,0,1.146-.46,1.58,1.58,0,0,0,.36-.993,1.884,1.884,0,0,0-.307-1.02,1.3,1.3,0,0,0-1.186-.487H22.834Zm13.9-4.825v1.866H31.979v2.093h4.212v1.866H31.979v2.119h4.945V0H30.046V-9.811Zm12.29-.4V0H47.095V-4.679L43.9-.133h-.027L40.79-4.386V0H38.924V-10.211h.013l4.972,7.052L49-10.211Zm8.8.4V0H55.893V-9.811Zm5.505,0a4.025,4.025,0,0,1,2.786.886A3.088,3.088,0,0,1,67.1-6.505a4.015,4.015,0,0,1-.34,1.646A2.868,2.868,0,0,1,65.657-3.6a3.6,3.6,0,0,1-1.98.493H62.291V0H60.358V-9.811Zm.333,4.825a1.444,1.444,0,0,0,.88-.247,1.447,1.447,0,0,0,.48-.58,1.587,1.587,0,0,0,.147-.64,1.863,1.863,0,0,0-.307-1.006,1.3,1.3,0,0,0-1.186-.487H62.291v2.959ZM74.075-7.438a4.775,4.775,0,0,0-2.226-.706,1.683,1.683,0,0,0-.993.253.874.874,0,0,0-.353.76,1,1,0,0,0,.513.82,6.4,6.4,0,0,0,1.366.673,5.675,5.675,0,0,1,1.186.58,2.6,2.6,0,0,1,.82.9,2.906,2.906,0,0,1,.327,1.453A2.657,2.657,0,0,1,74.321-1.3,2.743,2.743,0,0,1,73.168-.273a4.013,4.013,0,0,1-1.813.38,6.048,6.048,0,0,1-1.746-.26A5.455,5.455,0,0,1,68-.946l.853-1.506a4.637,4.637,0,0,0,1.16.613,3.447,3.447,0,0,0,1.173.24,2.107,2.107,0,0,0,1.066-.26.9.9,0,0,0,.453-.846q0-.76-1.426-1.32a12.768,12.768,0,0,1-1.4-.64,2.879,2.879,0,0,1-.966-.88,2.427,2.427,0,0,1-.407-1.44,2.651,2.651,0,0,1,.833-2.039,3.384,3.384,0,0,1,2.219-.84,5.8,5.8,0,0,1,1.826.247,6.237,6.237,0,0,1,1.426.7ZM78.34-3.626a1.6,1.6,0,0,0,.28.893,2.155,2.155,0,0,0,.746.693,1.982,1.982,0,0,0,1,.267,2.132,2.132,0,0,0,1.053-.267,2.065,2.065,0,0,0,.753-.693,1.631,1.631,0,0,0,.273-.893V-9.811h1.906v6.225a3.49,3.49,0,0,1-.533,1.9,3.671,3.671,0,0,1-1.446,1.32,4.294,4.294,0,0,1-2.006.473,4.254,4.254,0,0,1-2-.473,3.634,3.634,0,0,1-1.433-1.32,3.523,3.523,0,0,1-.527-1.9V-9.811H78.34Zm18.449-6.585V0H94.856V-4.679l-3.2,4.546H91.63L88.551-4.386V0H86.685V-10.211H86.7L91.67-3.159l5.092-7.052Zm6.865.4h2.933a5.944,5.944,0,0,1,3.093.726,4.4,4.4,0,0,1,1.766,1.88A5.643,5.643,0,0,1,112-4.732a4.648,4.648,0,0,1-.667,2.493,4.479,4.479,0,0,1-1.793,1.66,5.322,5.322,0,0,1-2.473.58h-3.412Zm3.079,7.945a3.487,3.487,0,0,0,2.386-.773A2.806,2.806,0,0,0,110-4.865a3.193,3.193,0,0,0-.487-1.866,2.618,2.618,0,0,0-1.133-.96,3.206,3.206,0,0,0-1.22-.267h-1.573v6.092Zm6.6-3.026A4.883,4.883,0,0,1,114-7.385a5.087,5.087,0,0,1,1.826-1.846,4.8,4.8,0,0,1,2.5-.686,4.8,4.8,0,0,1,2.5.686,5.194,5.194,0,0,1,1.84,1.846,4.81,4.81,0,0,1,.686,2.493,4.788,4.788,0,0,1-.686,2.506,5.12,5.12,0,0,1-1.84,1.82,4.871,4.871,0,0,1-2.5.673,4.86,4.86,0,0,1-2.506-.673A5.031,5.031,0,0,1,114-2.386,4.86,4.86,0,0,1,113.332-4.892Zm2,0a3.144,3.144,0,0,0,.407,1.573,3.061,3.061,0,0,0,1.106,1.14,2.961,2.961,0,0,0,1.553.42,2.81,2.81,0,0,0,1.506-.42,2.972,2.972,0,0,0,1.066-1.133,3.261,3.261,0,0,0,.387-1.58,3.238,3.238,0,0,0-.4-1.6,3.043,3.043,0,0,0-1.086-1.14,2.868,2.868,0,0,0-1.526-.42,2.868,2.868,0,0,0-1.526.42,3.043,3.043,0,0,0-1.086,1.14A3.238,3.238,0,0,0,115.331-4.892Zm11.89-4.919v7.945h4.612V0h-6.545V-9.811Zm5.745,4.919a4.883,4.883,0,0,1,.673-2.493,5.087,5.087,0,0,1,1.826-1.846,4.8,4.8,0,0,1,2.5-.686,4.8,4.8,0,0,1,2.5.686,5.194,5.194,0,0,1,1.84,1.846,4.81,4.81,0,0,1,.686,2.493,4.788,4.788,0,0,1-.686,2.506,5.12,5.12,0,0,1-1.84,1.82,4.871,4.871,0,0,1-2.5.673,4.86,4.86,0,0,1-2.506-.673,5.031,5.031,0,0,1-1.82-1.82A4.86,4.86,0,0,1,132.967-4.892Zm2,0a3.144,3.144,0,0,0,.407,1.573,3.061,3.061,0,0,0,1.106,1.14,2.961,2.961,0,0,0,1.553.42,2.81,2.81,0,0,0,1.506-.42A2.972,2.972,0,0,0,140.6-3.313a3.261,3.261,0,0,0,.387-1.58,3.238,3.238,0,0,0-.4-1.6,3.043,3.043,0,0,0-1.086-1.14,2.868,2.868,0,0,0-1.526-.42,2.868,2.868,0,0,0-1.526.42,3.043,3.043,0,0,0-1.086,1.14A3.238,3.238,0,0,0,134.966-4.892ZM150.216,0,148.15-3.119h-1.293V0h-1.933V-9.811H147.9a4.146,4.146,0,0,1,2.833.886,3.059,3.059,0,0,1,1.006,2.419,3.884,3.884,0,0,1-.38,1.7,2.819,2.819,0,0,1-1.166,1.246L152.469,0Zm-3.359-4.985h1.373a1.366,1.366,0,0,0,1.146-.46,1.58,1.58,0,0,0,.36-.993,1.884,1.884,0,0,0-.307-1.02,1.3,1.3,0,0,0-1.186-.487h-1.386Zm16.782-2.453a4.775,4.775,0,0,0-2.226-.706,1.683,1.683,0,0,0-.993.253.874.874,0,0,0-.353.76,1,1,0,0,0,.513.82,6.405,6.405,0,0,0,1.366.673,5.675,5.675,0,0,1,1.186.58,2.6,2.6,0,0,1,.82.9,2.906,2.906,0,0,1,.327,1.453,2.656,2.656,0,0,1-.393,1.406,2.743,2.743,0,0,1-1.153,1.026,4.013,4.013,0,0,1-1.813.38,6.048,6.048,0,0,1-1.746-.26,5.455,5.455,0,0,1-1.613-.793l.853-1.506a4.637,4.637,0,0,0,1.16.613,3.447,3.447,0,0,0,1.173.24,2.107,2.107,0,0,0,1.066-.26.9.9,0,0,0,.453-.846q0-.76-1.426-1.32a12.769,12.769,0,0,1-1.4-.64,2.879,2.879,0,0,1-.966-.88,2.427,2.427,0,0,1-.407-1.44,2.651,2.651,0,0,1,.833-2.039,3.384,3.384,0,0,1,2.219-.84,5.8,5.8,0,0,1,1.826.247,6.238,6.238,0,0,1,1.426.7ZM168.1-9.811V0h-1.933V-9.811Zm8.478,0v1.866H174.2V0h-1.933V-7.945h-2.293V-9.811ZM187.633-1.92h-3.253l-.8,1.92h-1.906L186.1-10.2h.107L190.632,0h-2.239Zm-.64-1.626-.946-2.386-.986,2.386Zm15.17-6.665V0H200.23V-4.679l-3.2,4.546H197l-3.079-4.252V0h-1.866V-10.211h.013l4.972,7.052,5.092-7.052Zm9.224.4v1.866h-4.759v2.093h4.212v1.866h-4.212v2.119h4.945V0H204.7V-9.811Zm8.131,0v1.866h-2.386V0H215.2V-7.945h-2.293V-9.811Zm13.557,9a4.347,4.347,0,0,1-1.186.613,4.986,4.986,0,0,1-1.773.307A5.163,5.163,0,0,1,227.45-.56a4.51,4.51,0,0,1-1.733-1.793,5.178,5.178,0,0,1-.6-2.473,5.661,5.661,0,0,1,.6-2.639,4.427,4.427,0,0,1,1.68-1.806,4.758,4.758,0,0,1,2.493-.647,5.463,5.463,0,0,1,1.653.24,5.758,5.758,0,0,1,1.333.6l-.76,1.826a3.538,3.538,0,0,0-2.159-.8,2.572,2.572,0,0,0-1.4.413,2.992,2.992,0,0,0-1.04,1.126,3.261,3.261,0,0,0-.387,1.58,3.637,3.637,0,0,0,.36,1.66,2.673,2.673,0,0,0,1.026,1.113,2.973,2.973,0,0,0,1.56.4,3.4,3.4,0,0,0,1.293-.233,2.843,2.843,0,0,0,.906-.553Zm1.333-4.079a4.883,4.883,0,0,1,.673-2.493,5.087,5.087,0,0,1,1.826-1.846,4.8,4.8,0,0,1,2.5-.686,4.8,4.8,0,0,1,2.5.686,5.194,5.194,0,0,1,1.84,1.846,4.81,4.81,0,0,1,.686,2.493,4.788,4.788,0,0,1-.686,2.506,5.12,5.12,0,0,1-1.84,1.82,4.871,4.871,0,0,1-2.5.673A4.86,4.86,0,0,1,236.9-.567a5.031,5.031,0,0,1-1.82-1.82A4.86,4.86,0,0,1,234.408-4.892Zm2,0a3.144,3.144,0,0,0,.407,1.573,3.061,3.061,0,0,0,1.106,1.14,2.961,2.961,0,0,0,1.553.42,2.81,2.81,0,0,0,1.506-.42,2.972,2.972,0,0,0,1.066-1.133,3.261,3.261,0,0,0,.387-1.58,3.238,3.238,0,0,0-.4-1.6,3.043,3.043,0,0,0-1.086-1.14,2.868,2.868,0,0,0-1.526-.42,2.868,2.868,0,0,0-1.526.42,3.043,3.043,0,0,0-1.086,1.14A3.238,3.238,0,0,0,236.408-4.892Zm18.8-4.919V.4h-.053l-6.865-6.2.04,5.8h-1.96V-10.2h.08L253.3-3.906l-.04-5.905Zm7.771,2.373a4.775,4.775,0,0,0-2.226-.706,1.683,1.683,0,0,0-.993.253.874.874,0,0,0-.353.76,1,1,0,0,0,.513.82,6.4,6.4,0,0,0,1.366.673,5.676,5.676,0,0,1,1.186.58,2.6,2.6,0,0,1,.82.9,2.906,2.906,0,0,1,.327,1.453,2.657,2.657,0,0,1-.393,1.406,2.743,2.743,0,0,1-1.153,1.026,4.013,4.013,0,0,1-1.813.38,6.048,6.048,0,0,1-1.746-.26A5.455,5.455,0,0,1,256.9-.946l.853-1.506a4.636,4.636,0,0,0,1.16.613,3.447,3.447,0,0,0,1.173.24,2.107,2.107,0,0,0,1.066-.26.9.9,0,0,0,.453-.846q0-.76-1.426-1.32a12.767,12.767,0,0,1-1.4-.64,2.879,2.879,0,0,1-.966-.88,2.427,2.427,0,0,1-.407-1.44,2.651,2.651,0,0,1,.833-2.039,3.384,3.384,0,0,1,2.219-.84,5.8,5.8,0,0,1,1.826.247,6.237,6.237,0,0,1,1.426.7ZM272.2-9.811v1.866H267.44v2.093h4.212v1.866H267.44v2.119h4.945V0h-6.878V-9.811Zm9.544,9a4.347,4.347,0,0,1-1.186.613,4.986,4.986,0,0,1-1.773.307,5.163,5.163,0,0,1-2.666-.667,4.51,4.51,0,0,1-1.733-1.793,5.178,5.178,0,0,1-.6-2.473,5.661,5.661,0,0,1,.6-2.639,4.427,4.427,0,0,1,1.68-1.806,4.758,4.758,0,0,1,2.493-.647,5.463,5.463,0,0,1,1.653.24,5.757,5.757,0,0,1,1.333.6l-.76,1.826a3.538,3.538,0,0,0-2.159-.8,2.572,2.572,0,0,0-1.4.413,2.992,2.992,0,0,0-1.04,1.126,3.26,3.26,0,0,0-.387,1.58,3.637,3.637,0,0,0,.36,1.66,2.673,2.673,0,0,0,1.026,1.113,2.973,2.973,0,0,0,1.56.4,3.4,3.4,0,0,0,1.293-.233,2.843,2.843,0,0,0,.906-.553Zm7.878-9v1.866h-2.386V0H285.3V-7.945h-2.293V-9.811Zm8.558,0v1.866H293.42v2.093h4.212v1.866H293.42v2.119h4.945V0h-6.878V-9.811Zm8.131,0v1.866h-2.386V0h-1.933V-7.945H299.7V-9.811Zm3.6,6.185a1.6,1.6,0,0,0,.28.893,2.155,2.155,0,0,0,.746.693,1.982,1.982,0,0,0,1,.267,2.132,2.132,0,0,0,1.053-.267,2.065,2.065,0,0,0,.753-.693,1.631,1.631,0,0,0,.273-.893V-9.811h1.906v6.225a3.49,3.49,0,0,1-.533,1.9,3.671,3.671,0,0,1-1.446,1.32,4.294,4.294,0,0,1-2.006.473,4.254,4.254,0,0,1-2-.473,3.634,3.634,0,0,1-1.433-1.32,3.523,3.523,0,0,1-.527-1.9V-9.811h1.933Zm15.036-6.185v1.866h-4.759v2.093H324.4v1.866h-4.212v2.119h4.945V0h-6.878V-9.811ZM332.424,0l-2.066-3.119h-1.293V0h-1.933V-9.811H330.1a4.146,4.146,0,0,1,2.833.886,3.059,3.059,0,0,1,1.006,2.419,3.884,3.884,0,0,1-.38,1.7A2.819,2.819,0,0,1,332.4-3.559L334.676,0Zm-3.359-4.985h1.373a1.366,1.366,0,0,0,1.146-.46,1.58,1.58,0,0,0,.36-.993,1.884,1.884,0,0,0-.307-1.02,1.3,1.3,0,0,0-1.186-.487h-1.386Z"
              transform="translate(134.96 736.11)" fill="#369ccf"/>
    </g>
</svg>
