<svg xmlns="http://www.w3.org/2000/svg" width="612.28" height="858.9" viewBox="0 0 612.28 858.9">
  <g id="PRINT_3" transform="translate(-1298.62)">
    <g id="Group_16" data-name="Group 16">
      <rect id="Rectangle_1" data-name="Rectangle 1" width="612.28" height="858.9" transform="translate(1910.9 858.9) rotate(180)" fill="#fff"/>
      <path id="Path_1" data-name="Path 1" d="M1460.18,581.39c93.93,75.18,232.81,48.37,304.1-55.51,57.4-83.63,65.24-213.87,13.99-303.16-40.83-71.13-117.74-108.76-188.1-94.79-78.51,15.59-141.14,95.21-176.39,178.91-27.95,66.36-34.39,150.11-2.67,213.95a179.984,179.984,0,0,0,49.08,60.59Z" fill="#d8eefe"/>
      <ellipse id="Ellipse_1" data-name="Ellipse 1" cx="211.49" cy="9" rx="211.49" ry="9" transform="translate(1412.25 662.63)" fill="#e2e2e2"/>
      <g id="Group_12" data-name="Group 12">
        <path id="Path_2" data-name="Path 2" d="M1786.98,474.51c-20.23-7.48-34.42,7.67-44.31,31.54-10.32,24.9-20,43.79-50.38,37.31-30.82-6.58-33.98-11.33-81.15,7.81-67.64,14.26-66.86-28.95-108.68-21.81,0,0-1.01-108.53,25.46-221.79,16.66-71.28,54.2-109.07,73.08-113.13,16.28-3.5,68.94,33.11,83.77,52.21,15.1,19.45,39.8,54.04,51.88,96.72,12.81,45.27,50.34,131.14,50.34,131.14Z" fill="#369ccf"/>
        <path id="Path_3" data-name="Path 3" d="M1610.33,195.03s60.58,18.43,92.94,96.16c29.02,69.72,51.28,153.26,63.48,175.85,18.86,34.92,42.34,3.55,42.34,3.55s-27.56-34.58-53.7-98.32c-24.26-59.17-58.53-125.92-87.87-147.66-32.35-23.97-57.2-29.58-57.2-29.58Z" fill="#47b6ed"/>
        <g id="Group_2" data-name="Group 2">
          <path id="Path_4" data-name="Path 4" d="M1573.17,168.73c.83,13.79,7.42,35.35,10.42,38.01,0,0,4.02,2.89,18.64,1.31,15.2-1.65,18.11-7.72,18.11-7.72s16.64-24.61,11.43-46.02-8.36-29-19.71-32.47-24.7,4.39-24.7,4.39-14.94,30.1-14.19,42.51Z" fill="#252a42"/>
          <g id="Group_1" data-name="Group 1">
            <path id="Path_5" data-name="Path 5" d="M1636.42,231.22l.54-20.75-13.67-7.36a17.922,17.922,0,0,1-4.3-2.5c-5.26-5.55-5.3-28.23-5.3-28.23l-19.4-.54s-.06,21.28-6.41,28.64c-1.52,1.76-8.97,6.65-9.14,5.94l-7.38,9.9,1.88,15.58c21.05-1.28,42.12-1.26,63.2-.67Z" fill="#edbda6"/>
            <path id="Path_6" data-name="Path 6" d="M1604.85,197.29c1.39.28,2.79.52,4.19.75a.276.276,0,0,1,.09.01c2.53.23,5.05.47,7.58.6.32.02.64.02.96.04-3.96-7.58-3.99-26.32-3.99-26.32l-19.4-.54s-.04,12.83-3.03,22.01a113.79,113.79,0,0,0,13.6,3.45Z" fill="#f7a281"/>
          </g>
        </g>
        <g id="Group_9" data-name="Group 9">
          <path id="Path_7" data-name="Path 7" d="M1611.33,472.6c-3.17,21.34-3.17,39.57,0,67.03s5.07,60.92,3.8,80.25-7.92,29.93-6.18,39.57,18.56,11.7,23,2.43-5.41-27.55-4.14-48.28,11.41-68.76,12.05-85.99-6.97-37.34-5.07-55.03h-23.46Z" fill="#edbda6"/>
          <path id="Path_8" data-name="Path 8" d="M1609.02,649.22s.46,12.82,9.77,12.82c14.51,0,14.22-13.3,14.22-13.3s6.24,10.3-3.31,21.12c-4.98,5.65-10.57,4.44-13.55,3.83-2.76-.57-5.07-1.52-7.48-8.18-1.7-4.7-1.95-8.83.36-16.29Z" fill="#313858"/>
          <path id="Path_9" data-name="Path 9" d="M1572.15,488.85c-1.82,10.91-1.56,20.42.88,37.62,2.03,14.26,8.16,65.02,8.6,89.3.22,12.01-2.98,26.22-6.25,31.41-2.82,4.48-10.28,8.51-10.28,8.51s11.55,12.13,16.96,7.02,15.33-14.46,14.94-20.62c-1.41-22.14-.87-35.22,1.25-57.81,2.77-29.51,3.25-45.64,2.5-59.69-.3-5.68-2.07-29.76-5.15-37.32l-23.45,1.57Z" fill="#edbda6"/>
          <path id="Path_10" data-name="Path 10" d="M1542.3,672.12s-2.81-6.31,6.31-8.59a51.832,51.832,0,0,0,16.49-7.83s1.67.91,8.51,0S1597,642.1,1597,642.1s2.26-1.51,1.54,6.95-3.36,23.06-3.36,23.06h-5.62c-.98-3.34-6.44-4.73-9.19-2.6a13.436,13.436,0,0,1-5.85,2.6c-5.46,1.01-32.23,0-32.23,0Z" fill="#313858"/>
          <path id="Path_11" data-name="Path 11" d="M1627.78,213.56l-3.95-10.68-24.14,10.88-14.82-10.88-4.58,19.27-10.43,134.34,53.48,2.39Z" fill="#6eafcf"/>
          <g id="Group_3" data-name="Group 3">
            <path id="Path_12" data-name="Path 12" d="M1637.32,333.76a430.743,430.743,0,0,1-79.26,6.13c-1.47,6.41-3.29,13.34-5.52,21C1540.15,403.53,1557,495.1,1557,495.1c12.79,4.59,26.47,7.85,47.47,6.54q3.165-.2,6.55-.54c11.21-1.12,19-1.41,33.07-6.47,0,0,12.11-69.64,3.2-120.38-2.76-15.72-6.96-28.23-9.98-40.49Z" fill="#313858"/>
            <path id="Path_13" data-name="Path 13" d="M1589.5,451.86s.4-142.22-.88-189.61c-.84-31.2-3.45-60.63-3.45-60.63l-11.03,1.37-12.22,4.84c-1.55,4.68-10.34,49.9-9.07,58.51.88,6.06,9.56,55.35-1.97,94.54-7.2,24.45-9.43,59.35-5.99,87.39,12.73.77,31.97,4.09,44.63,3.58Z" fill="#fff"/>
            <path id="Path_14" data-name="Path 14" d="M1655.94,445.37c1.64-21.19,5.1-48.12-2.09-71.12-11.69-37.38-12.36-109.02-10.23-116.34,2.77-9.47,4.96-16.55,4.96-16.55s-2.3-26.78-3.83-31.46l-24.41-9.58-17.57,36.8-6.78,29.7,4.5,184.46c16.38-1.09,39.23-3.12,55.44-5.92Z" fill="#fff"/>
            <path id="Path_15" data-name="Path 15" d="M1616.04,351.35s18.18,21.11,29.8,16.74l.72-4.37a30.641,30.641,0,0,1-15.26-6.51c-7.24-5.87-9.38-10.45-9.38-10.45l-5.88,4.59Z" fill="#c0e7fa"/>
            <path id="Path_16" data-name="Path 16" d="M1582.26,351.35s-18.18,21.11-29.8,16.74l-.72-4.37a30.641,30.641,0,0,0,15.26-6.51c7.24-5.87,9.38-10.45,9.38-10.45l5.88,4.59Z" fill="#c0e7fa"/>
          </g>
          <path id="Path_17" data-name="Path 17" d="M1630.59,204.53l-3.49,20.24-8.11-1.74-.05,12.01c-15.61,6.65-22.95,31.78-22.95,31.78s5.54-30.53,10.43-39.83c12.94-24.58,18.04-25.27,18.04-25.27" fill="#c0e7fa"/>
          <g id="Group_8" data-name="Group 8">
            <g id="Group_7" data-name="Group 7">
              <path id="Path_18" data-name="Path 18" d="M1634.38,287.61c.39-19.36-.88-38.7-.27-50.86,1.36-27.08,6.86-29.67,6.86-29.67s9.61,4.37,15.82,31.28c1.81,7.86,7.17,25.11,6.8,49.82-.29,19.49-3.31,22.16-8.1,24.62-6.61,3.4-19.63,7.01-26.17,2.35C1632.27,302.21,1634.86,305.32,1634.38,287.61Z" fill="#fff"/>
              <path id="Path_19" data-name="Path 19" d="M1640.98,207.08s9.61,4.37,15.82,31.28c1.81,7.86,7.17,25.11,6.8,49.82-.29,19.49-3.31,22.16-8.1,24.62-6.61,3.4-19.63,7.01-26.17,2.35" fill="none" stroke="#c0e7fa" stroke-linecap="round" stroke-linejoin="round" stroke-width="2.97"/>
              <path id="Path_20" data-name="Path 20" d="M1565.79,287.61c-.38-19.36.9-38.7.29-50.86-1.35-27.08-4.18-28.91-4.18-28.91s-11.36,5.01-16.29,24.13c-1.98,7.71-8.04,32.06-9.04,56.2-.81,19.56,3.16,24.53,8.04,26.84,7.14,3.38,28.35.04,33.55-.98-3.04-12.91-12.87-8.73-12.38-26.43Z" fill="#fff"/>
              <path id="Path_21" data-name="Path 21" d="M1561.9,207.84s-11.36,5.01-16.29,24.13c-1.98,7.71-8.04,32.06-9.04,56.2-.81,19.56,3.16,24.53,8.04,26.84,7.14,3.38,28.35.04,33.55-.98" fill="none" stroke="#c0e7fa" stroke-linecap="round" stroke-linejoin="round" stroke-width="2.97"/>
              <path id="Path_22" data-name="Path 22" d="M1567.01,297.12c-2.06-20.74-1.04-23.36-.66-43.36" fill="none" stroke="#c0e7fa" stroke-linecap="round" stroke-linejoin="round" stroke-width="2.97"/>
              <path id="Path_23" data-name="Path 23" d="M1642.8,285.74q-2.685-25.59-3.27-49.49" fill="none" stroke="#c0e7fa" stroke-linecap="round" stroke-linejoin="round" stroke-width="2.97"/>
              <g id="Group_5" data-name="Group 5">
                <path id="Path_24" data-name="Path 24" d="M1620.31,307.98c7.69.71,6.82-15.22,6.82-15.22s-12.98-7.37-13.51-.76c-.53,6.69,6.69,15.98,6.69,15.98Z" fill="#808194"/>
                <g id="Group_4" data-name="Group 4">
                  <path id="Path_25" data-name="Path 25" d="M1612.85,284.31c3.87.02,11.19-5.46,17.38-1.4a58.9,58.9,0,0,1,10.29,8.57s-12.33-.21-18.99,3.3a77.162,77.162,0,0,0-13.35,9.54l4.67-20Z" fill="#edbda6"/>
                  <path id="Path_26" data-name="Path 26" d="M1614.9,282.57c-1.75,3.23,7.03,22.75,7.94,26.07,0,0-30.45,4.3-49.36,6.5-19.11,2.22-28.25-1.83-28.95-5.68-1.19-6.52-.02-29.74,12.33-24.51,7.58,3.21,19.49,4.6,30.66,2.03,11.11-2.56,27.39-4.41,27.39-4.41Z" fill="#fff"/>
                  <path id="Path_27" data-name="Path 27" d="M1622.84,308.64c-21,2.95-51.05,7.83-69.65,7.83" fill="none" stroke="#c0e7fa" stroke-linecap="round" stroke-linejoin="round" stroke-width="2.97"/>
                  <path id="Path_28" data-name="Path 28" d="M1587.51,286.98c11.11-2.56,27.39-4.41,27.39-4.41-1.75,3.23,7.03,22.75,7.94,26.07" fill="none" stroke="#c0e7fa" stroke-linecap="round" stroke-linejoin="round" stroke-width="2.97"/>
                </g>
              </g>
              <g id="Group_6" data-name="Group 6">
                <path id="Path_29" data-name="Path 29" d="M1590.37,282.57c-3.83-.46-12.77-6.4-19.3-3.14a56.5,56.5,0,0,0-11.03,7.2s15.26,2.34,21.5,6.66a80.079,80.079,0,0,1,12.26,11.17l-3.42-21.89Z" fill="#edbda6"/>
                <path id="Path_30" data-name="Path 30" d="M1590.05,282.51c-4.98,1.85-8.28,6.72-7.85,23.66a180.231,180.231,0,0,0,33.98,9.74c21.9,3.91,33.72.02,38.97-3.17,5.22-3.17,5.1-29.1-6.25-27.45-4,.58-21.09,7.13-33.05,3.65-11-3.2-25.8-6.42-25.8-6.42Z" fill="#fff"/>
              </g>
              <path id="Path_31" data-name="Path 31" d="M1650.5,278.12c-1.4-.97-3.06-.57-5.53-.46a1.406,1.406,0,0,0-.2.01c2.02-.54,4.55-1.4,3.99-2.48-.79-1.54-2.38-.99-5.8-.23s-6.82.21-9.5,1.83a85.118,85.118,0,0,1-13.15,5.46s13.66,4.77,17.06,5.01,4.23-1.9,4.23-1.9a28.4,28.4,0,0,1,4.18-.97c2.57-.42,3.62-1.41,2.8-2.06s-3.99-.89-3.99-.89a10.4,10.4,0,0,1,3.87-1.1c1.79-.02,3.45-1.23,2.05-2.2Z" fill="#edbda6"/>
              <path id="Path_32" data-name="Path 32" d="M1643,284.21c-5.04.91-9.3,1.66-12.87,2.26.02.14.04.29.07.43a19.1,19.1,0,0,1,.02,2,44.121,44.121,0,0,0,8.31-.79,33.57,33.57,0,0,0,4.57-1.38c1.61-.73,2.59-3.01-.09-2.53Z" fill="#edbda6"/>
            </g>
            <path id="Path_33" data-name="Path 33" d="M1578.51,291.5a79.683,79.683,0,0,0-31.69-5.03" fill="none" stroke="#c0e7fa" stroke-linecap="round" stroke-linejoin="round" stroke-width="2.97"/>
            <path id="Path_34" data-name="Path 34" d="M1655.77,312.66c-11.48,6.66-28.85,5.72-39.76,3.37-7.42-1.6-14.3-4.2-21.41-6.29a121.352,121.352,0,0,0-12.16-3.03s-1.79-14,2.86-20.32" fill="none" stroke="#c0e7fa" stroke-linecap="round" stroke-linejoin="round" stroke-width="2.97"/>
            <path id="Path_35" data-name="Path 35" d="M1590.37,282.57c7.17,1.21,28.8,10.15,41.94,7.23" fill="none" stroke="#c0e7fa" stroke-linecap="round" stroke-linejoin="round" stroke-width="2.97"/>
          </g>
        </g>
        <path id="Path_36" data-name="Path 36" d="M1625.55,165.19a38.777,38.777,0,0,1-1.74,8.87c-.69,2.05-1.46,3.5-2.18,5.27-1.43,3.55-9.41,11.63-15.04,14.35a10.424,10.424,0,0,1-5.98.2c-7.19-1.97-14.93-11.98-17.35-17.23-1.8-3.9-2.9-11.02-3.23-17.72s-.85-15.57-.56-20.75c.79-13.89,10.91-16.96,21.5-15.5,12.17,1.68,24.98,9.35,25.01,13.46.07,9.3.58,19.1-.43,29.06Z" fill="#edbda6"/>
        <g id="Group_10" data-name="Group 10">
          <path id="Path_37" data-name="Path 37" d="M1635.83,206.56s-13.88-5.56-15.49-6.23c3.9-7.05,6.94-20.22,4.72-34.95-1.58-10.52-12.23-16.56-23.53-22.01-5.4-2.61-9.23-5.06-11.58-7.68-.27-.3-.51-.6-.74-.9.17-1.16.32-2.15.49-2.93.89-4.09,2.8-12.12-.7-13.31a3.26,3.26,0,0,0-.45-.09,29.46,29.46,0,0,1,12.23-5.07c15.93-2.54,25.39,10.29,29.33,21.39,5.01,14.14,3.42,28.52,2.13,41.29-2.13,21.19,3.71,30.6,3.58,30.5Z" fill="#313858"/>
          <path id="Path_38" data-name="Path 38" d="M1589.71,131.85c-.17.78-.31,1.77-.49,2.93a63.339,63.339,0,0,1-6.26,20.76c-.23.45-.47.9-.71,1.35a9.858,9.858,0,0,0-.77,1.84c-2.95,9.24,2.65,28.53,6.17,41.27-5.26,2.16-10.62,2.86-16.51,4.18,3.06-8.83,2.87-16.39,1.9-24.72-3.7-31.81-4.87-39.11.11-49.9,3.3-7.17,10.91-11.36,14.82-11.17a2.9,2.9,0,0,1,.6.07,3.254,3.254,0,0,1,.45.09c3.5,1.19,1.58,9.22.7,13.31Z" fill="#313858"/>
        </g>
        <path id="Path_39" data-name="Path 39" d="M1587.89,199.28l-9.55,3.34-5.3,18.32,6.52-.89-4.39,13.36c8.76,8.12,13.32,33.8,13.32,33.8s1.12-21.62-.72-36.14c-3.39-26.79.12-31.78.12-31.78Z" fill="#c0e7fa"/>
        <g id="Group_11" data-name="Group 11">
          <path id="Path_40" data-name="Path 40" d="M1599.69,213.76s-9.77-7.99-10.95-16.51l-4.74,4.12s-.66,15.83,4.83,18.02C1596.49,222.44,1599.69,213.76,1599.69,213.76Z" fill="#5f97b3"/>
          <path id="Path_41" data-name="Path 41" d="M1599.69,213.76s13.78-5.13,19.4-16.51l4.74,4.12s-7.62,17.66-14.62,18.02C1599.31,219.9,1599.69,213.76,1599.69,213.76Z" fill="#5f97b3"/>
        </g>
      </g>
      <g id="Group_13" data-name="Group 13">
        <path id="Path_42" data-name="Path 42" d="M1809.65,605.2l-425.91,59.01,10.5-49.42-10.5-46.41,425.91-59.02-8.4,51.12Z" fill="#c6c9cf"/>
        <path id="Path_43" data-name="Path 43" d="M1809.65,597.68,1383.74,654.1l10.5-49.42-10.5-46.42,425.91-56.42-8.4,51.12Z" fill="#e85d66"/>
        <path id="Path_169" data-name="Path 169" d="M16.48-56H3.2V0H17.04C25.84,0,30.4-4.64,30.4-13.28v-4.56c0-5.92-1.84-10.08-6.56-11.92v-.16c3.92-1.84,5.68-5.44,5.68-11.2v-2C29.52-51.76,25.6-56,16.48-56Zm-.56,30.8c4,0,5.68,1.6,5.68,6.8v4.88C21.6-9.36,20-8,17.04-8H12V-25.2ZM16.24-48c3.12,0,4.48,1.76,4.48,5.76v3.12c0,4.48-2,5.92-5.28,5.92H12V-48Zm28.24,0h15.2v-8h-24V0h24V-8H44.48V-24.4H56.56v-8H44.48ZM64-42.56c0,6.4,2.32,11.04,9.68,17.52C79.44-20,81.2-16.96,81.2-12.88c0,4-1.76,5.44-4.56,5.44s-4.56-1.44-4.56-5.44v-4H63.76v3.44C63.76-4.48,68.24.64,76.88.64S90-4.48,90-13.44c0-6.4-2.32-11.04-9.68-17.52C74.56-36,72.8-39.04,72.8-43.12c0-4,1.6-5.52,4.4-5.52s4.4,1.52,4.4,5.52v2.32h8.32v-1.76c0-8.96-4.4-14.08-12.96-14.08S64-51.52,64-42.56ZM92.48-48h9.2V0h8.8V-48h9.2v-8H92.48ZM135.92,0h13.92c8.8,0,13.12-4.88,13.12-13.84V-42.16c0-8.96-4.32-13.84-13.12-13.84H135.92Zm13.76-48c2.8,0,4.48,1.44,4.48,5.44v29.12c0,4-1.68,5.44-4.48,5.44h-4.96V-48Zm26.96,4.88c0-4,1.76-5.52,4.56-5.52s4.56,1.52,4.56,5.52v30.24c0,4-1.76,5.52-4.56,5.52s-4.56-1.52-4.56-5.52Zm-8.8,29.68c0,8.96,4.72,14.08,13.36,14.08s13.36-5.12,13.36-14.08V-42.56c0-8.96-4.72-14.08-13.36-14.08s-13.36,5.12-13.36,14.08Zm49.6-7.44v8c0,4-1.76,5.44-4.56,5.44s-4.56-1.44-4.56-5.44V-43.12c0-4,1.76-5.52,4.56-5.52s4.56,1.52,4.56,5.52v6h8.32v-5.44c0-8.96-4.48-14.08-13.12-14.08s-13.12,5.12-13.12,14.08v29.12C199.52-4.48,204,.64,212.64.64s13.12-5.12,13.12-14.08v-7.44ZM228.56-48h9.2V0h8.8V-48h9.2v-8h-27.2Zm39.12,4.88c0-4,1.76-5.52,4.56-5.52s4.56,1.52,4.56,5.52v30.24c0,4-1.76,5.52-4.56,5.52s-4.56-1.52-4.56-5.52Zm-8.8,29.68c0,8.96,4.72,14.08,13.36,14.08S285.6-4.48,285.6-13.44V-42.56c0-8.96-4.72-14.08-13.36-14.08s-13.36,5.12-13.36,14.08ZM318.64,0c-.88-2.08-.96-4.08-.96-6.8v-8.64c0-5.84-1.44-10-5.84-11.84v-.16c3.92-1.84,5.76-5.52,5.76-11.28v-4.4c0-8.64-3.92-12.88-13.04-12.88H291.28V0h8.8V-22.8h3.04c4,0,5.76,1.92,5.76,7.12v8.8c0,4.56.32,5.44.8,6.88ZM304.32-48c3.12,0,4.48,1.76,4.48,5.76v5.52c0,4.48-2,5.92-5.28,5.92h-3.44V-48Z" transform="translate(1437.944 634.818) rotate(-8)" fill="#fff"/>
      </g>
      <g id="Group_14" data-name="Group 14">
        <path id="Path_44" data-name="Path 44" d="M1715.08,520.62l-236.77,33.25,6.78-31.91-6.78-29.97,236.77-33.25-5.42,33.01Z" fill="#c6c9cf"/>
        <path id="Path_45" data-name="Path 45" d="M1715.08,515.77l-236.77,31.57,6.78-31.91-6.78-29.97,236.77-31.57-5.42,33Z" fill="#e85d66"/>
        <path id="Path_168" data-name="Path 168" d="M15.9-39.2H6.888L.616,0H6.272L7.336-7.112H14.9L15.96,0h6.216Zm-4.872,6.944h.112l2.912,19.824H8.12ZM40.1,0h8.176L52.64-39.2H47.264L44.128-8.064h-.112L40.992-39.2H35.056L32.144-8.288h-.112L28.784-39.2H22.792L27.16,0h8.456L37.8-20.888h.112ZM68.544-39.2H59.528L53.256,0h5.656l1.064-7.112h7.56L68.6,0h6.216Zm-4.872,6.944h.112L66.7-12.432H60.76ZM96.824,0a11.544,11.544,0,0,1-.672-4.76v-6.048c0-4.088-1.008-7-4.088-8.288v-.112C94.808-20.5,96.1-23.072,96.1-27.1v-3.08c0-6.048-2.744-9.016-9.128-9.016h-9.3V0h6.16V-15.96H85.96c2.8,0,4.032,1.344,4.032,4.984v6.16c0,3.192.224,3.808.56,4.816ZM86.8-33.6c2.184,0,3.136,1.232,3.136,4.032V-25.7c0,3.136-1.4,4.144-3.7,4.144H83.832V-33.6ZM100.184,0h9.744c6.16,0,9.184-3.416,9.184-9.688V-29.512c0-6.272-3.024-9.688-9.184-9.688h-9.744Zm9.632-33.6c1.96,0,3.136,1.008,3.136,3.808V-9.408c0,2.8-1.176,3.808-3.136,3.808h-3.472v-28Z" transform="translate(1537.97 530.15) rotate(-8)" fill="#fff"/>
      </g>
      <g id="Group_15" data-name="Group 15">
        <g id="Group">
          <text id="Lorem_ipsum_dolor_sit_amet_consectetuer_adipiscing_elit_sed_diam_nonummy_nibh_euismod_" data-name="Lorem ipsum dolor sit amet, consectetuer adipiscing elit, sed diam nonummy nibh euismod " transform="translate(1402.47 757.39)" fill="#919295" font-size="10.44" font-family="JosefinSans-Light, Josefin Sans" font-weight="300"><tspan x="0" y="0">Lorem ipsum dolor sit amet, consectetuer adipiscing elit, sed diam nonummy nibh euismod </tspan></text>
          <text id="tincidunt_ut_laoreet_dolore_magna_aliquam_erat_volutpat._Ut_wisi_enim_ad_minim_veniam_quis_" data-name="tincidunt ut laoreet dolore magna aliquam erat volutpat. Ut wisi enim ad minim veniam, quis " transform="translate(1397.01 779.26)" fill="#919295" font-size="10.44" font-family="JosefinSans-Light, Josefin Sans" font-weight="300"><tspan x="0" y="0">tincidunt ut laoreet dolore magna aliquam erat volutpat. Ut wisi enim ad minim veniam, quis </tspan></text>
          <text id="nostrud_exerci_tation_ullamcorper_suscipit." data-name="nostrud exerci tation ullamcorper suscipit." transform="translate(1512.03 801.13)" fill="#919295" font-size="10.44" font-family="JosefinSans-Light, Josefin Sans" font-weight="300"><tspan x="0" y="0">nostrud exerci tation ullamcorper suscipit.</tspan></text>
        </g>
        <path id="Path_172" data-name="Path 172" d="M3.2-9.811v7.945H7.811V0H1.266V-9.811ZM8.944-4.892a4.883,4.883,0,0,1,.673-2.493,5.087,5.087,0,0,1,1.826-1.846,4.8,4.8,0,0,1,2.5-.686,4.8,4.8,0,0,1,2.5.686,5.194,5.194,0,0,1,1.84,1.846,4.81,4.81,0,0,1,.686,2.493,4.788,4.788,0,0,1-.686,2.506,5.12,5.12,0,0,1-1.84,1.82,4.871,4.871,0,0,1-2.5.673,4.86,4.86,0,0,1-2.506-.673,5.031,5.031,0,0,1-1.82-1.82A4.86,4.86,0,0,1,8.944-4.892Zm2,0a3.144,3.144,0,0,0,.407,1.573,3.061,3.061,0,0,0,1.106,1.14,2.961,2.961,0,0,0,1.553.42,2.81,2.81,0,0,0,1.506-.42,2.972,2.972,0,0,0,1.066-1.133,3.261,3.261,0,0,0,.387-1.58,3.238,3.238,0,0,0-.4-1.6,3.043,3.043,0,0,0-1.086-1.14,2.868,2.868,0,0,0-1.526-.42,2.868,2.868,0,0,0-1.526.42,3.043,3.043,0,0,0-1.086,1.14A3.238,3.238,0,0,0,10.944-4.892ZM26.193,0,24.127-3.119H22.834V0H20.9V-9.811h2.973a4.146,4.146,0,0,1,2.833.886,3.059,3.059,0,0,1,1.006,2.419,3.884,3.884,0,0,1-.38,1.7,2.819,2.819,0,0,1-1.166,1.246L28.446,0ZM22.834-4.985h1.373a1.366,1.366,0,0,0,1.146-.46,1.58,1.58,0,0,0,.36-.993,1.884,1.884,0,0,0-.307-1.02,1.3,1.3,0,0,0-1.186-.487H22.834Zm13.9-4.825v1.866H31.979v2.093h4.212v1.866H31.979v2.119h4.945V0H30.046V-9.811Zm12.29-.4V0H47.095V-4.679L43.9-.133h-.027L40.79-4.386V0H38.924V-10.211h.013l4.972,7.052L49-10.211Zm8.8.4V0H55.893V-9.811Zm5.505,0a4.025,4.025,0,0,1,2.786.886A3.088,3.088,0,0,1,67.1-6.505a4.015,4.015,0,0,1-.34,1.646A2.868,2.868,0,0,1,65.657-3.6a3.6,3.6,0,0,1-1.98.493H62.291V0H60.358V-9.811Zm.333,4.825a1.444,1.444,0,0,0,.88-.247,1.447,1.447,0,0,0,.48-.58,1.587,1.587,0,0,0,.147-.64,1.863,1.863,0,0,0-.307-1.006,1.3,1.3,0,0,0-1.186-.487H62.291v2.959ZM74.075-7.438a4.775,4.775,0,0,0-2.226-.706,1.683,1.683,0,0,0-.993.253.874.874,0,0,0-.353.76,1,1,0,0,0,.513.82,6.4,6.4,0,0,0,1.366.673,5.675,5.675,0,0,1,1.186.58,2.6,2.6,0,0,1,.82.9,2.906,2.906,0,0,1,.327,1.453A2.657,2.657,0,0,1,74.321-1.3,2.743,2.743,0,0,1,73.168-.273a4.013,4.013,0,0,1-1.813.38,6.048,6.048,0,0,1-1.746-.26A5.455,5.455,0,0,1,68-.946l.853-1.506a4.637,4.637,0,0,0,1.16.613,3.447,3.447,0,0,0,1.173.24,2.107,2.107,0,0,0,1.066-.26.9.9,0,0,0,.453-.846q0-.76-1.426-1.32a12.768,12.768,0,0,1-1.4-.64,2.879,2.879,0,0,1-.966-.88,2.427,2.427,0,0,1-.407-1.44,2.651,2.651,0,0,1,.833-2.039,3.384,3.384,0,0,1,2.219-.84,5.8,5.8,0,0,1,1.826.247,6.237,6.237,0,0,1,1.426.7ZM78.34-3.626a1.6,1.6,0,0,0,.28.893,2.155,2.155,0,0,0,.746.693,1.982,1.982,0,0,0,1,.267,2.132,2.132,0,0,0,1.053-.267,2.065,2.065,0,0,0,.753-.693,1.631,1.631,0,0,0,.273-.893V-9.811h1.906v6.225a3.49,3.49,0,0,1-.533,1.9,3.671,3.671,0,0,1-1.446,1.32,4.294,4.294,0,0,1-2.006.473,4.254,4.254,0,0,1-2-.473,3.634,3.634,0,0,1-1.433-1.32,3.523,3.523,0,0,1-.527-1.9V-9.811H78.34Zm18.449-6.585V0H94.856V-4.679l-3.2,4.546H91.63L88.551-4.386V0H86.685V-10.211H86.7L91.67-3.159l5.092-7.052Zm6.865.4h2.933a5.944,5.944,0,0,1,3.093.726,4.4,4.4,0,0,1,1.766,1.88A5.643,5.643,0,0,1,112-4.732a4.648,4.648,0,0,1-.667,2.493,4.479,4.479,0,0,1-1.793,1.66,5.322,5.322,0,0,1-2.473.58h-3.412Zm3.079,7.945a3.487,3.487,0,0,0,2.386-.773A2.806,2.806,0,0,0,110-4.865a3.193,3.193,0,0,0-.487-1.866,2.618,2.618,0,0,0-1.133-.96,3.206,3.206,0,0,0-1.22-.267h-1.573v6.092Zm6.6-3.026A4.883,4.883,0,0,1,114-7.385a5.087,5.087,0,0,1,1.826-1.846,4.8,4.8,0,0,1,2.5-.686,4.8,4.8,0,0,1,2.5.686,5.194,5.194,0,0,1,1.84,1.846,4.81,4.81,0,0,1,.686,2.493,4.788,4.788,0,0,1-.686,2.506,5.12,5.12,0,0,1-1.84,1.82,4.871,4.871,0,0,1-2.5.673,4.86,4.86,0,0,1-2.506-.673A5.031,5.031,0,0,1,114-2.386,4.86,4.86,0,0,1,113.332-4.892Zm2,0a3.144,3.144,0,0,0,.407,1.573,3.061,3.061,0,0,0,1.106,1.14,2.961,2.961,0,0,0,1.553.42,2.81,2.81,0,0,0,1.506-.42,2.972,2.972,0,0,0,1.066-1.133,3.261,3.261,0,0,0,.387-1.58,3.238,3.238,0,0,0-.4-1.6,3.043,3.043,0,0,0-1.086-1.14,2.868,2.868,0,0,0-1.526-.42,2.868,2.868,0,0,0-1.526.42,3.043,3.043,0,0,0-1.086,1.14A3.238,3.238,0,0,0,115.331-4.892Zm11.89-4.919v7.945h4.612V0h-6.545V-9.811Zm5.745,4.919a4.883,4.883,0,0,1,.673-2.493,5.087,5.087,0,0,1,1.826-1.846,4.8,4.8,0,0,1,2.5-.686,4.8,4.8,0,0,1,2.5.686,5.194,5.194,0,0,1,1.84,1.846,4.81,4.81,0,0,1,.686,2.493,4.788,4.788,0,0,1-.686,2.506,5.12,5.12,0,0,1-1.84,1.82,4.871,4.871,0,0,1-2.5.673,4.86,4.86,0,0,1-2.506-.673,5.031,5.031,0,0,1-1.82-1.82A4.86,4.86,0,0,1,132.967-4.892Zm2,0a3.144,3.144,0,0,0,.407,1.573,3.061,3.061,0,0,0,1.106,1.14,2.961,2.961,0,0,0,1.553.42,2.81,2.81,0,0,0,1.506-.42A2.972,2.972,0,0,0,140.6-3.313a3.261,3.261,0,0,0,.387-1.58,3.238,3.238,0,0,0-.4-1.6,3.043,3.043,0,0,0-1.086-1.14,2.868,2.868,0,0,0-1.526-.42,2.868,2.868,0,0,0-1.526.42,3.043,3.043,0,0,0-1.086,1.14A3.238,3.238,0,0,0,134.966-4.892ZM150.216,0,148.15-3.119h-1.293V0h-1.933V-9.811H147.9a4.146,4.146,0,0,1,2.833.886,3.059,3.059,0,0,1,1.006,2.419,3.884,3.884,0,0,1-.38,1.7,2.819,2.819,0,0,1-1.166,1.246L152.469,0Zm-3.359-4.985h1.373a1.366,1.366,0,0,0,1.146-.46,1.58,1.58,0,0,0,.36-.993,1.884,1.884,0,0,0-.307-1.02,1.3,1.3,0,0,0-1.186-.487h-1.386Zm16.782-2.453a4.775,4.775,0,0,0-2.226-.706,1.683,1.683,0,0,0-.993.253.874.874,0,0,0-.353.76,1,1,0,0,0,.513.82,6.405,6.405,0,0,0,1.366.673,5.675,5.675,0,0,1,1.186.58,2.6,2.6,0,0,1,.82.9,2.906,2.906,0,0,1,.327,1.453,2.656,2.656,0,0,1-.393,1.406,2.743,2.743,0,0,1-1.153,1.026,4.013,4.013,0,0,1-1.813.38,6.048,6.048,0,0,1-1.746-.26,5.455,5.455,0,0,1-1.613-.793l.853-1.506a4.637,4.637,0,0,0,1.16.613,3.447,3.447,0,0,0,1.173.24,2.107,2.107,0,0,0,1.066-.26.9.9,0,0,0,.453-.846q0-.76-1.426-1.32a12.769,12.769,0,0,1-1.4-.64,2.879,2.879,0,0,1-.966-.88,2.427,2.427,0,0,1-.407-1.44,2.651,2.651,0,0,1,.833-2.039,3.384,3.384,0,0,1,2.219-.84,5.8,5.8,0,0,1,1.826.247,6.238,6.238,0,0,1,1.426.7ZM168.1-9.811V0h-1.933V-9.811Zm8.478,0v1.866H174.2V0h-1.933V-7.945h-2.293V-9.811ZM187.633-1.92h-3.253l-.8,1.92h-1.906L186.1-10.2h.107L190.632,0h-2.239Zm-.64-1.626-.946-2.386-.986,2.386Zm15.17-6.665V0H200.23V-4.679l-3.2,4.546H197l-3.079-4.252V0h-1.866V-10.211h.013l4.972,7.052,5.092-7.052Zm9.224.4v1.866h-4.759v2.093h4.212v1.866h-4.212v2.119h4.945V0H204.7V-9.811Zm8.131,0v1.866h-2.386V0H215.2V-7.945h-2.293V-9.811Zm13.557,9a4.347,4.347,0,0,1-1.186.613,4.986,4.986,0,0,1-1.773.307A5.163,5.163,0,0,1,227.45-.56a4.51,4.51,0,0,1-1.733-1.793,5.178,5.178,0,0,1-.6-2.473,5.661,5.661,0,0,1,.6-2.639,4.427,4.427,0,0,1,1.68-1.806,4.758,4.758,0,0,1,2.493-.647,5.463,5.463,0,0,1,1.653.24,5.758,5.758,0,0,1,1.333.6l-.76,1.826a3.538,3.538,0,0,0-2.159-.8,2.572,2.572,0,0,0-1.4.413,2.992,2.992,0,0,0-1.04,1.126,3.261,3.261,0,0,0-.387,1.58,3.637,3.637,0,0,0,.36,1.66,2.673,2.673,0,0,0,1.026,1.113,2.973,2.973,0,0,0,1.56.4,3.4,3.4,0,0,0,1.293-.233,2.843,2.843,0,0,0,.906-.553Zm1.333-4.079a4.883,4.883,0,0,1,.673-2.493,5.087,5.087,0,0,1,1.826-1.846,4.8,4.8,0,0,1,2.5-.686,4.8,4.8,0,0,1,2.5.686,5.194,5.194,0,0,1,1.84,1.846,4.81,4.81,0,0,1,.686,2.493,4.788,4.788,0,0,1-.686,2.506,5.12,5.12,0,0,1-1.84,1.82,4.871,4.871,0,0,1-2.5.673A4.86,4.86,0,0,1,236.9-.567a5.031,5.031,0,0,1-1.82-1.82A4.86,4.86,0,0,1,234.408-4.892Zm2,0a3.144,3.144,0,0,0,.407,1.573,3.061,3.061,0,0,0,1.106,1.14,2.961,2.961,0,0,0,1.553.42,2.81,2.81,0,0,0,1.506-.42,2.972,2.972,0,0,0,1.066-1.133,3.261,3.261,0,0,0,.387-1.58,3.238,3.238,0,0,0-.4-1.6,3.043,3.043,0,0,0-1.086-1.14,2.868,2.868,0,0,0-1.526-.42,2.868,2.868,0,0,0-1.526.42,3.043,3.043,0,0,0-1.086,1.14A3.238,3.238,0,0,0,236.408-4.892Zm18.8-4.919V.4h-.053l-6.865-6.2.04,5.8h-1.96V-10.2h.08L253.3-3.906l-.04-5.905Zm7.771,2.373a4.775,4.775,0,0,0-2.226-.706,1.683,1.683,0,0,0-.993.253.874.874,0,0,0-.353.76,1,1,0,0,0,.513.82,6.4,6.4,0,0,0,1.366.673,5.676,5.676,0,0,1,1.186.58,2.6,2.6,0,0,1,.82.9,2.906,2.906,0,0,1,.327,1.453,2.657,2.657,0,0,1-.393,1.406,2.743,2.743,0,0,1-1.153,1.026,4.013,4.013,0,0,1-1.813.38,6.048,6.048,0,0,1-1.746-.26A5.455,5.455,0,0,1,256.9-.946l.853-1.506a4.636,4.636,0,0,0,1.16.613,3.447,3.447,0,0,0,1.173.24,2.107,2.107,0,0,0,1.066-.26.9.9,0,0,0,.453-.846q0-.76-1.426-1.32a12.767,12.767,0,0,1-1.4-.64,2.879,2.879,0,0,1-.966-.88,2.427,2.427,0,0,1-.407-1.44,2.651,2.651,0,0,1,.833-2.039,3.384,3.384,0,0,1,2.219-.84,5.8,5.8,0,0,1,1.826.247,6.237,6.237,0,0,1,1.426.7ZM272.2-9.811v1.866H267.44v2.093h4.212v1.866H267.44v2.119h4.945V0h-6.878V-9.811Zm9.544,9a4.347,4.347,0,0,1-1.186.613,4.986,4.986,0,0,1-1.773.307,5.163,5.163,0,0,1-2.666-.667,4.51,4.51,0,0,1-1.733-1.793,5.178,5.178,0,0,1-.6-2.473,5.661,5.661,0,0,1,.6-2.639,4.427,4.427,0,0,1,1.68-1.806,4.758,4.758,0,0,1,2.493-.647,5.463,5.463,0,0,1,1.653.24,5.757,5.757,0,0,1,1.333.6l-.76,1.826a3.538,3.538,0,0,0-2.159-.8,2.572,2.572,0,0,0-1.4.413,2.992,2.992,0,0,0-1.04,1.126,3.26,3.26,0,0,0-.387,1.58,3.637,3.637,0,0,0,.36,1.66,2.673,2.673,0,0,0,1.026,1.113,2.973,2.973,0,0,0,1.56.4,3.4,3.4,0,0,0,1.293-.233,2.843,2.843,0,0,0,.906-.553Zm7.878-9v1.866h-2.386V0H285.3V-7.945h-2.293V-9.811Zm8.558,0v1.866H293.42v2.093h4.212v1.866H293.42v2.119h4.945V0h-6.878V-9.811Zm8.131,0v1.866h-2.386V0h-1.933V-7.945H299.7V-9.811Zm3.6,6.185a1.6,1.6,0,0,0,.28.893,2.155,2.155,0,0,0,.746.693,1.982,1.982,0,0,0,1,.267,2.132,2.132,0,0,0,1.053-.267,2.065,2.065,0,0,0,.753-.693,1.631,1.631,0,0,0,.273-.893V-9.811h1.906v6.225a3.49,3.49,0,0,1-.533,1.9,3.671,3.671,0,0,1-1.446,1.32,4.294,4.294,0,0,1-2.006.473,4.254,4.254,0,0,1-2-.473,3.634,3.634,0,0,1-1.433-1.32,3.523,3.523,0,0,1-.527-1.9V-9.811h1.933Zm15.036-6.185v1.866h-4.759v2.093H324.4v1.866h-4.212v2.119h4.945V0h-6.878V-9.811ZM332.424,0l-2.066-3.119h-1.293V0h-1.933V-9.811H330.1a4.146,4.146,0,0,1,2.833.886,3.059,3.059,0,0,1,1.006,2.419,3.884,3.884,0,0,1-.38,1.7A2.819,2.819,0,0,1,332.4-3.559L334.676,0Zm-3.359-4.985h1.373a1.366,1.366,0,0,0,1.146-.46,1.58,1.58,0,0,0,.36-.993,1.884,1.884,0,0,0-.307-1.02,1.3,1.3,0,0,0-1.186-.487h-1.386Z" transform="translate(1436.23 736.11)" fill="#e85d66"/>
      </g>
    </g>
  </g>
</svg>
