<svg xmlns="http://www.w3.org/2000/svg" width="612.28" height="858.9" viewBox="0 0 612.28 858.9">
    <g id="PRINT_2" transform="translate(-651.68)">
        <g id="Group_30" data-name="Group 30">
            <rect id="Rectangle_2" data-name="Rectangle 2" width="612.28" height="858.9"
                  transform="translate(1263.96 858.9) rotate(180)" fill="#fff"/>
            <rect id="Rectangle_3" data-name="Rectangle 3" width="612.28" height="858.9"
                  transform="translate(1263.96 858.9) rotate(180)" fill="#fff"/>
            <path id="Path_46" data-name="Path 46"
                  d="M787.38,665.25c67.99-27.97,140.23-41.34,216.27-39.46,40.05.99,77.42,8.54,113.34,19.87a259.838,259.838,0,0,0,38.61-47.6c60.32-95.51,60.11-238.16-5.41-331.75-52.2-74.56-143.66-109.89-223.89-89.41-89.53,22.85-156.17,114.36-190.92,208.29-27.55,74.48-29.03,166.31,12.13,233.59a195.632,195.632,0,0,0,39.85,46.48Z"
                  fill="#d8eefe"/>
            <g id="Group_28" data-name="Group 28">
                <g id="Group_21" data-name="Group 21">
                    <path id="Path_47" data-name="Path 47"
                          d="M1038.23,228.82c-1.37-.25-2.72-.56-4.08-.85-.43-15.86,14.31-14.47,5.91-33.55-8.8-19.97-9.63-50.44-9.63-50.44l-12.49-13.55c12.04-11.28,28.7-4.9,39.94,2.18,21.48,13.55,13.49,48.78,12.3,57.79s6.68,24.93,6.72,35.65a45.994,45.994,0,0,1-.42,6.7c-9.38,2.92-32.44-2.86-38.24-3.94Z"
                          fill="#313858"/>
                    <path id="Path_48" data-name="Path 48"
                          d="M1040.49,235.05c-18.32-3.52-40.96,11.23-46.9-8.62-2.61-8.73,1.54-24.94,2.43-33.21,1.79-16.65-5.96-34.2,2.64-49.75s19.32-13.62,19.32-13.62l26.82,8.53a308.35,308.35,0,0,1-3.95,50.84c-2.92,18.35-1.64,35.77-.37,45.84Z"
                          fill="#313858"/>
                    <path id="Path_49" data-name="Path 49"
                          d="M1030.06,186.56s.74,21.76-4.42,31.67c-3.56,6.84-16.46,9.06-16.46,9.06a71.872,71.872,0,0,0,10,38.98c11.64,19.55,51.15,28.89,51.15,28.89a174.57,174.57,0,0,0,13.9-32.55c5.17-17.33,2.78-29.23,2.78-29.23s-18.53-6.52-23.59-8.78c-12.3-5.49-9.63-25.39-9.63-25.39l-23.73-12.64Z"
                          fill="#fec4ad"/>
                    <path id="Path_50" data-name="Path 50"
                          d="M1028.91,206.72c8.07,2.32,16.34,3.16,24.84,1.19a41.868,41.868,0,0,1,.04-8.71l-23.73-12.64A125.139,125.139,0,0,1,1028.91,206.72Z"
                          fill="#f7a281"/>
                    <path id="Path_51" data-name="Path 51"
                          d="M1059.74,140.97c1.05,5.5,5.7,21.64,6.37,32.04s-.18,27.59-6.97,32.48-23.41-1.68-33.62-10.93c-7.61-6.88-9.14-13.79-11.13-19.86s-.35-10.2,1.55-21.88,9.18-16.54,17.7-18.33,26.11,6.48,26.11,6.48Z"
                          fill="#fec4ad"/>
                    <path id="Path_52" data-name="Path 52"
                          d="M1018.55,132.86c5.75.39,9.82,14.71,20.03,20.13s26.97,2.79,26.97,2.79l-4.19-16.57s-8.03-10.58-17.47-9.5-25.34,3.15-25.34,3.15Z"
                          fill="#313858"/>
                    <path id="Path_53" data-name="Path 53"
                          d="M1019.6,223.35c3.6,1.83,2.68,16.12,2.66,27.91,0,0-6.89-13.53-15.35-20.47-5.61-4.6,2.79-22.36,2.79-22.36l9.91,14.91Z"
                          fill="#313858"/>
                    <path id="Path_54" data-name="Path 54"
                          d="M1096.36,337.04,990.49,311.48V232.83l32.1-11.55,49.58,4.35,10.06,7.9Z" fill="#fec4ad"/>
                    <path id="Path_55" data-name="Path 55"
                          d="M1012.84,236.32l7.35-15.52,22.64,6.19,20.21-6.19,6.04,2.84,6.04,23.94-1.43,201.05-57.26-14.54Z"
                          fill="#6eafcf"/>
                    <path id="Path_56" data-name="Path 56"
                          d="M1093.68,413.36c1.42,5.12,3,10.49,4.78,16.19,16.6,53.12-2.69,163.43-2.69,163.43-18.85,6.31-84.72,11.17-103.57,4.87,0,0-10.02-56.52-9.78-136.04.05-16.51,3.31-32.01,6.8-47.31,0,0,9.47,9.6,59.14,9.6,31.87,0,45.32-10.72,45.32-10.72Z"
                          fill="#313858"/>
                    <path id="Path_57" data-name="Path 57"
                          d="M1049.68,224.73s3.36-1.42,7.27-8.71l6.08,4.78-7.29,21.25-6.07-17.32Z" fill="#5f97b3"/>
                    <path id="Path_58" data-name="Path 58"
                          d="M1049.68,224.73s-16.99-1.42-22.6-8.71l-6.89,4.78,19.66,20.85,9.83-16.91Z" fill="#5f97b3"/>
                    <path id="Path_59" data-name="Path 59"
                          d="M1056.37,533.75l4.34-229.76,7.95-80.71,18.9,7.85c1.91,5.83,7.42,24.97,11.23,37.51,1.87,6.08,4.32,23.26,2.76,33.99-1.09,7.55-1.96,69.68,6.37,117.78,5.42,31.28,7.69,73.94,3.44,108.87-15.69.96-39.4,5.09-55.01,4.47Z"
                          fill="#fff"/>
                    <path id="Path_60" data-name="Path 60"
                          d="M1098.79,268.65c-.14,15.1,1.13,36.19,1.5,62.47.43,30.12,2.63,47.44,2.63,47.44" fill="none"
                          stroke="#c0e7fa" stroke-linecap="round" stroke-linejoin="round" stroke-width="2.97"/>
                    <path id="Path_61" data-name="Path 61"
                          d="M974.47,525.67c-2.02-26.4-2.56-59.03,2.58-88.6,7.73-44.52,12.03-117.94,11.56-127.41-.98-19.49-10.46-39.98-10.46-39.98s8.22-31.54,10.11-37.37l23.76-8.6,7.41-1.71,28.93,81.23-5.55,229.81c-20.18-1.36-48.35-3.89-68.33-7.37Z"
                          fill="#fff"/>
                    <path id="Path_62" data-name="Path 62"
                          d="M1019.58,221.29l-7.78,2.34.81,24.75,9.97-.73-3.41,18.62c17.55,10.53,29.17,36.95,29.17,36.95s-6.18-30.91-10.48-42.83c-11.38-31.51-18.29-39.1-18.29-39.1Z"
                          fill="#fff"/>
                    <path id="Path_63" data-name="Path 63"
                          d="M1068.19,222.77l8.55,3.12,4.67,18.66-7.86-1.08,5.29,16.11c-10.56,9.79-17.98,45.2-17.98,45.2s.56-30.5,2.78-48.02c4.09-32.31,4.55-33.98,4.55-33.98Z"
                          fill="#fff"/>
                    <path id="Path_64" data-name="Path 64"
                          d="M1019.58,221.29l-7.78,2.34.81,24.75,9.97-.73-3.41,14.61c17.55,10.53,29.17,40.97,29.17,40.97s-6.18-30.91-10.48-42.83c-11.38-31.51-18.29-39.1-18.29-39.1Z"
                          fill="#c0e7fa"/>
                    <path id="Path_65" data-name="Path 65"
                          d="M1068.19,222.77l8.55,3.12,4.67,18.66-7.86-1.08,5.29,12.09c-10.56,9.79-17.98,49.21-17.98,49.21s.56-30.5,2.78-48.02c4.09-32.31,4.55-33.98,4.55-33.98Z"
                          fill="#c0e7fa"/>
                    <path id="Path_66" data-name="Path 66"
                          d="M1028.85,162.13c-7.42,7.38-8.73,8.94-3.14,26.14,3.52,10.82,3.21,18.15-5.45,27.27-9.72-2.09-9.34.42-18.75-2.74,2.71-5.44,9.27-19.76,8.44-29.26-1.04-11.91-3.57-30.08,5.68-41.19s18.88-8.16,18.88-8.16c-2.98.26-.07,22.38-5.66,27.93Z"
                          fill="#313858"/>
                    <path id="Path_67" data-name="Path 67"
                          d="M1027.01,172.14s-5.36-7.32-8.89-5.97-3.76,8.23-1.07,13.71,12.66,8.14,12.66,8.14l-2.69-15.88Z"
                          fill="#fec4ad"/>
                    <g id="Group_20" data-name="Group 20">
                        <path id="Path_68" data-name="Path 68"
                              d="M1003.41,345.27c-2.25-26.69-2.35-53.62-4.24-70.5-4.23-37.82-11.66-41.2-11.66-41.2S971.9,240,966.27,278.34c-1.64,11.19-3.76,36.17-.9,70.76,2.24,27.12,6.46,30.46,12.98,33.29,8.93,3.89,26.03,7.23,33.97.07-4.91-17.36-7.95-12.8-8.92-37.19Z"
                              fill="#fff"/>
                        <path id="Path_69" data-name="Path 69"
                              d="M987.51,233.57s-15.86,8.06-21.49,46.38c-1.64,11.19-3.51,34.56-.65,69.15,2.24,27.12,6.46,30.46,12.98,33.29,8.93,3.89,26.03,7.23,33.97.07"
                              fill="none" stroke="#c0e7fa" stroke-linecap="round" stroke-linejoin="round"
                              stroke-width="2.97"/>
                        <path id="Path_70" data-name="Path 70"
                              d="M1088.96,339.4c-1.01-25.46-4-50.88-4.21-67.02-.47-36.09,2.82-41.24,2.82-41.24s13.81,8.74,21,33.73c2.88,10.01,11.65,41.38,14.51,72.59,2.3,25.13-1.91,31.94-7.37,35.44-8.02,5.14-33.18,3.15-39.44,2.39,2.63-17.25,14.6-12.79,12.68-35.88Z"
                              fill="#fff"/>
                        <path id="Path_71" data-name="Path 71"
                              d="M1087.57,231.14s13.81,8.74,21,33.73c2.88,10.01,11.65,41.38,14.51,72.59,2.3,25.13-1.91,31.94-7.37,35.44-8.02,5.14-52.64-.6-58.82-1.35"
                              fill="none" stroke="#c0e7fa" stroke-linecap="round" stroke-linejoin="round"
                              stroke-width="2.97"/>
                        <path id="Path_72" data-name="Path 72" d="M1087.97,351.28c.89-27.86-.53-31.27-2.53-58.06"
                              fill="none" stroke="#c0e7fa" stroke-linecap="round" stroke-linejoin="round"
                              stroke-width="2.97"/>
                        <path id="Path_73" data-name="Path 73" d="M992.38,343.54q1.14-35.715-.29-69.11" fill="none"
                              stroke="#c0e7fa" stroke-linecap="round" stroke-linejoin="round" stroke-width="2.97"/>
                        <g id="Group_18" data-name="Group 18">
                            <path id="Path_74" data-name="Path 74"
                                  d="M1023.14,371.63c-9.69,1.85-9.98-20.04-9.98-20.04s15.82-11.39,17.05-2.44c1.24,9.05-7.06,22.48-7.06,22.48Z"
                                  fill="#808194"/>
                            <g id="Group_17" data-name="Group 17">
                                <path id="Path_75" data-name="Path 75"
                                      d="M1030.52,338.6c-4.88.4-14.65-6.39-22.19-.21a79.31,79.31,0,0,0-12.47,12.85s15.81-1.58,24.6,2.52,17.62,11.53,17.62,11.53l-7.55-26.7Z"
                                      fill="#edbda6"/>
                                <path id="Path_76" data-name="Path 76"
                                      d="M1027.78,336.43c2.48,4.23-1.12,21.23-1.99,25.87,0,0,22.95,9.31,46.4,10.25,29.27,1.19,41.43-1.6,46.81-7.17,5.32-5.51-5.53-39.32-19.79-31.27-8.84,4.99-23.12,8-36.96,5.63-13.92-2.38-34.47-3.32-34.47-3.32Z"
                                      fill="#fff"/>
                                <path id="Path_77" data-name="Path 77"
                                      d="M1062.25,339.75c-13.92-2.38-34.47-3.32-34.47-3.32,2.48,4.23-6.93,31.78-7.78,36.4"
                                      fill="none" stroke="#c0e7fa" stroke-linecap="round" stroke-linejoin="round"
                                      stroke-width="2.97"/>
                            </g>
                        </g>
                        <g id="Group_19" data-name="Group 19">
                            <path id="Path_78" data-name="Path 78"
                                  d="M1058.37,334.08c4.68-.99,15.14-9.8,23.33-6.01a67.063,67.063,0,0,1,13.83,8.58s-18.21,4.59-25.46,10.99c-7.35,6.49-14.14,16.29-14.14,16.29l2.44-29.85Z"
                                  fill="#edbda6"/>
                            <path id="Path_79" data-name="Path 79"
                                  d="M1058.76,333.96c6.27,2.03,10.69,8.25,11.51,31,0,0-24.19,13.44-41.18,19.32-27.47,7.95-43.17,1.74-50.3-2.02s-9.43-39.85,5.61-38.71c5.26.4,27.85,7.65,42.73,1.66,13.54-5.45,31.63-11.24,31.63-11.24Z"
                                  fill="#fff"/>
                        </g>
                        <path id="Path_80" data-name="Path 80"
                              d="M984.4,341.72c3.53-2.9,7.02-3.58,10.88-5.01s22.02-2.24,23.93-.02c0,0-13.26,8.99-15.67,12.73-1.46,2.49-2.84,5.72-4.43,6.68s-2.94.44-3.42-.86a3.943,3.943,0,0,1,.16-2,14.469,14.469,0,0,0-2.79,2.03c-2.5,2.34-4.66,2.72-4.71,1.31s2.43-5.16,2.43-5.16a37.439,37.439,0,0,0-3.56,3.78c-1.45,1.85-4.08,2.57-4.02.29s2.5-6.08,4.58-8.57a14.357,14.357,0,0,1,3.28-2.9c-.97.53-2.51,1.36-3.54,1.82-1.88.84-6.46,4.16-7.48,2.06s.82-3.28,4.36-6.18Z"
                              fill="#edbda6"/>
                    </g>
                    <path id="Path_81" data-name="Path 81" d="M1075.64,344.52a87.169,87.169,0,0,1,37.03-11.55"
                          fill="none" stroke="#c0e7fa" stroke-linecap="round" stroke-linejoin="round"
                          stroke-width="2.97"/>
                    <path id="Path_82" data-name="Path 82"
                          d="M975.34,380.84c17.28,10.21,45.38,6.88,58.88,1.62,9.08-3.54,17.29-8.34,25.78-12.45,5.28-2.55,6.95-3.25,10.27-5.64,0,0,.09-19.24-6.51-27.06"
                          fill="none" stroke="#c0e7fa" stroke-linecap="round" stroke-linejoin="round"
                          stroke-width="2.97"/>
                    <path id="Path_83" data-name="Path 83" d="M1061.18,332.3c-8.64,2.75-34.36,18.45-51.48,16.57"
                          fill="none" stroke="#c0e7fa" stroke-linecap="round" stroke-linejoin="round"
                          stroke-width="2.97"/>
                </g>
                <g id="Group_27" data-name="Group 27">
                    <path id="Path_84" data-name="Path 84"
                          d="M817.55,601.72c.04-19.61,6.27-72.54,6.12-76.53-1.01-27.6-1.05-49.95-1.05-49.95l44.31-1.47,25.05,87.67s-.05,39.07-.15,40.27H817.55Z"
                          fill="#313858"/>
                    <path id="Path_85" data-name="Path 85"
                          d="M869.49,600c-10.83-45.76-20.52-124.22-20.52-124.22l105.17-.9s4.15,75.87,6.73,125.12H869.49Z"
                          fill="#313858"/>
                    <path id="Path_86" data-name="Path 86"
                          d="M908.89,172.02s5.21,41.54,6.32,44.11c2.44,5.71,17.43,23.11,17.43,23.11s-45.87,25.15-59.6,25.15-11.28-33.2-11.28-33.2,12.05-5.3,13.97-9.79c2.85-6.66,7.28-36.91,7.28-36.91l25.89-12.48Z"
                          fill="#fec4ad"/>
                    <path id="Path_87" data-name="Path 87"
                          d="M877.64,221.54a107.521,107.521,0,0,0,16.53-5.08c.97-.38,1.94-.8,2.9-1.23,2.2-1.23,4.37-2.52,6.49-3.95.78-.53,4.85-3.76,5.11-3.76,1.37-1.37,2.69-2.8,3.99-4.26.11-.12.23-.23.34-.35-1.85-13.03-4.1-30.9-4.1-30.9l-25.89,12.48s-4.43,30.24-7.28,36.91c-.08.18-.19.38-.29.57.95-.17,1.84-.34,2.2-.42Z"
                          fill="#f7a281"/>
                    <path id="Path_88" data-name="Path 88"
                          d="M882.91,482.53c-18.84-.78-40.75-1.88-58.95-6.52.3-57.11,2.46-159.25,4.14-171.44,2.62-18.97,27.71-70.34,27.71-70.34l8.13-4.58,17.55,10.18,41.98-15.04,30.58,22.46c-19.34,75.92,2,152.31,0,230.41-12.49,1.32-20.46,6.96-71.14,4.87Z"
                          fill="#6eafcf"/>
                    <g id="Group_22" data-name="Group 22">
                        <path id="Path_89" data-name="Path 89"
                              d="M858.19,233.57s-13,45.29-3.33,94.91c2.76,14.15,7.98,61.59,7.98,61.59s1.68,105.44-1.47,115.61-7.66,21.26-27.7,21.1c-19.02-.15-17.3-10.21-17.3-10.21S823,397.8,823.88,371.41s-6.27-109.39-.5-117.96c4.53-6.72,34.81-19.89,34.81-19.89Z"
                              fill="#fff"/>
                        <path id="Path_90" data-name="Path 90"
                              d="M862.15,230.11s-5.32,13.97-5.32,20.85-1.86,42.23-1.74,67.32c.06,12.09,1.01,48.47,1.01,48.47s-19.72-77.66-18.28-81.64c1.51-4.19,10.8-15.76,10.8-15.76s-3.79-13.38-5.06-17.13,3.24-7.96,6.6-12.84c2.71-3.93,11.99-9.27,11.99-9.27Z"
                              fill="#fff"/>
                        <path id="Path_91" data-name="Path 91"
                              d="M930.01,226.5s-25,32.77-29.35,43.66-10.68,39.71-12.01,95.43c0,0,8.55-30.97,14.57-43.82,8.63-18.41,14.77-27.84,14.18-30.76-.85-4.19-6.47-8.33-7.92-13.09,0,0,9.48-8.88,20.99-13.78,0,0,5.1-19.72,5.84-26.36s-6.3-11.29-6.3-11.29Z"
                              fill="#fff"/>
                        <path id="Path_92" data-name="Path 92"
                              d="M862.15,230.11s-5.32,13.97-5.32,20.85,1.13,42.23,1.26,67.32c.06,12.09,4,48.47,4,48.47s-25.71-77.66-24.27-81.64l10.8-15.76s-3.79-13.38-5.06-17.13a83.352,83.352,0,0,1,6.6-12.84c2.71-3.93,11.99-9.27,11.99-9.27Z"
                              fill="#c0e7fa"/>
                        <path id="Path_93" data-name="Path 93"
                              d="M925.81,226.5s-20.9,47.46-23.94,62c-8.77,42-12.49,75.78-12.49,75.78s-9.88,130.05-5.22,147.14c5.12,18.76,11.61,21.68,35.43,22.11a86.548,86.548,0,0,0,43.69-11.06V392.45c0-29.09,10.6-106.89-4.82-139.15-3.71-7.76-32.65-26.8-32.65-26.8Z"
                              fill="#fff"/>
                        <path id="Path_94" data-name="Path 94"
                              d="M926.41,224.78s-21.4,34.49-25.75,45.38-10.68,39.71-12.01,95.43c0,0,8.55-30.97,14.57-43.82,8.63-18.41,12.72-27.7,14.18-30.76,0,0-6.47-8.33-7.92-13.09,0,0,9.48-8.88,20.99-13.78,0,0,6.02-22.63,6.76-29.27s-10.82-10.09-10.82-10.09Z"
                              fill="#c0e7fa"/>
                        <rect id="Rectangle_4" data-name="Rectangle 4" width="36.43" height="5.96"
                              transform="translate(908.2 425.15)" fill="#c0e7fa"/>
                        <rect id="Rectangle_5" data-name="Rectangle 5" width="27.66" height="5.96"
                              transform="translate(819.59 425.15)" fill="#c0e7fa"/>
                    </g>
                    <path id="Path_95" data-name="Path 95"
                          d="M921.66,219.86s-18.68,14.19-38.75,18.68c-2.49.56-1.16,8.03,6.16,7.54,12.07-.81,38.25-19.04,38.25-19.04l-5.66-7.18Z"
                          fill="#5f97b3"/>
                    <path id="Path_96" data-name="Path 96"
                          d="M882.91,238.54s-2.85,8.51-7.78,6.71c-6.12-2.23-11.18-15.6-11.18-15.6l5.08-3.76A27.754,27.754,0,0,0,882.91,238.54Z"
                          fill="#5f97b3"/>
                    <path id="Path_97" data-name="Path 97"
                          d="M861.94,131.14c-7.22,6.16-8.91,16.12-7.54,22.81s6.31,21.59,6.31,21.59,5.3-22.85,8.82-30.93,9.33-18.71,9.33-18.71l-16.92,5.23Z"
                          fill="#313858"/>
                    <path id="Path_98" data-name="Path 98"
                          d="M871.91,130.22c-4.58,2.54-12.46,7.95-12.89,12.06s-2.33,16.14-1.85,23.22-1.04,14.71.05,22.99,7.29,23.78,12.91,27.94c9.06,6.7,21.94-1.94,30.15-7.45,9.55-6.41,13.09-12.06,12.55-29.74,0,0,6.23-32.49,4.47-37.37-4.26-11.88-29.04-6.84-36.11-7.89s-9.27-3.75-9.27-3.75Z"
                          fill="#fec4ad"/>
                    <path id="Path_99" data-name="Path 99"
                          d="M905.61,141.86c3.75-2.54,3.64,7.86,3.02,11.39-1.23,7.05.6,15.27.6,15.27l2.66,6.75s-1.29,14.82-.08,19.68c.99,4,27.45-24.04,20.48-53.6-3.02-12.8-14.74-9.01-14.74-9.01-1.95-13.09-20.42-19.52-35.78-11.72-23.02,11.7-28.3,7.17-28.23,15.18.04,5.16,1.84,10.87,15.38,11.71,24.81,1.54,30.97-1.77,36.71-5.66Z"
                          fill="#313858"/>
                    <path id="Path_100" data-name="Path 100"
                          d="M909.4,177.65a28.917,28.917,0,0,1,5.8-9.42c3.16-3.1,7.9-3.17,9.12,1.75,1.48,5.99-3.93,9.8-4.23,13.32-.34,3.94-7.57,7.49-10.2,6.2l-.48-11.84Z"
                          fill="#fec4ad"/>
                    <path id="Path_101" data-name="Path 101"
                          d="M918.05,171.54c2.28-1.4,3.98.5,4.34,2.58s-.26.85-1.7-.51-3.5,1.45-3.6,3.42c-.13,2.71-1.56,5.93-3.94,5.79s-1.04-.78-.33-3.58-.13-.04.98-2.72a9.14,9.14,0,0,1,4.24-4.98Z"
                          fill="#965545" opacity="0.52"/>
                    <g id="Group_26" data-name="Group 26">
                        <path id="Path_102" data-name="Path 102"
                              d="M927.36,368.34c2.77-30.99,3.02-62.03,5.3-81.48,5.1-43.4,10.04-48.35,10.04-48.35s22.27,11.24,28.73,50.99c1.96,12.93,4.5,41.99,1.06,82.68-2.71,32.07-7.79,36.04-15.61,39.42-10.66,4.6-30.91,8.54-40.18.16,5.85-20.29,9.39-15,10.65-43.42Z"
                              fill="#fff"/>
                        <path id="Path_103" data-name="Path 103"
                              d="M933.41,232.27s31.66,15.16,38.32,59.08c1.96,12.93,4.2,40.13.76,80.82-2.71,32.07-7.79,36.04-15.61,39.42-10.66,4.6-30.91,8.54-40.18.16"
                              fill="none" stroke="#c0e7fa" stroke-linecap="round" stroke-linejoin="round"
                              stroke-width="2.97"/>
                        <path id="Path_104" data-name="Path 104"
                              d="M830.12,363.14c1.51-28.66,5.21-57.21,5.68-75.22,1.05-40.03-2.46-42.68-2.46-42.68s-15.18,7.54-23.4,35.41c-3.29,11.16-13.35,46.18-17.05,80.94-2.99,28.12,1.44,35.72,7.3,39.62,8.67,5.76,36.48,3.4,43.48,2.5-2.68-19.62-16.04-14.43-13.56-40.57Z"
                              fill="#fff"/>
                        <path id="Path_105" data-name="Path 105"
                              d="M833.34,245.25s-15.18,7.54-23.4,35.41c-3.29,11.16-13.35,46.18-17.05,80.94-2.99,28.12,1.44,35.72,7.3,39.62,8.67,5.76,58.34-1,65.34-1.89"
                              fill="none" stroke="#c0e7fa" stroke-linecap="round" stroke-linejoin="round"
                              stroke-width="2.97"/>
                        <path id="Path_106" data-name="Path 106" d="M831.03,376.54c-.55-31.39,1.08-35.26,3.69-65.34"
                              fill="none" stroke="#c0e7fa" stroke-linecap="round" stroke-linejoin="round"
                              stroke-width="2.97"/>
                        <path id="Path_107" data-name="Path 107" d="M940.34,366.13q-1.2-41.505.6-79.98" fill="none"
                              stroke="#c0e7fa" stroke-linecap="round" stroke-linejoin="round" stroke-width="2.97"/>
                        <g id="Group_24" data-name="Group 24">
                            <path id="Path_108" data-name="Path 108"
                                  d="M904.2,399.19c11.25,2.09,11.74-23.37,11.74-23.37s-18.22-12.9-19.71-2.57c-1.51,10.46,7.97,25.94,7.97,25.94Z"
                                  fill="#808194"/>
                            <g id="Group_23" data-name="Group 23">
                                <path id="Path_109" data-name="Path 109"
                                      d="M895.97,361.12c5.61.37,16.96-7.67,25.69-.68a90.765,90.765,0,0,1,14.56,14.72s-18.52-1.6-28.76,3.28c-10.18,4.86-20.41,13.53-20.41,13.53l8.91-30.86Z"
                                      fill="#edbda6"/>
                                <path id="Path_110" data-name="Path 110"
                                      d="M899.13,358.57c-2.89,4.92,1.12,24.47,2.08,29.83,0,0-26.42,10.93-52.92,12.17-32.52,1.51-45.77-1.56-51.53-7.78-5.66-6.13,6.74-44.1,22.17-35.39,9.64,5.44,25.43,8.58,40.96,5.65,15.76-2.98,39.25-4.47,39.25-4.47Z"
                                      fill="#fff"/>
                                <path id="Path_111" data-name="Path 111"
                                      d="M859.88,363.04c15.76-2.98,39.25-4.47,39.25-4.47-2.89,4.92,7.75,36.64,8.71,42"
                                      fill="none" stroke="#c0e7fa" stroke-linecap="round" stroke-linejoin="round"
                                      stroke-width="2.97"/>
                            </g>
                        </g>
                        <g id="Group_25" data-name="Group 25">
                            <path id="Path_112" data-name="Path 112"
                                  d="M864.32,356.51c-5.25-1.03-16.84-10.77-25.99-6.3a76.953,76.953,0,0,0-15.4,9.95s20.08,4.84,28.08,11.99c8.16,7.29,15.71,18.42,15.71,18.42l-2.4-34.06Z"
                                  fill="#edbda6"/>
                            <path id="Path_113" data-name="Path 113"
                                  d="M863.88,356.38c-7.08,2.43-12.11,9.59-13.34,35.49,0,0,27.2,15.27,46.67,22.03,32.01,9.3,50.63,1.98,59.15-2.47,8.55-4.47,11.35-47.07-6.59-45.45-6.24.56-32.77,9.37-49.97,2.67-15.47-6.02-35.93-12.27-35.93-12.27Z"
                                  fill="#fff"/>
                        </g>
                        <path id="Path_114" data-name="Path 114"
                              d="M949.78,363.86c-4.17-3.31-8.29-4.04-12.83-5.62s-25.7-2.14-27.92.47c0,0,15.36,10.16,18.17,14.46,1.7,2.87,3.3,6.62,5.17,7.72s3.46.48,4.03-1.05a4.629,4.629,0,0,0-.18-2.34,16.53,16.53,0,0,1,3.28,2.33c2.95,2.7,5.5,3.12,5.57,1.47s-2.86-6.01-2.86-6.01a43.02,43.02,0,0,1,4.21,4.37c1.71,2.15,4.84,2.97,4.77.29-.07-2.66-2.95-7.09-5.41-9.96a16.1,16.1,0,0,0-3.87-3.32c1.14.6,2.96,1.54,4.18,2.06,2.22.95,7.66,4.76,8.88,2.29s-.97-3.83-5.16-7.16Z"
                              fill="#edbda6"/>
                    </g>
                    <path id="Path_115" data-name="Path 115" d="M844.82,368.69a91.925,91.925,0,0,0-40.57-12.31"
                          fill="none" stroke="#c0e7fa" stroke-linecap="round" stroke-linejoin="round"
                          stroke-width="2.97"/>
                    <path id="Path_116" data-name="Path 116"
                          d="M960.5,409.76c-20.63,12.07-53.62,8.16-69.19,2.05-10.39-4.08-19.69-9.57-29.27-14.23-5.92-2.88-7.8-3.67-11.49-6.37,0,0,.17-21.91,7.66-30.92"
                          fill="none" stroke="#c0e7fa" stroke-linecap="round" stroke-linejoin="round"
                          stroke-width="2.97"/>
                    <path id="Path_117" data-name="Path 117" d="M861.18,354.55c9.71,2.94,38.94,20.51,58.81,18.07"
                          fill="none" stroke="#c0e7fa" stroke-linecap="round" stroke-linejoin="round"
                          stroke-width="2.97"/>
                </g>
            </g>
            <g id="Group_29" data-name="Group 29">
                <path id="Path_118" data-name="Path 118"
                      d="M782.87,601.72l-64.62,28.82,30.53,32.12,3.53,49.69,68.74-29.39Z" fill="#cc3943"/>
                <path id="Path_119" data-name="Path 119" d="M803.3,637.89l12.91,15.68,4.84,29.39L795.7,672.31Z"
                      fill="#fa9399"/>
                <path id="Path_120" data-name="Path 120"
                      d="M1132.78,601.72l64.62,28.82-30.53,32.12-3.52,49.69-68.74-29.39Z" fill="#cc3943"/>
                <path id="Path_121" data-name="Path 121" d="M1112.35,637.89l-12.9,15.68-4.84,29.39,25.34-10.65Z"
                      fill="#fa9399"/>
                <path id="Path_122" data-name="Path 122"
                      d="M768.76,590.22l26.94,82.09c35.44-11.24,129.32-17.25,167.96-17.25s120.62,6.02,156.06,17.25l26.94-84.85c-48.37-17.86-129.29-24.79-183-24.79s-146.54,9.69-194.9,27.55Z"
                      fill="#e85d66"/>
                <path id="Path_167" data-name="Path 167"
                      d="M14.008-47.6H2.72V0H14.484C21.964,0,25.84-3.944,25.84-11.288v-3.876c0-5.032-1.564-8.568-5.576-10.132v-.136c3.332-1.564,4.828-4.624,4.828-9.52v-1.7C25.092-44,21.76-47.6,14.008-47.6Zm-.476,26.18c3.4,0,4.828,1.36,4.828,5.78v4.148C18.36-7.956,17-6.8,14.484-6.8H10.2V-21.42ZM13.8-40.8c2.652,0,3.808,1.5,3.808,4.9v2.652c0,3.808-1.7,5.032-4.488,5.032H10.2V-40.8Zm24,0h12.92v-6.8h-20.4V0h20.4V-6.8H37.808V-20.74H48.076v-6.8H37.808ZM54.4-36.176c0,5.44,1.972,9.384,8.228,14.892,4.9,4.284,6.392,6.868,6.392,10.336,0,3.4-1.5,4.624-3.876,4.624s-3.876-1.224-3.876-4.624v-3.4H54.2v2.924C54.2-3.808,58,.544,65.348.544S76.5-3.808,76.5-11.424c0-5.44-1.972-9.384-8.228-14.892-4.9-4.284-6.392-6.868-6.392-10.336,0-3.4,1.36-4.692,3.74-4.692s3.74,1.292,3.74,4.692v1.972h7.072v-1.5c0-7.616-3.74-11.968-11.016-11.968S54.4-43.792,54.4-36.176ZM78.608-40.8h7.82V0h7.48V-40.8h7.82v-6.8H78.608ZM115.532,0h11.832c7.48,0,11.152-4.148,11.152-11.764V-35.836c0-7.616-3.672-11.764-11.152-11.764H115.532Zm11.7-40.8c2.38,0,3.808,1.224,3.808,4.624v24.752c0,3.4-1.428,4.624-3.808,4.624h-4.216v-34Zm22.916,4.148c0-3.4,1.5-4.692,3.876-4.692s3.876,1.292,3.876,4.692v25.7c0,3.4-1.5,4.692-3.876,4.692s-3.876-1.292-3.876-4.692Zm-7.48,25.228c0,7.616,4.012,11.968,11.356,11.968s11.356-4.352,11.356-11.968V-36.176c0-7.616-4.012-11.968-11.356-11.968s-11.356,4.352-11.356,11.968Zm42.16-6.324v6.8c0,3.4-1.5,4.624-3.876,4.624s-3.876-1.224-3.876-4.624v-25.7c0-3.4,1.5-4.692,3.876-4.692s3.876,1.292,3.876,4.692v5.1H191.9v-4.624c0-7.616-3.808-11.968-11.152-11.968s-11.152,4.352-11.152,11.968v24.752c0,7.616,3.808,11.968,11.152,11.968S191.9-3.808,191.9-11.424v-6.324ZM194.276-40.8h7.82V0h7.48V-40.8h7.82v-6.8h-23.12Zm33.252,4.148c0-3.4,1.5-4.692,3.876-4.692s3.876,1.292,3.876,4.692v25.7c0,3.4-1.5,4.692-3.876,4.692s-3.876-1.292-3.876-4.692Zm-7.48,25.228C220.048-3.808,224.06.544,231.4.544S242.76-3.808,242.76-11.424V-36.176c0-7.616-4.012-11.968-11.356-11.968s-11.356,4.352-11.356,11.968ZM270.844,0a14.018,14.018,0,0,1-.816-5.78v-7.344c0-4.964-1.224-8.5-4.964-10.064v-.136c3.332-1.564,4.9-4.692,4.9-9.588v-3.74c0-7.344-3.332-10.948-11.084-10.948H247.588V0h7.48V-19.38h2.584c3.4,0,4.9,1.632,4.9,6.052v7.48c0,3.876.272,4.624.68,5.848ZM258.672-40.8c2.652,0,3.808,1.5,3.808,4.9v4.692c0,3.808-1.7,5.032-4.488,5.032h-2.924V-40.8Z"
                      transform="translate(821.857 641.098)" fill="#fff"/>
            </g>
            <g id="Group">
                <text id="Lorem_ipsum_dolor_sit_amet_consectetuer_adipiscing_elit_sed_diam_nonummy_nibh_euismod_"
                      data-name="Lorem ipsum dolor sit amet, consectetuer adipiscing elit, sed diam nonummy nibh euismod "
                      transform="translate(756.59 757.39)" fill="#919295" font-size="10.44"
                      font-family="JosefinSans-Light, Josefin Sans" font-weight="300">
                    <tspan x="0" y="0">Lorem ipsum dolor sit amet, consectetuer adipiscing elit, sed diam nonummy nibh
                        euismod
                    </tspan>
                </text>
                <text id="tincidunt_ut_laoreet_dolore_magna_aliquam_erat_volutpat._Ut_wisi_enim_ad_minim_veniam_quis_"
                      data-name="tincidunt ut laoreet dolore magna aliquam erat volutpat. Ut wisi enim ad minim veniam, quis "
                      transform="translate(751.13 779.26)" fill="#919295" font-size="10.44"
                      font-family="JosefinSans-Light, Josefin Sans" font-weight="300">
                    <tspan x="0" y="0">tincidunt ut laoreet dolore magna aliquam erat volutpat. Ut wisi enim ad minim
                        veniam, quis
                    </tspan>
                </text>
                <text id="nostrud_exerci_tation_ullamcorper_suscipit."
                      data-name="nostrud exerci tation ullamcorper suscipit." transform="translate(866.15 801.13)"
                      fill="#919295" font-size="10.44" font-family="JosefinSans-Light, Josefin Sans" font-weight="300">
                    <tspan x="0" y="0">nostrud exerci tation ullamcorper suscipit.</tspan>
                </text>
            </g>
            <path id="Path_171" data-name="Path 171"
                  d="M3.95-12.115V-2.3h5.7V0H1.564V-12.115Zm7.094,6.074a6.029,6.029,0,0,1,.831-3.078,6.282,6.282,0,0,1,2.255-2.28,5.926,5.926,0,0,1,3.086-.848A5.926,5.926,0,0,1,20.3-11.4a6.414,6.414,0,0,1,2.271,2.28,5.94,5.94,0,0,1,.848,3.078,5.913,5.913,0,0,1-.848,3.094A6.322,6.322,0,0,1,20.3-.7a6.015,6.015,0,0,1-3.086.831A6,6,0,0,1,14.123-.7a6.212,6.212,0,0,1-2.247-2.247A6,6,0,0,1,11.045-6.041Zm2.469,0a3.882,3.882,0,0,0,.5,1.942,3.78,3.78,0,0,0,1.366,1.407,3.656,3.656,0,0,0,1.918.518,3.47,3.47,0,0,0,1.86-.518,3.67,3.67,0,0,0,1.317-1.4,4.026,4.026,0,0,0,.477-1.951,4,4,0,0,0-.494-1.975,3.758,3.758,0,0,0-1.341-1.407,3.541,3.541,0,0,0-1.885-.518,3.541,3.541,0,0,0-1.885.518,3.758,3.758,0,0,0-1.341,1.407A4,4,0,0,0,13.514-6.041ZM32.344,0,29.793-3.852H28.2V0H25.809V-12.115H29.48a5.119,5.119,0,0,1,3.5,1.095A3.777,3.777,0,0,1,34.22-8.032a4.8,4.8,0,0,1-.469,2.1,3.481,3.481,0,0,1-1.44,1.539L35.126,0ZM28.2-6.156h1.7a1.687,1.687,0,0,0,1.416-.568,1.951,1.951,0,0,0,.444-1.226,2.327,2.327,0,0,0-.379-1.259,1.6,1.6,0,0,0-1.465-.6H28.2Zm17.168-5.959v2.3H39.488v2.584h5.2v2.3h-5.2V-2.3h6.107V0H37.1V-12.115Zm15.176-.494V0H58.153V-5.777L54.2-.165H54.17l-3.8-5.251V0h-2.3V-12.608h.016L54.219-3.9l6.288-8.707Zm10.864.494V0H69.017V-12.115Zm6.8,0a4.971,4.971,0,0,1,3.44,1.095A3.814,3.814,0,0,1,82.86-8.032,4.957,4.957,0,0,1,82.44-6a3.541,3.541,0,0,1-1.366,1.555,4.446,4.446,0,0,1-2.444.609H76.918V0H74.531V-12.115Zm.411,5.959a1.783,1.783,0,0,0,1.086-.3,1.786,1.786,0,0,0,.593-.716,1.96,1.96,0,0,0,.181-.79,2.3,2.3,0,0,0-.379-1.243,1.6,1.6,0,0,0-1.465-.6H76.918v3.654ZM91.468-9.185a5.9,5.9,0,0,0-2.749-.872,2.078,2.078,0,0,0-1.226.313,1.079,1.079,0,0,0-.436.938,1.234,1.234,0,0,0,.634,1.012,7.908,7.908,0,0,0,1.687.831,7.008,7.008,0,0,1,1.465.716,3.2,3.2,0,0,1,1.012,1.111,3.588,3.588,0,0,1,.4,1.794A3.28,3.28,0,0,1,91.773-1.6,3.387,3.387,0,0,1,90.349-.337,4.955,4.955,0,0,1,88.11.132a7.468,7.468,0,0,1-2.156-.321,6.736,6.736,0,0,1-1.992-.979l1.053-1.86a5.726,5.726,0,0,0,1.432.757,4.257,4.257,0,0,0,1.448.3A2.6,2.6,0,0,0,89.213-2.3a1.112,1.112,0,0,0,.56-1.045q0-.938-1.761-1.63a15.767,15.767,0,0,1-1.728-.79A3.555,3.555,0,0,1,85.09-6.847a3,3,0,0,1-.5-1.778,3.274,3.274,0,0,1,1.029-2.518,4.179,4.179,0,0,1,2.741-1.037,7.157,7.157,0,0,1,2.255.3,7.7,7.7,0,0,1,1.761.864Zm5.267,4.708a1.98,1.98,0,0,0,.346,1.1A2.661,2.661,0,0,0,98-2.518a2.448,2.448,0,0,0,1.235.329,2.633,2.633,0,0,0,1.3-.329,2.55,2.55,0,0,0,.93-.856,2.014,2.014,0,0,0,.337-1.1v-7.637h2.354v7.687a4.309,4.309,0,0,1-.658,2.346,4.532,4.532,0,0,1-1.786,1.63,5.3,5.3,0,0,1-2.477.584,5.253,5.253,0,0,1-2.469-.584A4.487,4.487,0,0,1,95-2.082a4.35,4.35,0,0,1-.65-2.346v-7.687h2.387Zm22.781-8.131V0h-2.387V-5.777l-3.95,5.613h-.033l-3.8-5.251V0h-2.3V-12.608h.016L113.2-3.9l6.288-8.707Zm8.477.494h3.621a7.34,7.34,0,0,1,3.819.9A5.429,5.429,0,0,1,137.614-8.9a6.968,6.968,0,0,1,.683,3.053,5.739,5.739,0,0,1-.823,3.078A5.53,5.53,0,0,1,135.26-.716,6.572,6.572,0,0,1,132.207,0h-4.214Zm3.8,9.81a4.306,4.306,0,0,0,2.946-.955,3.464,3.464,0,0,0,1.086-2.749,3.942,3.942,0,0,0-.6-2.3,3.232,3.232,0,0,0-1.4-1.185,3.959,3.959,0,0,0-1.506-.329H130.38V-2.3Zm8.148-3.736a6.029,6.029,0,0,1,.831-3.078,6.282,6.282,0,0,1,2.255-2.28,5.926,5.926,0,0,1,3.086-.848,5.926,5.926,0,0,1,3.086.848,6.414,6.414,0,0,1,2.271,2.28,5.94,5.94,0,0,1,.848,3.078,5.913,5.913,0,0,1-.848,3.094A6.322,6.322,0,0,1,149.2-.7a6.015,6.015,0,0,1-3.086.831A6,6,0,0,1,143.021-.7a6.212,6.212,0,0,1-2.247-2.247A6,6,0,0,1,139.943-6.041Zm2.469,0a3.882,3.882,0,0,0,.5,1.942,3.78,3.78,0,0,0,1.366,1.407,3.656,3.656,0,0,0,1.918.518,3.47,3.47,0,0,0,1.86-.518,3.67,3.67,0,0,0,1.317-1.4,4.026,4.026,0,0,0,.477-1.951,4,4,0,0,0-.494-1.975,3.758,3.758,0,0,0-1.341-1.407,3.541,3.541,0,0,0-1.885-.518,3.541,3.541,0,0,0-1.885.518,3.758,3.758,0,0,0-1.341,1.407A4,4,0,0,0,142.412-6.041Zm14.682-6.074V-2.3h5.7V0h-8.082V-12.115Zm7.094,6.074a6.029,6.029,0,0,1,.831-3.078,6.282,6.282,0,0,1,2.255-2.28,5.926,5.926,0,0,1,3.086-.848,5.926,5.926,0,0,1,3.086.848,6.414,6.414,0,0,1,2.271,2.28,5.94,5.94,0,0,1,.848,3.078,5.913,5.913,0,0,1-.848,3.094A6.322,6.322,0,0,1,173.447-.7a6.015,6.015,0,0,1-3.086.831A6,6,0,0,1,167.267-.7a6.212,6.212,0,0,1-2.247-2.247A6,6,0,0,1,164.189-6.041Zm2.469,0a3.882,3.882,0,0,0,.5,1.942,3.78,3.78,0,0,0,1.366,1.407,3.656,3.656,0,0,0,1.918.518,3.47,3.47,0,0,0,1.86-.518,3.67,3.67,0,0,0,1.317-1.4,4.026,4.026,0,0,0,.477-1.951,4,4,0,0,0-.494-1.975,3.758,3.758,0,0,0-1.341-1.407,3.541,3.541,0,0,0-1.885-.518,3.541,3.541,0,0,0-1.885.518,3.758,3.758,0,0,0-1.341,1.407A4,4,0,0,0,166.658-6.041ZM185.488,0l-2.551-3.852h-1.6V0h-2.387V-12.115h3.671a5.119,5.119,0,0,1,3.5,1.095,3.777,3.777,0,0,1,1.243,2.987,4.8,4.8,0,0,1-.469,2.1,3.481,3.481,0,0,1-1.44,1.539L188.27,0ZM181.34-6.156h1.7a1.687,1.687,0,0,0,1.416-.568A1.951,1.951,0,0,0,184.9-7.95a2.327,2.327,0,0,0-.379-1.259,1.6,1.6,0,0,0-1.465-.6H181.34Zm20.723-3.029a5.9,5.9,0,0,0-2.749-.872,2.078,2.078,0,0,0-1.226.313,1.079,1.079,0,0,0-.436.938,1.234,1.234,0,0,0,.634,1.012,7.909,7.909,0,0,0,1.687.831,7.008,7.008,0,0,1,1.465.716,3.2,3.2,0,0,1,1.012,1.111,3.588,3.588,0,0,1,.4,1.794,3.28,3.28,0,0,1-.486,1.737,3.387,3.387,0,0,1-1.424,1.267,4.955,4.955,0,0,1-2.239.469,7.468,7.468,0,0,1-2.156-.321,6.736,6.736,0,0,1-1.992-.979l1.053-1.86a5.726,5.726,0,0,0,1.432.757,4.257,4.257,0,0,0,1.448.3,2.6,2.6,0,0,0,1.317-.321,1.112,1.112,0,0,0,.56-1.045q0-.938-1.761-1.63a15.766,15.766,0,0,1-1.728-.79,3.555,3.555,0,0,1-1.193-1.086,3,3,0,0,1-.5-1.778,3.274,3.274,0,0,1,1.029-2.518,4.179,4.179,0,0,1,2.741-1.037,7.157,7.157,0,0,1,2.255.3,7.7,7.7,0,0,1,1.761.864Zm5.514-2.93V0H205.19V-12.115Zm10.469,0v2.3H215.1V0h-2.387V-9.81h-2.831v-2.3ZM231.691-2.37h-4.016L226.687,0h-2.354L229.8-12.592h.132L235.394,0h-2.765Zm-.79-2.008-1.169-2.946-1.218,2.946Zm18.731-8.23V0h-2.387V-5.777L243.3-.165h-.033l-3.8-5.251V0h-2.3V-12.608h.016l6.14,8.707,6.288-8.707Zm11.39.494v2.3h-5.876v2.584h5.2v2.3h-5.2V-2.3h6.107V0H252.76V-12.115Zm10.041,0v2.3h-2.946V0H265.73V-9.81H262.9v-2.3Z"
                  transform="translate(819.29 737.09)" fill="#369ccf"/>
        </g>
    </g>
</svg>
