<svg viewBox="452.51 469.85 1144.98 1124.65" data-name="Layer 3" id="Layer_3" xmlns="http://www.w3.org/2000/svg">
    <defs>
        <style>.cls-1{fill:#dde2ee;}.cls-2{fill:#2e2a57;}.cls-3{fill:#566fe2;}</style>
    </defs>
    <title></title>
    <path class="cls-1"
          d="M1140.3,554H909.7a54,54,0,0,1-50.4-34.5,53.9,53.9,0,0,0-3.6,19.4h0a53.9,53.9,0,0,0,54,53.9h230.6a53.9,53.9,0,0,0,54-53.9h0a53.9,53.9,0,0,0-3.6-19.4A54,54,0,0,1,1140.3,554Z"></path>
    <rect class="cls-1" height="44.53" width="206.2" x="921.9" y="598.3"></rect>
    <path class="cls-1"
          d="M1479.4,1529.2H570.6c-49.6,0-86.4-32.9-98.7-73.6-19.1,62.3,26.1,132.8,98.7,132.8h908.8c72.6,0,117.8-70.5,98.7-132.8C1565.8,1496.3,1529,1529.2,1479.4,1529.2Z"></path>
    <path class="cls-2"
          d="M1140.3,607.8H909.7a69,69,0,1,1,0-137.9h230.6a69,69,0,1,1,0,137.9ZM909.7,499.9a39,39,0,1,0,0,77.9h230.6a39,39,0,1,0,0-77.9Z"></path>
    <path class="cls-2"
          d="M1479.4,1594.5H570.6c-46.2,0-87.1-25.9-106.7-67.7a116.7,116.7,0,0,1,16-125.4l373.3-450a234.2,234.2,0,0,0,53.7-149V592.8a15,15,0,0,1,15-15h206.2a15,15,0,0,1,15,15V802.4a234.2,234.2,0,0,0,53.7,149l373.3,450a116.7,116.7,0,0,1,16,125.4C1566.5,1568.6,1525.6,1594.5,1479.4,1594.5ZM936.9,607.8V802.4a263.2,263.2,0,0,1-60.7,168.1l-373.3,450a86.4,86.4,0,0,0-19.9,46.6,89.1,89.1,0,0,0,39,83,86.4,86.4,0,0,0,48.6,14.4h908.8a86.4,86.4,0,0,0,48.6-14.4,89.1,89.1,0,0,0,39-83,86.4,86.4,0,0,0-19.9-46.6l-373.3-450a263.2,263.2,0,0,1-60.7-168.1V607.8Z"></path>
    <path class="cls-3"
          d="M1252.8,1502.4a5.8,5.8,0,1,1,0-11.5h70.1a5.8,5.8,0,0,1,0,11.6Zm-70.2,0h-70.3a5.8,5.8,0,1,1,.1-11.5h70.2a5.6,5.6,0,0,1,5.7,5.7A5.7,5.7,0,0,1,1182.6,1502.4Zm210.5-.2a5.7,5.7,0,0,1-5.8-5.7,5.8,5.8,0,0,1,5.8-5.8h29.5a27.8,27.8,0,0,0,25.9-18.1,5.8,5.8,0,1,1,10.8,4,39,39,0,0,1-36.7,25.6Zm-351,0H971.9a5.8,5.8,0,0,1,0-11.5h70.3a5.8,5.8,0,0,1,5.7,5.8A5.7,5.7,0,0,1,1042.1,1502.2Zm-140.4-.2H831.5a5.8,5.8,0,1,1,0-11.6h0l70.2.2a5.8,5.8,0,1,1,0,11.5Zm-140.4-.3h0l-70.2-.2a5.8,5.8,0,1,1,0-11.5h0l70.2.2a5.8,5.8,0,1,1,0,11.5Zm-140.4-1.1h-1.2a39.4,39.4,0,0,1-30.8-38.5,38.4,38.4,0,0,1,9.1-24.9l1-1.3a5.8,5.8,0,0,1,8.2-.7,5.7,5.7,0,0,1,.7,8.1l-1,1.3a27.1,27.1,0,0,0-6.5,17.5,27.9,27.9,0,0,0,21.7,27.2,5.8,5.8,0,0,1-1.2,11.4Zm804.9-80.3a5.5,5.5,0,0,1-4.4-2.1l-44.8-54a5.7,5.7,0,1,1,8.8-7.4l44.8,54a5.8,5.8,0,0,1-.7,8.2A5.8,5.8,0,0,1,1425.8,1420.3Zm-777.5-29a5.9,5.9,0,0,1-3.7-1.4,5.7,5.7,0,0,1-.8-8.1l44.8-54a5.8,5.8,0,0,1,8.9,7.4l-44.8,54A5.6,5.6,0,0,1,648.3,1391.3Zm687.9-79a5.5,5.5,0,0,1-4.4-2.1l-44.8-54a5.7,5.7,0,1,1,8.8-7.4l44.8,54a5.8,5.8,0,0,1-.7,8.2A5.8,5.8,0,0,1,1336.2,1312.3Zm-598.3-29a5.9,5.9,0,0,1-3.7-1.4,5.7,5.7,0,0,1-.8-8.1l44.8-54a5.8,5.8,0,0,1,8.9,7.4l-44.8,54A5.6,5.6,0,0,1,737.9,1283.3Zm508.7-79a5.6,5.6,0,0,1-4.4-2.1l-35.5-42.8a27.2,27.2,0,0,0-9.5-7.3,5.8,5.8,0,0,1,5-10.5,38.7,38.7,0,0,1,13.3,10.4l35.6,42.8a5.9,5.9,0,0,1-.8,8.2A5.8,5.8,0,0,1,1246.6,1204.3Zm-419.1-29a5.9,5.9,0,0,1-3.7-1.4,5.7,5.7,0,0,1-.8-8.1l11.5-13.8a38.8,38.8,0,0,1,30.2-14.1h22.8a5.7,5.7,0,0,1,5.8,5.7,5.8,5.8,0,0,1-5.8,5.8H864.7a27.6,27.6,0,0,0-21.4,10l-11.4,13.8A5.6,5.6,0,0,1,827.5,1175.3Z"></path>
    <path class="cls-1"
          d="M1121.7,1225.9H928.3a40.8,40.8,0,0,1-40.8-40.8v38.8a40.8,40.8,0,0,0,40.8,40.8h193.4a40.8,40.8,0,0,0,40.8-40.8v-38.8A40.8,40.8,0,0,1,1121.7,1225.9Z"></path>
    <path class="cls-3"
          d="M1121.7,1279.7H928.3a55.9,55.9,0,0,1-55.8-55.8V1067.8a55.9,55.9,0,0,1,55.8-55.8h193.4a55.9,55.9,0,0,1,55.8,55.8v156.1A55.9,55.9,0,0,1,1121.7,1279.7ZM928.3,1042a25.9,25.9,0,0,0-25.8,25.8v156.1a25.9,25.9,0,0,0,25.8,25.8h193.4a25.9,25.9,0,0,0,25.8-25.8V1067.8a25.9,25.9,0,0,0-25.8-25.8Z"></path>
    <polygon class="cls-3"
             points="1044.9 1125.9 1044.9 1086 1005.1 1086 1005.1 1125.9 965.2 1125.9 965.2 1165.8 1005.1 1165.8 1005.1 1205.7 1044.9 1205.7 1044.9 1165.8 1084.8 1165.8 1084.8 1125.9 1044.9 1125.9"></polygon>
</svg>