<svg viewBox="447.6 426.5 996.8 1226.2" data-name="Layer 3" id="Layer_3" xmlns="http://www.w3.org/2000/svg">
    <defs>
        <style>.cls-1{fill:#566fe2;}.cls-2{fill:#dde2ee;}.cls-3{fill:#2e2a57;}</style>
    </defs>
    <title></title>
    <path class="cls-1"
          d="M887.9,516.2H675.2a14.5,14.5,0,0,1-14.5-14.5V441a14.5,14.5,0,0,1,14.5-14.5H887.9A14.5,14.5,0,0,1,902.4,441v60.7A14.5,14.5,0,0,1,887.9,516.2ZM689.8,487.1H873.4V455.5H689.8Z"></path>
    <path class="cls-1"
          d="M1220.2,1652.7H917.8c-83.1,0-150.7-67.6-150.7-150.7v-55h29v55a121.8,121.8,0,0,0,121.7,121.7h302.4A121.8,121.8,0,0,0,1341.9,1502V913.9h29V1502C1370.9,1585.1,1303.3,1652.7,1220.2,1652.7Z"></path>
    <path class="cls-2"
          d="M803.2,1280.1H759.9c-164.4,0-297.8-133.3-297.8-297.8V1065c0,164.5,133.4,297.8,297.8,297.8h43.3c164.5,0,297.8-133.3,297.8-297.8V982.3C1101,1146.8,967.7,1280.1,803.2,1280.1Z"></path>
    <rect class="cls-1" height="29.02" width="83" x="472.6" y="615.3"></rect>
    <rect class="cls-1" height="29.02" width="83" x="472.6" y="736.3"></rect>
    <rect class="cls-1" height="29.02" width="83" x="472.6" y="857.2"></rect>
    <rect class="cls-1" height="29.02" width="83" x="472.6" y="978.2"></rect>
    <rect class="cls-1" height="29.02" width="83" x="472.6" y="1099.2"></rect>
    <path class="cls-1"
          d="M810.4,1055.8a5,5,0,0,1-4.8-4,4.9,4.9,0,0,1,3.8-5.9,136.5,136.5,0,0,0,55.1-25.6,5,5,0,1,1,6.1,7.8,145.3,145.3,0,0,1-59.1,27.6Zm-62.9-1.2-1.2-.2a146.1,146.1,0,0,1-58.1-29.7,5.2,5.2,0,0,1-.6-7.1,5.1,5.1,0,0,1,7.1-.6,134.4,134.4,0,0,0,54,27.7,5.1,5.1,0,0,1,3.7,6.1A5.2,5.2,0,0,1,747.5,1054.6Zm159.7-74.3a5.9,5.9,0,0,1-2.2-.5,5,5,0,0,1-2.3-6.7,132.9,132.9,0,0,0,13.7-59.2,5,5,0,0,1,5-5,5.1,5.1,0,0,1,5,5,144,144,0,0,1-14.7,63.6A4.9,4.9,0,0,1,907.2,980.3Zm-253.5-4.8a5,5,0,0,1-4.6-3,143.6,143.6,0,0,1-12.3-58.6c0-1.8,0-3.6.1-5.4a5,5,0,1,1,10,.3c-.1,1.7-.1,3.4-.1,5.1a132.8,132.8,0,0,0,11.5,54.6,5.2,5.2,0,0,1-4.6,7ZM911.5,867.3a5,5,0,0,1-4.6-3.1,135.2,135.2,0,0,0-34.6-49.9,5,5,0,0,1-.3-7.1,4.9,4.9,0,0,1,7-.3,144.8,144.8,0,0,1,37.2,53.6,5.1,5.1,0,0,1-2.8,6.5A6.3,6.3,0,0,1,911.5,867.3ZM658.3,852.9a4.6,4.6,0,0,1-2.3-.6,5.1,5.1,0,0,1-2.1-6.8,146.8,146.8,0,0,1,43-49,4.9,4.9,0,0,1,7,1.1,5.1,5.1,0,0,1-1.1,7,134.8,134.8,0,0,0-40,45.6A5.1,5.1,0,0,1,658.3,852.9Zm162.5-68.2a3.2,3.2,0,0,1-1.4-.2,137.5,137.5,0,0,0-37.8-5.3,132.4,132.4,0,0,0-22.8,1.9,5,5,0,1,1-1.7-9.9,142.9,142.9,0,0,1,24.5-2,146.4,146.4,0,0,1,40.6,5.7,5,5,0,0,1-1.4,9.8Z"></path>
    <polygon class="cls-1"
             points="803 892.5 803 849.5 760.1 849.5 760.1 892.5 717.2 892.5 717.2 935.4 760.1 935.4 760.1 978.3 803 978.3 803 935.4 846 935.4 846 892.5 803 892.5"></polygon>
    <path class="cls-3"
          d="M803.2,1377.3H759.9A312.2,312.2,0,0,1,447.6,1065V587.7A100.7,100.7,0,0,1,548.2,487.1H1015a100.8,100.8,0,0,1,100.6,100.6V1065a312.2,312.2,0,0,1-312.4,312.3Zm-255-861.1a71.6,71.6,0,0,0-71.6,71.5V1065a283.4,283.4,0,0,0,283.3,283.3h43.3A283.4,283.4,0,0,0,1086.5,1065V587.7a71.6,71.6,0,0,0-71.5-71.5Z"></path>
    <rect class="cls-2" height="34.68" width="163.9" x="699.6" y="1362.8"></rect>
    <path class="cls-3"
          d="M863.5,1461.5H699.6a14.4,14.4,0,0,1-14.5-14.5v-84.2a14.5,14.5,0,0,1,14.5-14.5H863.5a14.5,14.5,0,0,1,14.6,14.5V1447A14.5,14.5,0,0,1,863.5,1461.5Zm-149.4-29H849v-55.2H714.1Z"></path>
    <path class="cls-1"
          d="M1356.4,928.5a66.5,66.5,0,0,1-66.4-66.4V756.5a14.5,14.5,0,0,1,14.5-14.5h103.8a14.5,14.5,0,0,1,14.5,14.5V862.1A66.5,66.5,0,0,1,1356.4,928.5ZM1319.1,771v91.1a37.4,37.4,0,0,0,74.7,0V771Z"></path>
    <rect class="cls-1" height="29.02" width="175.9" x="1268.5" y="742"></rect>
    <rect class="cls-1" height="106.61" width="29" x="1341.9" y="649.9"></rect>
</svg>