<svg viewBox="408.28 559.09 1171.55 860.01" data-name="Layer 3" id="Layer_3" xmlns="http://www.w3.org/2000/svg"><defs><style>.cls-1{fill:#dde2ee;}.cls-2{fill:#2e2a57;}.cls-3{fill:#566fe2;}</style></defs><title></title><path class="cls-1" d="M1219.9,954.6a54.8,54.8,0,1,0-79.4-52.5,52.6,52.6,0,0,0,2.5,20.3h-25.6a91.1,91.1,0,0,0-91.1,91.1v348.8h64.5V1011.5a24.7,24.7,0,0,1,24.7-24.6H1143a54.8,54.8,0,1,0,76.9-32.3Z"></path><path class="cls-1" d="M1546.6,1037.5a523.7,523.7,0,0,1-16.3,51.1c-27,72-89.4,124.2-164.1,134.2l-4,.5c-111.4,12.8-212.7-66-232.2-177.8a221.7,221.7,0,0,0-1.9,63.7c13.7,118.6,118.5,204,234.1,190.7l4-.5c74.7-10,137.1-62.2,164.1-134.2a523.7,523.7,0,0,0,16.3-51.1,546.2,546.2,0,0,0,16.9-178.7A538.8,538.8,0,0,1,1546.6,1037.5Z"></path><path class="cls-2" d="M1338.3,1316.3c-51,0-100.3-17.6-140.9-50.6-47.2-38.5-77.1-93.5-84.2-154.8a236.3,236.3,0,0,1,13.2-109.1,15,15,0,0,1,29.1,4.3,39.8,39.8,0,0,0,39.7,37.3h.6l.2,15-.2-15c20.9-.3,38.5-17.6,39.2-38.5a40.1,40.1,0,0,0-21.9-36.9,15,15,0,0,1,0-26.7,39.9,39.9,0,0,0-19.7-75.4c-20,.9-36.7,17.2-37.9,37.2a38.3,38.3,0,0,0,1.7,14.7,14.9,14.9,0,0,1-14.2,19.6h-5.4a15.3,15.3,0,0,1-12-5.9,235.1,235.1,0,0,1-46.2-115c-7.3-62.4,9.9-123.6,48.5-172.4,37.3-47.1,90.3-76.8,149.3-83.6a225,225,0,0,1,46.4-.4c64.1,6.1,122.4,41.4,159.8,96.7a540.4,540.4,0,0,1,30.5,50.7,568.7,568.7,0,0,1,47.2,410.5c-4.7,17.7-10.3,35.3-16.7,52.5-29.3,78-96.8,133.1-176.2,143.8l-4.3.5A221.1,221.1,0,0,1,1338.3,1316.3Zm-194-264.9a206.6,206.6,0,0,0-1.3,56.1c6.2,53.5,32.2,101.4,73.4,134.9s92.2,48.6,144.1,42.6l3.7-.5c68.4-9.2,126.7-56.9,152.1-124.6,6-16.2,11.4-32.9,15.8-49.6a538.4,538.4,0,0,0-44.7-388.7,516.5,516.5,0,0,0-28.8-48c-32.4-47.9-82.7-78.4-137.8-83.7a193,193,0,0,0-40.2.5c-51,5.8-96.9,31.5-129.2,72.3-33.6,42.5-48.6,95.9-42.2,150.3a205.7,205.7,0,0,0,20.5,68.6,69.7,69.7,0,0,1,62.5-45.6,69.7,69.7,0,0,1,72.8,69.7,69.8,69.8,0,0,1-20,49,70.4,70.4,0,0,1,20,51.2,69.8,69.8,0,0,1-120.7,45.5Z"></path><path class="cls-3" d="M1338.5,1261.9c-3.9,0-7.8-.1-11.7-.4a5,5,0,1,1,.7-9.9,166.7,166.7,0,0,0,29.1-.7l3-.4a138.1,138.1,0,0,0,25.3-5.7,4.9,4.9,0,0,1,6.2,3.3,4.9,4.9,0,0,1-3.2,6.2,147.4,147.4,0,0,1-26.9,6.1l-3.3.4A155.6,155.6,0,0,1,1338.5,1261.9Zm-69.1-15.5a5.2,5.2,0,0,1-2.1-.4,175.4,175.4,0,0,1-42.6-28.5q-3.7-3.4-7.5-7.2a5,5,0,0,1,7.2-7c2.3,2.3,4.6,4.6,7,6.8a163.1,163.1,0,0,0,40.2,26.8,5,5,0,0,1-2.2,9.5Zm169.2-20.6a4.8,4.8,0,0,1-3.8-1.8,4.9,4.9,0,0,1,.6-7,162.7,162.7,0,0,0,37.2-44.4,4.9,4.9,0,1,1,8.6,4.9,169.6,169.6,0,0,1-39.4,47.2A5.4,5.4,0,0,1,1438.6,1225.8ZM1187,1162.6a4.9,4.9,0,0,1-4.5-2.9,180.9,180.9,0,0,1-15.3-55c-.2-1.4-.3-2.9-.5-4.4a5.1,5.1,0,0,1,4.6-5.4,5,5,0,0,1,5.4,4.5c.1,1.4.3,2.8.4,4.2a172.1,172.1,0,0,0,14.5,51.9,4.9,4.9,0,0,1-4.6,7.1Zm312-38.2a3.6,3.6,0,0,1-1.4-.2,4.9,4.9,0,0,1-3.3-6.2c1.6-5.5,3.2-11.1,4.7-16.5,3.6-13.6,6.6-27.5,9-41.3a5,5,0,0,1,9.9,1.8c-2.5,14-5.6,28.2-9.3,42-1.5,5.6-3.1,11.3-4.8,16.9A5,5,0,0,1,1499,1124.4Zm20.8-117.9h-.3a5,5,0,0,1-4.7-5.2c.5-9.1.8-18.3.8-27.3,0-10.7-.4-21.4-1-32.1a5,5,0,1,1,9.9-.6c.7,10.8,1.1,21.8,1.1,32.7,0,9.2-.3,18.6-.8,27.8A4.9,4.9,0,0,1,1519.8,1006.5ZM1512.3,887a4.9,4.9,0,0,1-4.9-4.1,490,490,0,0,0-14-57.7,5,5,0,0,1,3.3-6.2,5.1,5.1,0,0,1,6.3,3.3,531.8,531.8,0,0,1,14.2,58.9,5,5,0,0,1-4,5.8Zm-372.5-62.3a4.9,4.9,0,0,1-4.9-4.1c-.7-3.4-1.2-7-1.6-10.4a197.3,197.3,0,0,1-1.2-21.7,190.8,190.8,0,0,1,2.3-29.3,5.1,5.1,0,0,1,5.8-4.1,4.9,4.9,0,0,1,4.1,5.7,170.6,170.6,0,0,0-2.2,27.7,176.2,176.2,0,0,0,1.2,20.5c.3,3.3.8,6.6,1.4,9.9a5,5,0,0,1-4.1,5.8Zm337.4-52.1a4.9,4.9,0,0,1-4.5-3c-4.8-10.8-10-21.5-15.6-31.9-3.7-7-7.6-14-11.7-20.8a5.1,5.1,0,0,1,1.8-6.9,5,5,0,0,1,6.8,1.8c4.2,6.9,8.2,14.1,12,21.2,5.6,10.6,10.9,21.6,15.8,32.6a5.1,5.1,0,0,1-2.5,6.6A7.8,7.8,0,0,1,1477.2,772.6Zm-318.1-63.9a4.2,4.2,0,0,1-2.4-.7,4.9,4.9,0,0,1-1.9-6.8,175.9,175.9,0,0,1,38.9-47.5,4.9,4.9,0,0,1,7,.5,5.1,5.1,0,0,1-.5,7.1,162.2,162.2,0,0,0-21.9,22.7,170.3,170.3,0,0,0-14.8,22.1A4.9,4.9,0,0,1,1159.1,708.7Zm255.4-37.8a5,5,0,0,1-3.5-1.5,156,156,0,0,0-47.4-33.1,4.9,4.9,0,0,1-2.5-6.6,5,5,0,0,1,6.6-2.5,165,165,0,0,1,50.4,35.2,5,5,0,0,1,0,7A5.1,5.1,0,0,1,1414.5,670.9Zm-165.9-38.3a5.2,5.2,0,0,1-4.8-3.3,5.1,5.1,0,0,1,3.1-6.4,168.2,168.2,0,0,1,36.5-8.4,163.5,163.5,0,0,1,24.3-1,5,5,0,0,1-.3,10,158.9,158.9,0,0,0-22.9.9,161.1,161.1,0,0,0-34.3,7.9A4.5,4.5,0,0,1,1248.6,632.6Z"></path><path class="cls-1" d="M768.2,1011.5a54.7,54.7,0,1,1,77-32.3h25.5a91.1,91.1,0,0,1,91.1,91.1v348.8H897.3V1068.3a24.6,24.6,0,0,0-24.6-24.6H845.2a57.7,57.7,0,0,1,2.6,16.7,54.8,54.8,0,1,1-79.6-48.9Z"></path><path class="cls-1" d="M441.5,1094.3c4.6,17.4,10.1,34.4,16.3,51.1,27,72,89.4,124.2,164.1,134.2l4,.5c111.4,12.8,212.7-66,232.2-177.8A221.7,221.7,0,0,1,860,1166c-13.6,118.6-118.4,204-234.1,190.7l-4-.5c-74.7-10-137.1-62.2-164.1-134.2-6.2-16.7-11.7-33.7-16.3-51.1a546.2,546.2,0,0,1-16.9-178.7A538.8,538.8,0,0,0,441.5,1094.3Z"></path><path class="cls-2" d="M649.8,1373.1a221.1,221.1,0,0,1-25.6-1.5l-4.3-.5c-79.4-10.7-146.9-65.8-176.1-143.8a542.9,542.9,0,0,1-16.8-52.5,568.7,568.7,0,0,1,47.2-410.5,553.6,553.6,0,0,1,30.5-50.7c37.4-55.3,95.7-90.6,159.8-96.7a224.9,224.9,0,0,1,46.4.4c59,6.8,112,36.5,149.3,83.6,38.6,48.8,55.9,110,48.5,172.4a235.1,235.1,0,0,1-46.2,115,15.1,15.1,0,0,1-11.9,5.9h-5.4a15.4,15.4,0,0,1-12.2-6.1,15.1,15.1,0,0,1-2.1-13.5,39.8,39.8,0,0,0-36.2-51.9A39.9,39.9,0,0,0,775,998.1a15,15,0,0,1,0,26.7,40.1,40.1,0,0,0-21.9,36.9c.7,20.9,18.3,38.2,39.3,38.5h.5a39.8,39.8,0,0,0,39.8-37.3,15,15,0,0,1,29-4.3,236.3,236.3,0,0,1,13.2,109.1c-7.1,61.3-37,116.3-84.2,154.8C750.1,1355.5,700.8,1373.1,649.8,1373.1Zm35.7-727.2c-6.1,0-12.1.3-18.1.9-55.2,5.2-105.5,35.7-137.8,83.6a496.4,496.4,0,0,0-28.9,48A538.4,538.4,0,0,0,456,1167.1c4.5,16.7,9.8,33.4,15.9,49.6,25.3,67.7,83.6,115.4,152,124.6l3.7.5c107.3,12.3,204.8-67.3,217.5-177.5a210.7,210.7,0,0,0-1.2-56.1,69.7,69.7,0,0,1-51,22h-1a69.8,69.8,0,0,1-48.8-118.7,69.8,69.8,0,0,1,98.6-98.8,68.8,68.8,0,0,1,16.7,25.7,205.7,205.7,0,0,0,20.5-68.6c6.4-54.4-8.6-107.8-42.2-150.3-32.3-40.8-78.2-66.5-129.2-72.3A180.4,180.4,0,0,0,685.5,645.9Z"></path><path class="cls-3" d="M649.7,1318.7a156.1,156.1,0,0,1-19.3-1.1l-3.2-.4a146.6,146.6,0,0,1-27-6.1,4.9,4.9,0,0,1-3.2-6.2,5,5,0,0,1,6.3-3.3,137.1,137.1,0,0,0,25.2,5.7l3.1.4a165.4,165.4,0,0,0,29,.7,5,5,0,1,1,.7,9.9C657.5,1318.6,653.5,1318.7,649.7,1318.7Zm69-15.5a4.8,4.8,0,0,1-4.5-2.8,5.1,5.1,0,0,1,2.3-6.7,163.1,163.1,0,0,0,40.2-26.8c2.4-2.2,4.8-4.5,7-6.8a5,5,0,0,1,7.1,0,4.9,4.9,0,0,1,.1,7c-2.4,2.5-5,4.9-7.5,7.2a175.4,175.4,0,0,1-42.6,28.5A5.2,5.2,0,0,1,718.7,1303.2Zm-169.2-20.6a5.6,5.6,0,0,1-3.2-1.1,171.3,171.3,0,0,1-39.4-47.2,4.9,4.9,0,0,1,1.8-6.8,5.1,5.1,0,0,1,6.9,1.9,162.4,162.4,0,0,0,37.1,44.4,5,5,0,0,1,.7,7A5.1,5.1,0,0,1,549.5,1282.6Zm251.6-63.2a4.9,4.9,0,0,1-4.6-7.1,169.3,169.3,0,0,0,14.5-51.9c.2-1.4.3-2.8.4-4.2a5,5,0,0,1,10,1c-.2,1.4-.3,2.9-.5,4.3a180.9,180.9,0,0,1-15.3,55A4.9,4.9,0,0,1,801.1,1219.4Zm-312-38.2a5,5,0,0,1-4.8-3.5c-1.7-5.6-3.3-11.3-4.8-16.9-3.7-13.8-6.8-28-9.3-42a5.1,5.1,0,0,1,4.1-5.8,5,5,0,0,1,5.8,4c2.4,13.8,5.5,27.7,9.1,41.3,1.4,5.4,3,11,4.7,16.5a5,5,0,0,1-3.4,6.2A3.4,3.4,0,0,1,489.1,1181.2Zm-20.8-117.9a5,5,0,0,1-5-4.7c-.5-9.2-.8-18.6-.8-27.8,0-10.9.4-21.9,1.1-32.7a5,5,0,0,1,5.3-4.7,5.1,5.1,0,0,1,4.7,5.3c-.7,10.7-1.1,21.4-1.1,32.1,0,9,.3,18.2.8,27.3a5,5,0,0,1-4.7,5.2Zm7.5-119.5h-.9a5,5,0,0,1-4-5.8,531.8,531.8,0,0,1,14.2-58.9,5.1,5.1,0,0,1,6.3-3.3,5,5,0,0,1,3.3,6.2,533.1,533.1,0,0,0-14,57.7A4.9,4.9,0,0,1,475.8,943.8Zm372.5-62.3h-.8a5.1,5.1,0,0,1-4.1-5.8q.9-5,1.5-9.9a175.7,175.7,0,0,0,1.2-20.4,171,171,0,0,0-2.3-27.8,5,5,0,0,1,9.9-1.6,179.4,179.4,0,0,1,2.4,29.4,197.1,197.1,0,0,1-1.3,21.6c-.4,3.5-.9,7-1.5,10.4A5.1,5.1,0,0,1,848.3,881.5ZM510.9,829.4a4.5,4.5,0,0,1-2-.4,5,5,0,0,1-2.6-6.6c4.9-11,10.2-22,15.9-32.6,3.7-7.1,7.8-14.3,11.9-21.2a5.1,5.1,0,0,1,6.9-1.8,5.1,5.1,0,0,1,1.7,6.9c-4.1,6.8-8,13.8-11.7,20.8-5.5,10.4-10.8,21.1-15.5,31.9A5.1,5.1,0,0,1,510.9,829.4ZM829,765.5a5.1,5.1,0,0,1-4.4-2.6,162.8,162.8,0,0,0-14.8-22,157.7,157.7,0,0,0-21.9-22.8,5.1,5.1,0,0,1-.5-7.1,4.9,4.9,0,0,1,7-.5,171.4,171.4,0,0,1,23.3,24.1A191.2,191.2,0,0,1,833.4,758a5,5,0,0,1-2,6.8A4.2,4.2,0,0,1,829,765.5ZM573.6,727.7a4.7,4.7,0,0,1-3.5-1.5,4.9,4.9,0,0,1-.1-7A164.2,164.2,0,0,1,620.5,684a5.1,5.1,0,0,1,6.6,2.5,5,5,0,0,1-2.6,6.6,156,156,0,0,0-47.4,33.1A4.7,4.7,0,0,1,573.6,727.7Zm166-38.3a4.7,4.7,0,0,1-1.7-.3,167.4,167.4,0,0,0-34.3-7.9c-6-.6-12.1-1-18.1-1h-4.9a5,5,0,0,1-.1-10h5a176.5,176.5,0,0,1,19.2,1.1,166.9,166.9,0,0,1,36.5,8.4,5,5,0,0,1-1.6,9.7Z"></path><path class="cls-3" d="M1105.8,1362.3h-30V1011.5a39.7,39.7,0,0,1,39.7-39.6H1143a14.9,14.9,0,0,1,14.2,19.6,40.7,40.7,0,0,0-1.8,12.1,39.8,39.8,0,0,0,39.8,39.8h.6c20.9-.3,38.5-17.6,39.2-38.5a40.1,40.1,0,0,0-21.9-36.9,15,15,0,0,1,0-26.7,39.9,39.9,0,0,0-19.7-75.4c-20,.9-36.7,17.2-37.9,37.2a36.5,36.5,0,0,0,1.8,14.7,15.4,15.4,0,0,1-2.2,13.5,15.2,15.2,0,0,1-12.1,6.1h-25.6a76.2,76.2,0,0,0-76.1,76.1v348.8h-30V1013.5a106.2,106.2,0,0,1,106.1-106.1h8c-.1-2.1,0-4.2.1-6.2A69.8,69.8,0,1,1,1245,954.7a70.4,70.4,0,0,1,20,51.2,70.3,70.3,0,0,1-68.8,67.5h-1a69.8,69.8,0,0,1-69.8-69.8v-1.7h-9.9a9.7,9.7,0,0,0-9.7,9.6Z"></path><path class="cls-3" d="M976.8,1419.1h-30V1070.3a76.1,76.1,0,0,0-76.1-76.1H845.2a15.4,15.4,0,0,1-12.2-6.1,15.1,15.1,0,0,1-2.1-13.5,39.8,39.8,0,0,0-36.2-51.9A39.9,39.9,0,0,0,775,998.1a15,15,0,0,1,0,26.7,40.1,40.1,0,0,0-21.9,36.9c.7,20.9,18.3,38.2,39.3,38.5h.5a39.9,39.9,0,0,0,39.9-39.8,40.8,40.8,0,0,0-1.9-12.1,15.1,15.1,0,0,1,2.1-13.5,15.4,15.4,0,0,1,12.2-6.1h27.5a39.7,39.7,0,0,1,39.6,39.6v350.8h-30V1068.3a9.6,9.6,0,0,0-9.6-9.6h-10c0,.6.1,1.1.1,1.7a69.8,69.8,0,0,1-139.6,2.3,69.9,69.9,0,0,1,19.9-51.2,69.8,69.8,0,0,1,98.6-98.8A69,69,0,0,1,862.6,958c.1,2.1.2,4.1.1,6.2h8a106.2,106.2,0,0,1,106.1,106.1Z"></path></svg>