<svg viewBox="479.97 536.5 1086.87 977" data-name="Layer 3" id="Layer_3" xmlns="http://www.w3.org/2000/svg">
    <defs>
        <style>.cls-1{fill:#dde2ee;}.cls-2{fill:#566fe2;}.cls-3{fill:#2e2a57;}</style>
    </defs>
    <title></title>
    <path class="cls-1"
          d="M1356.1,1169.5a449,449,0,0,1-68.3,45.7,306.5,306.5,0,0,0,20.8,42.3,489.4,489.4,0,0,0,67-43.6A240.8,240.8,0,0,1,1356.1,1169.5Z"></path>
    <path class="cls-1" d="M1249.4,695.3v47.9c19.2,3.8,39.2,8.1,60,13.1V708Q1278.8,700.8,1249.4,695.3Z"></path>
    <path class="cls-1" d="M1131.2,678.7v47.2q28.6,2.6,60,7.2V685.6Q1160.6,681.3,1131.2,678.7Z"></path>
    <path class="cls-2"
          d="M1309.4,771.3a14.7,14.7,0,0,1-3.6-.4c-20.1-4.8-40.1-9.2-59.3-13a15,15,0,0,1-12.1-14.7V551.5a15,15,0,0,1,15-15h60a15,15,0,0,1,15,15V756.3a15.1,15.1,0,0,1-5.8,11.8A14.7,14.7,0,0,1,1309.4,771.3Zm-45-40.4c9.8,2,19.9,4.2,30,6.5V566.5h-30Z"></path>
    <path class="cls-2"
          d="M1191.2,748.1l-2.2-.2c-20.1-2.9-40-5.3-59.2-7.1a15,15,0,0,1-13.6-14.9V551.5a15,15,0,0,1,15-15h60a15,15,0,0,1,15,15V733.1a14.8,14.8,0,0,1-5.2,11.3A15.1,15.1,0,0,1,1191.2,748.1Zm-45-35.8c9.8,1,19.9,2.2,30,3.5V566.5h-30Z"></path>
    <path class="cls-1"
          d="M1545,773.8c-12.3-12.5-34-11.2-58.5-6.6-12.6,118.7-122.4,422.8-446.2,449.7A188.4,188.4,0,0,0,921.7,1272c-109.6,110.8-282.9,202.9-385.9,165.9a154.1,154.1,0,0,0,17.1,22.8c100.8,109.7,363.6-39.1,477.6-190.1C1483.1,1289.1,1573.7,802.9,1545,773.8Z"></path>
    <circle class="cls-1" cx="820.6" cy="1077.2" r="139.8"></circle>
    <path class="cls-2"
          d="M800.3,1220.6h-.7a143.2,143.2,0,0,1-57.7-21.7,5,5,0,0,1,5.4-8.4,134,134,0,0,0,53.7,20.2,5,5,0,0,1-.7,10Zm59.4-4.1a4.9,4.9,0,0,1-4.8-3.6,5,5,0,0,1,3.4-6.2,132.9,132.9,0,0,0,50.4-27.5,5,5,0,0,1,6.6,7.6,143.6,143.6,0,0,1-54.2,29.5Zm-157-59.1a4.8,4.8,0,0,1-4.2-2.3,142.5,142.5,0,0,1-21.3-57.9,5,5,0,0,1,9.9-1.4,132.2,132.2,0,0,0,19.8,53.9,5,5,0,0,1-1.5,6.9A5.6,5.6,0,0,1,702.7,1157.4Zm245-17a4.5,4.5,0,0,1-2-.4,5,5,0,0,1-2.5-6.7,135.2,135.2,0,0,0,7.1-92.9,5,5,0,0,1,3.4-6.2,5.1,5.1,0,0,1,6.2,3.5,146,146,0,0,1,5.5,39.5,143.5,143.5,0,0,1-13.1,60.3A5.2,5.2,0,0,1,947.7,1140.4Zm-261.1-98.2-1.4-.2a5,5,0,0,1-3.4-6.3,143.2,143.2,0,0,1,29.9-53.9,4.9,4.9,0,0,1,7-.5,5.1,5.1,0,0,1,.5,7.1,134.2,134.2,0,0,0-27.8,50.2A4.9,4.9,0,0,1,686.6,1042.2ZM927,991.6a4.9,4.9,0,0,1-3.8-1.8A136.6,136.6,0,0,0,877.5,955a5,5,0,0,1,4.2-9,146,146,0,0,1,49.1,37.3,5.1,5.1,0,0,1-.6,7.1A4.9,4.9,0,0,1,927,991.6ZM763.3,954.7a5,5,0,0,1-2.1-9.6,144.1,144.1,0,0,1,59.4-12.7h1a4.9,4.9,0,0,1,4.9,5,5,5,0,0,1-5,5h-.9a134.7,134.7,0,0,0-55.3,11.8A4.6,4.6,0,0,1,763.3,954.7Z"></path>
    <polygon class="cls-2"
             points="842 1055.8 842 1012.8 799.1 1012.8 799.1 1055.8 756.2 1055.8 756.2 1098.7 799.1 1098.7 799.1 1141.6 842 1141.6 842 1098.7 885 1098.7 885 1055.8 842 1055.8"></polygon>
    <path class="cls-2"
          d="M1504.2,1329.6h-.1a5,5,0,0,1-5-5,5,5,0,0,1,5-5h.1a302.9,302.9,0,0,0,46.3-3.8,4.9,4.9,0,0,1,5.7,4.1,5,5,0,0,1-4.1,5.7A311.5,311.5,0,0,1,1504.2,1329.6Zm-59.3-7.9-1.4-.2a170.1,170.1,0,0,1-55.2-27,4.8,4.8,0,0,1-1-6.9,5,5,0,0,1,7-1.1,161,161,0,0,0,51.9,25.4,5,5,0,0,1-1.3,9.8Zm-94.3-69.8a5.3,5.3,0,0,1-4.2-2.3c-19-29.5-24.2-55.6-24.4-56.7a4.9,4.9,0,0,1,3.9-5.9,5.1,5.1,0,0,1,5.9,4c.1.4,5.1,25.5,23,53.1a5.1,5.1,0,0,1-1.4,7A5.7,5.7,0,0,1,1350.6,1251.9Z"></path>
    <path class="cls-2"
          d="M1064.3,1222a5,5,0,0,1-.7-9.9c.2,0,23.3-3.5,57.9-13.7a5,5,0,1,1,2.9,9.5c-35.4,10.5-58.4,13.9-59.4,14.1Zm115.4-33.6a5.1,5.1,0,0,1-4.6-3.1,5,5,0,0,1,2.8-6.5c18.6-7.5,36.8-15.9,54.1-24.9a5,5,0,1,1,4.6,8.9c-17.6,9.1-36.1,17.6-55,25.2A4.1,4.1,0,0,1,1179.7,1188.4Zm106.3-55.7a5,5,0,0,1-2.8-9.1,506.1,506.1,0,0,0,47.3-35.9,5,5,0,1,1,6.5,7.5,509.1,509.1,0,0,1-48.2,36.7A5,5,0,0,1,1286,1132.7Zm90.4-78.4a5,5,0,0,1-3.3-1.2,5.1,5.1,0,0,1-.5-7.1,404,404,0,0,0,35.9-47.1,5,5,0,0,1,8.4,5.5,404.1,404.1,0,0,1-36.8,48.2A4.5,4.5,0,0,1,1376.4,1054.3Zm65.2-100.1a5.2,5.2,0,0,1-2.1-.4,4.9,4.9,0,0,1-2.4-6.6,413.2,413.2,0,0,0,20.6-55.5,5,5,0,0,1,6.2-3.3,4.9,4.9,0,0,1,3.4,6.2,405.1,405.1,0,0,1-21.2,56.7A4.8,4.8,0,0,1,1441.6,954.2Zm33.9-114.5h-.8a5.1,5.1,0,0,1-4.2-5.7,510.9,510.9,0,0,0,5.5-59,5,5,0,1,1,10,.3,509.8,509.8,0,0,1-5.6,60.2A4.9,4.9,0,0,1,1475.5,839.7Z"></path>
    <path class="cls-2"
          d="M1504,1382.4a265.5,265.5,0,0,1-64.7-7.7A221.9,221.9,0,0,1,1348,1328c-31.3-26.7-56.3-62.8-74.1-107.2a15.1,15.1,0,0,1,6.8-18.8,423.8,423.8,0,0,0,65.9-44.2,15,15,0,0,1,23.7,7c11.5,34.9,28.1,61.7,49.2,79.6,23.7,20.1,53.4,29.2,90.8,27.9a55,55,0,0,1,55.8,45.9h0a55,55,0,0,1-52.3,64l-9.7.2Zm-197.1-160.7c15.5,34.3,35.8,62.4,60.6,83.4a191.8,191.8,0,0,0,79.1,40.5,235.8,235.8,0,0,0,57.4,6.8h.1l8.8-.2a24.2,24.2,0,0,0,18.2-9,25,25,0,0,0,5.4-20l14.8-2.5-14.8,2.5a25,25,0,0,0-25.2-20.9c-45.2,1.5-81.6-9.9-111.2-35-21.1-17.9-38.2-42.6-51-73.4A487.4,487.4,0,0,1,1306.9,1221.7Z"></path>
    <path class="cls-3"
          d="M649.8,1513.5c-45.2,0-81.9-14.4-107.9-42.7-29.3-31.8-49.1-81.2-57.5-142.7-7.9-58.6-5.2-125.2,7.9-192.5,15.5-79.6,44.4-154.8,83.6-217.4,21.3-34.1,45.5-64.2,72-89.5,28.5-27.2,59.8-48.9,93-64.7l2-.8,16.6-5.1c133.1-41.3,298.8-92.7,633.3,5,17.8,4.9,43.8-.7,69-6.1,35.5-7.7,72.3-15.7,93.9,6.2,5.9,6,8.8,16.2,9.1,32,.2,12.7-1.2,28.7-4.2,46.4-7,41.6-21.6,88.9-41.2,133.2-27.2,61.4-77.9,148.6-164.8,215-83.8,64-184.3,96.3-299.1,96.3l-17.8-.2c-78.6,100.7-218.4,197.4-334.8,221.8A261,261,0,0,1,649.8,1513.5Zm103-721.9c-59.1,28.3-110,76.2-151.5,142.5-37.3,59.5-64.8,131.2-79.6,207.2-12.4,64.2-15.1,127.4-7.6,182.7s24.8,99.2,49.9,126.5c14.3,15.6,33,25.8,55.8,30.3s48,3.5,77-2.5c67.8-14.2,148.5-56.1,221.5-115.1s124.6-123.7,143.6-178.8l28.3,9.8c-6.9,20.1-17.5,40.9-31.2,61.9,85.4-.5,162.4-20.1,229.5-58.4,61.3-35,113.9-85.2,156.5-149.2,34.2-51.5,61.7-112.7,77.4-172.2,13.4-51.1,13.8-84.7,11-92.8-10.7-9-39.7-2.7-65.3,2.8-28.7,6.2-58.4,12.6-83.4,5.7-.1,0-.2,0-.2-.1-145.3-42.4-270-60-381.2-53.6-96.5,5.5-170,28.3-234.9,48.4Zm780.4-8.8Z"></path>
</svg>