<svg viewBox="458.52 448.9 1148.83 1173.5" data-name="Layer 3" id="Layer_3" xmlns="http://www.w3.org/2000/svg">
    <defs>
        <style>.cls-1{fill:#566fe2;}.cls-2{fill:#dde2ee;}.cls-3{fill:#2e2a57;}</style>
    </defs>
    <title></title>
    <path class="cls-1"
          d="M1186,1122.8a15.1,15.1,0,0,1-11.1-4.8l-142-155L891,1118a15.1,15.1,0,0,1-26.1-10.2V989.4a14.8,14.8,0,0,1,3.9-10.1L979.9,858V673.6h30V863.8A15.3,15.3,0,0,1,1006,874L894.9,995.2v74l127-138.6a14.8,14.8,0,0,1,11-4.9,15.1,15.1,0,0,1,11.1,4.9l127,138.6v-74l-107.2-117a14.8,14.8,0,0,1-3.9-10.1V673.6h30V862.3l107.1,117a14.5,14.5,0,0,1,4,10.1v118.4a15,15,0,0,1-9.6,14A14.7,14.7,0,0,1,1186,1122.8Z"></path>
    <path class="cls-2"
          d="M707.6,1480l-90.1,29.6C549,1532,478,1483,474.9,1411.1l-.6-15q-1.8,53.6.6,107.2c3.1,72,74.1,121,142.6,98.5l90.1-29.6a250.3,250.3,0,0,0,172.3-237.9v-92.2A250.4,250.4,0,0,1,707.6,1480Z"></path>
    <path class="cls-2"
          d="M1591,1411.1c-3.1,71.9-74.2,120.9-142.6,98.5l-90.1-29.6A250.4,250.4,0,0,1,1186,1242.1v92.2a250.3,250.3,0,0,0,172.3,237.9l90.1,29.6c68.4,22.5,139.5-26.5,142.6-98.5,1.5-35.8,1.8-71.5.5-107.2C1591.4,1401.1,1591.2,1406.1,1591,1411.1Z"></path>
    <path class="cls-3"
          d="M583.3,1622.4A124,124,0,0,1,459.9,1504c-5.5-126.3,5.4-238.2,33.1-342a914,914,0,0,1,63.1-168.1c27.9-56.8,62.7-112.3,103.3-165.1A129.1,129.1,0,0,1,728,782.7,131.6,131.6,0,0,1,894.9,909.4v424.9a265.3,265.3,0,0,1-182.6,252.2l-90.2,29.6A124.1,124.1,0,0,1,583.3,1622.4Zm180-814.6a102.2,102.2,0,0,0-27.3,3.8,100.5,100.5,0,0,0-52.9,35.5c-77.2,100.5-129.9,206-161.1,322.6-27,100.9-37.5,209.8-32.1,333a93.8,93.8,0,0,0,122.9,84.9l90.1-29.6a235.3,235.3,0,0,0,162-223.7V909.4A101.7,101.7,0,0,0,763.3,807.8Z"></path>
    <path class="cls-1"
          d="M583.4,1562.3a63.6,63.6,0,0,1-54.3-30.5,5,5,0,1,1,8.5-5.2,56.1,56.1,0,0,0,9,11.1,54.2,54.2,0,0,0,36.8,14.6,55.3,55.3,0,0,0,16.9-2.7l19.1-6.3a5,5,0,0,1,6.3,3.2,4.9,4.9,0,0,1-3.2,6.3l-19.1,6.3A65.8,65.8,0,0,1,583.4,1562.3Zm94.6-28a5,5,0,0,1-1.6-9.7l14-4.6a199.2,199.2,0,0,0,40.1-18.3,4.9,4.9,0,0,1,6.8,1.7,4.8,4.8,0,0,1-1.7,6.8,202.2,202.2,0,0,1-42,19.3l-14.1,4.6A3.9,3.9,0,0,1,678,1534.3Zm-154.1-58.5a4.9,4.9,0,0,1-5-4.9c-.3-9.8-.4-19.6-.4-29.1s.2-20.9.4-31.2a5,5,0,0,1,5-4.8h.1a4.9,4.9,0,0,1,4.9,5.1c-.2,10.1-.4,20.5-.4,30.9s.1,19.2.4,28.8a5.2,5.2,0,0,1-4.9,5.2Zm255.2-3a5.4,5.4,0,0,1-3.4-1.2,5.1,5.1,0,0,1-.4-7.1,192,192,0,0,0,31.9-48.8,5,5,0,0,1,6.7-2.4,4.9,4.9,0,0,1,2.4,6.6,204.3,204.3,0,0,1-33.5,51.3A5,5,0,0,1,779.1,1472.8Zm49.1-107.4h-.6a4.9,4.9,0,0,1-4.3-5.6,195.8,195.8,0,0,0,1.6-25.4v-33.9a5,5,0,0,1,10,0v33.9a216.3,216.3,0,0,1-1.7,26.7A5.1,5.1,0,0,1,828.2,1365.4ZM527,1355.8h-.4a5,5,0,0,1-4.6-5.4c1.6-20.2,3.7-40.4,6.4-59.9a5,5,0,0,1,9.9,1.3c-2.7,19.4-4.8,39.3-6.3,59.4A5.1,5.1,0,0,1,527,1355.8Zm302.9-110.4a5,5,0,0,1-5-5v-60a5,5,0,0,1,10,0v60A5,5,0,0,1,829.9,1245.4ZM543.3,1237h-1a5,5,0,0,1-3.9-5.9c3.7-18,7.9-36,12.6-53.5.4-1.7.9-3.5,1.4-5.2a5,5,0,0,1,6.1-3.5,4.9,4.9,0,0,1,3.5,6.2c-.4,1.7-.9,3.4-1.4,5.1-4.6,17.3-8.8,35.1-12.4,52.9A4.9,4.9,0,0,1,543.3,1237Zm286.6-111.6a5,5,0,0,1-5-5v-60a5,5,0,0,1,10,0v60A5,5,0,0,1,829.9,1125.4Zm-254.9-4a4.5,4.5,0,0,1-1.6-.3,5.1,5.1,0,0,1-3.1-6.4c6.6-18.9,14-37.8,21.9-56.2a5.1,5.1,0,0,1,6.6-2.6,4.9,4.9,0,0,1,2.6,6.6c-7.8,18.1-15.1,36.8-21.7,55.5A4.9,4.9,0,0,1,575,1121.4Zm47.6-110.1a4.6,4.6,0,0,1-2.3-.6,4.9,4.9,0,0,1-2.2-6.7c9.2-17.6,19.1-35.3,29.6-52.5a5,5,0,1,1,8.6,5.2c-10.4,17-20.3,34.5-29.3,51.9A5,5,0,0,1,622.6,1011.3Zm207.3-5.9a5,5,0,0,1-5-5v-60a5,5,0,0,1,10,0v60A5,5,0,0,1,829.9,1005.4ZM684.8,908.9a4.7,4.7,0,0,1-2.8-.9,5,5,0,0,1-1.2-7c8.3-11.9,17.1-23.8,26.1-35.6A66.6,66.6,0,0,1,719,853.2a4.9,4.9,0,0,1,7,.8,5,5,0,0,1-.8,7,64.6,64.6,0,0,0-10.4,10.5c-8.9,11.6-17.6,23.5-25.9,35.3A5.1,5.1,0,0,1,684.8,908.9Zm138.8-22.5a4.9,4.9,0,0,1-4.5-2.9A61.5,61.5,0,0,0,785.4,852a70.8,70.8,0,0,0-7.8-2.5,4.9,4.9,0,0,1-3.7-6,5,5,0,0,1,6-3.7,73.5,73.5,0,0,1,9.1,2.8,71.5,71.5,0,0,1,39.1,36.6,5,5,0,0,1-2.4,6.7A5,5,0,0,1,823.6,886.4Z"></path>
    <path class="cls-3"
          d="M1482.6,1622.4a124.7,124.7,0,0,1-38.9-6.3l-90.1-29.6A265.3,265.3,0,0,1,1171,1334.3V909.4a131.5,131.5,0,0,1,166.9-126.7,129.5,129.5,0,0,1,68.6,46.1,989.7,989.7,0,0,1,103.3,165.1,921.3,921.3,0,0,1,63.1,168.1c27.7,103.8,38.5,215.7,33.1,342a124,124,0,0,1-123.4,118.4Zm-180-814.6a102.2,102.2,0,0,0-36.5,6.8,101.4,101.4,0,0,0-65.1,94.8v424.9A235.3,235.3,0,0,0,1362.9,1558l90.2,29.6a93.8,93.8,0,0,0,122.9-84.9c5.3-123.2-5.2-232.1-32.1-333-31.2-116.6-83.9-222.1-161.2-322.6a99.9,99.9,0,0,0-52.8-35.5A102.2,102.2,0,0,0,1302.6,807.8Z"></path>
    <path class="cls-1"
          d="M1482.5,1562.3a65.3,65.3,0,0,1-20-3.2l-39.2-12.9a5,5,0,0,1-3.2-6.3,5.1,5.1,0,0,1,6.3-3.2l39.2,12.9a54.3,54.3,0,0,0,16.9,2.7,53.1,53.1,0,0,0,33-11.4,5,5,0,0,1,7,.8,5,5,0,0,1-.9,7A62.8,62.8,0,0,1,1482.5,1562.3Zm-114.6-34.6a4.7,4.7,0,0,1-1.7-.3,207.2,207.2,0,0,1-53.9-29.3,5,5,0,0,1,6.1-7.9,196.9,196.9,0,0,0,51.2,27.8,5,5,0,0,1,3,6.4A5.2,5.2,0,0,1,1367.9,1527.7Zm173.5-30.9h-.2a5,5,0,0,1-4.8-5.1c.6-16.9.9-33.6.9-49.9v-9.9a5,5,0,0,1,5-5h0a5,5,0,0,1,5,4.9v10c0,16.4-.3,33.3-.9,50.2A5,5,0,0,1,1541.4,1496.8Zm-267.8-40.4a4.9,4.9,0,0,1-4.1-2.1,203.6,203.6,0,0,1-27.9-54.5,4.9,4.9,0,0,1,3.2-6.3,5,5,0,0,1,6.3,3.1,193.2,193.2,0,0,0,26.6,51.9,4.9,4.9,0,0,1-1.2,6.9A4.6,4.6,0,0,1,1273.6,1456.4Zm266.7-79.5a4.9,4.9,0,0,1-4.9-4.7c-1.2-20.1-3-40.2-5.2-59.5a5,5,0,0,1,10-1.1c2.2,19.5,3.9,39.7,5.1,60a5,5,0,0,1-4.7,5.3ZM1236,1344.3a5,5,0,0,1-5-4.8v-60.2a5,5,0,0,1,5-5,5.1,5.1,0,0,1,5,5v59.9a4.9,4.9,0,0,1-4.8,5.1Zm290.5-86.5a4.9,4.9,0,0,1-4.9-4.1c-3.5-19.7-7.7-39.3-12.4-58.4a4.9,4.9,0,0,1,3.6-6,5,5,0,0,1,6.1,3.6c4.7,19.3,9,39.1,12.5,59a5,5,0,0,1-4,5.8ZM1236,1224.3a5,5,0,0,1-5-5v-60a5,5,0,0,1,5-5,5.1,5.1,0,0,1,5,5v60A5,5,0,0,1,1236,1224.3Zm261.6-82.9a5,5,0,0,1-4.8-3.4c-6.1-18.9-12.9-37.8-20.2-56.1a5,5,0,1,1,9.2-3.7c7.5,18.5,14.4,37.6,20.6,56.7a5.1,5.1,0,0,1-3.3,6.3A3.9,3.9,0,0,1,1497.6,1141.4ZM1236,1104.3a5,5,0,0,1-5-5v-60a5,5,0,0,1,5-5,5.1,5.1,0,0,1,5,5v60A5,5,0,0,1,1236,1104.3Zm216.8-74.1a5,5,0,0,1-4.5-2.8c-8.6-17.7-18-35.4-28-52.6a5.2,5.2,0,0,1,1.9-6.9,5,5,0,0,1,6.8,1.9c10.1,17.4,19.6,35.4,28.3,53.2a5,5,0,0,1-2.3,6.7A4.2,4.2,0,0,1,1452.8,1030.2ZM1236,984.3a5,5,0,0,1-5-5v-60a5,5,0,0,1,5-5,5.1,5.1,0,0,1,5,5v60A5,5,0,0,1,1236,984.3Zm157-58a5.2,5.2,0,0,1-4.2-2.2c-10.8-16.2-22.5-32.6-34.7-48.6a5,5,0,1,1,8-6c12.3,16.1,24.1,32.6,35,49a5,5,0,0,1-1.4,7A5.3,5.3,0,0,1,1393,926.3ZM1254,869a5.1,5.1,0,0,1-3.4-1.4,5,5,0,0,1-.2-7.1,71.1,71.1,0,0,1,52.2-22.7,56.8,56.8,0,0,1,5.9.3,5,5,0,0,1,4.6,5.4,4.9,4.9,0,0,1-5.4,4.5l-5.1-.2a60.8,60.8,0,0,0-22.2,4.2,61.5,61.5,0,0,0-22.7,15.4A5.2,5.2,0,0,1,1254,869Z"></path>
    <polygon class="cls-1"
             points="1050.5 557.5 1050.5 521.5 1014.5 521.5 1014.5 557.5 978.5 557.5 978.5 593.4 1014.5 593.4 1014.5 629.4 1050.5 629.4 1050.5 593.4 1086.4 593.4 1086.4 557.5 1050.5 557.5"></polygon>
    <path class="cls-3"
          d="M1032.5,702A126.8,126.8,0,0,1,905.9,575.4c0-69.7,56.8-126.5,126.6-126.5S1159,505.7,1159,575.4,1102.3,702,1032.5,702Zm0-223.1a96.6,96.6,0,1,0,96.5,96.5A96.6,96.6,0,0,0,1032.5,478.9Z"></path>
</svg>