<svg viewBox="542.55 440.9 927 1187.8" data-name="Layer 3" id="Layer_3" xmlns="http://www.w3.org/2000/svg">
    <defs>
        <style>.cls-1{fill:#2e2a57;}.cls-2{fill:#dde2ee;}.cls-3{fill:#566fe2;}</style>
    </defs>
    <title></title>
    <path class="cls-1"
          d="M612.7,1628.7a70,70,0,0,1-67.8-88l52-197.8a126.2,126.2,0,0,1,122-94.1h76.7a258.9,258.9,0,0,0,122.9-30.4,263.5,263.5,0,0,0,135.9-189.7c6.7-41.8,2.9-83.6-11.1-124.3l-1.5-4.3a281.6,281.6,0,0,0-94.5-128.4,26.3,26.3,0,0,0-17.1-5.2h-1.4l-19.8-.7c-87.1-.2-157.9-71.1-157.9-158.3V455.9a15,15,0,0,1,15-15h100a15,15,0,0,1,15,15V582.8a54.1,54.1,0,0,0,53.2,54.1l51.8.9c102.5-23.5,199.4-9.2,280.4,41.3,78.6,49,140,130.4,177.5,235.4a436.5,436.5,0,0,1-578.5,550.2c-27.4-11.4-48.3-32.3-59.1-58.9-8.6-21.2-28.5-34.9-50.9-34.9a24.7,24.7,0,0,0-23.8,18.1l-51.4,188.1A70.3,70.3,0,0,1,612.7,1628.7Zm106.2-349.9a96.3,96.3,0,0,0-93,71.7l-52,197.9a40.1,40.1,0,0,0,77.4,20.8l51.5-188.1a54.8,54.8,0,0,1,52.7-40.2c34.6,0,65.5,21.1,78.7,53.7,5.5,13.5,17.3,31.8,42.8,42.4a406.5,406.5,0,0,0,538.8-512.4c-35.3-98.6-92.4-174.6-165.1-220A312.7,312.7,0,0,0,1131,660.5c-44.3-6.7-91.4-4.4-139.9,6.9a14.7,14.7,0,0,1-3.6.4l-53.7-.9a84,84,0,0,1-82.7-84.1V470.9h-70V607.5c0,70.7,57.5,128.3,128.2,128.3h.6l19.4.7a56.7,56.7,0,0,1,36.1,11.3A310.9,310.9,0,0,1,1070,889.9l1.7,4.7c15.6,45.4,19.8,92.1,12.3,138.8a293.2,293.2,0,0,1-151.4,211.5,288.7,288.7,0,0,1-137,33.9Z"></path>
    <path class="cls-2"
          d="M1032.9,1423.2c-48.3-3.8-84.6-15-112.2-28.7-40.6-20.1-38.1-78.7,3.8-96,9.9-4.2,19.6-8.8,29.2-13.9a338,338,0,0,0,174.8-244.1A328.6,328.6,0,0,0,1114.2,880c-.6-1.9-1.3-3.7-1.9-5.5-11.4-31.2-39.6-70.3-65.6-102.1-23-28.2-3.2-70.4,33.1-70.7h.8c65.5,0,124.2,20.6,174.5,61.2s91.5,102,118.3,176.8c32.4,90.7,27.6,188.5-13.3,275.6s-113.4,153.2-204,186.1a361.4,361.4,0,0,1-123.2,21.8Z"></path>
    <path class="cls-3"
          d="M1032.9,1428.2h-.4a351.9,351.9,0,0,1-60-9.5,5.1,5.1,0,0,1-3.7-6.1,5,5,0,0,1,6.1-3.6,363.2,363.2,0,0,0,58.2,9.3c8.4,0,16.9-.4,25.3-1a5,5,0,0,1,.7,10C1050.4,1427.8,1041.6,1428.2,1032.9,1428.2Zm85-10.3a5,5,0,0,1-1.2-9.8,355.4,355.4,0,0,0,37.7-11.4c6.2-2.3,12.4-4.7,18.4-7.3a5,5,0,0,1,4,9.2c-6.2,2.7-12.6,5.2-19,7.5a382.1,382.1,0,0,1-38.7,11.7Zm-200.3-20a5.5,5.5,0,0,1-2.5-.7,56.6,56.6,0,0,1-28.5-49.5,58.3,58.3,0,0,1,.3-5.9,5,5,0,0,1,5.5-4.4,5,5,0,0,1,4.5,5.4,40.3,40.3,0,0,0-.3,4.9,46.5,46.5,0,0,0,23.5,40.8,5,5,0,0,1,1.8,6.8A4.9,4.9,0,0,1,917.6,1397.9Zm310.2-26.8a5.1,5.1,0,0,1-4.2-2.3,5,5,0,0,1,1.5-6.9,355.3,355.3,0,0,0,47-35.8,5,5,0,0,1,7.1.4,4.9,4.9,0,0,1-.4,7,351.8,351.8,0,0,1-48.3,36.8A4.5,4.5,0,0,1,1227.8,1371.1Zm-301-68.6a5,5,0,0,1-2-9.6c9-3.8,17.9-8.1,26.5-12.7s17.3-9.7,25.6-15.1a5,5,0,0,1,6.9,1.4,4.9,4.9,0,0,1-1.4,6.9c-8.5,5.6-17.4,10.9-26.4,15.7s-18.1,9.1-27.3,13A4.3,4.3,0,0,1,926.8,1302.5Zm389.6-11.5a5,5,0,0,1-3.1-1,5.1,5.1,0,0,1-.8-7.1,355.5,355.5,0,0,0,32.6-49.2,5,5,0,0,1,8.8,4.8,367.1,367.1,0,0,1-33.6,50.6A4.8,4.8,0,0,1,1316.4,1291Zm-289.7-53.9a5.3,5.3,0,0,1-3.7-1.5,5,5,0,0,1,.3-7.1,341.5,341.5,0,0,0,39.2-44.1,5,5,0,0,1,7-1.1,5.1,5.1,0,0,1,1,7,347.9,347.9,0,0,1-40.4,45.5A5,5,0,0,1,1026.7,1237.1Zm347.3-50.7a4.5,4.5,0,0,1-1.6-.3,5.1,5.1,0,0,1-3.1-6.4,355.6,355.6,0,0,0,15-57.1,5,5,0,0,1,5.8-4.1,5.1,5.1,0,0,1,4.1,5.8,362.5,362.5,0,0,1-15.5,58.7A4.9,4.9,0,0,1,1374,1186.4Zm-276.3-45.2a5.9,5.9,0,0,1-2.2-.5,5,5,0,0,1-2.2-6.7,344,344,0,0,0,21.4-55,5,5,0,0,1,9.6,2.8,342.2,342.2,0,0,1-22.1,56.6A4.8,4.8,0,0,1,1097.7,1141.2Zm296.9-72.5h0a5,5,0,0,1-5-5c0-.7.1-1.4.1-2.1a350.1,350.1,0,0,0-4.7-56.8,5.1,5.1,0,0,1,4.2-5.7,4.9,4.9,0,0,1,5.7,4.1,357.6,357.6,0,0,1,4.8,58.4c0,.7-.1,1.5-.1,2.2A4.9,4.9,0,0,1,1394.6,1068.7Zm-263.7-42.1h-.5a4.9,4.9,0,0,1-4.4-5.4,326.8,326.8,0,0,0,1.6-32.7c0-8.8-.3-17.6-1.1-26.3a5,5,0,0,1,4.6-5.4,5,5,0,0,1,5.4,4.5c.8,9,1.1,18.2,1.1,27.2a318.2,318.2,0,0,1-1.7,33.7A4.9,4.9,0,0,1,1130.9,1026.6Zm244.6-75.8a4.9,4.9,0,0,1-4.7-3.4l-2.1-6a511.7,511.7,0,0,0-20.5-48.9,5,5,0,0,1,9-4.3,505.4,505.4,0,0,1,20.9,49.8l2.1,6.2a5.1,5.1,0,0,1-3.1,6.4Zm-254.3-43.2a5,5,0,0,1-4.9-3.6c-2-7.5-4.3-15-6.8-22.4l-1.9-5.4a185.1,185.1,0,0,0-12.7-26.8,5.1,5.1,0,0,1,2-6.8,5,5,0,0,1,6.8,1.9,204.7,204.7,0,0,1,13.3,28.3c.6,1.9,1.3,3.7,1.9,5.5,2.7,7.6,5,15.4,7.1,23a5.1,5.1,0,0,1-3.5,6.2ZM1323,843.3a4.9,4.9,0,0,1-4.1-2.2,356.5,356.5,0,0,0-36.8-46.3,5,5,0,1,1,7.3-6.9,367.8,367.8,0,0,1,37.8,47.6,5,5,0,0,1-1.4,6.9A4.9,4.9,0,0,1,1323,843.3ZM1066.1,802a5.1,5.1,0,0,1-4-2c-6-7.9-12.4-16.1-19.3-24.5a47.8,47.8,0,0,1-10.9-29.4,5,5,0,0,1,4.9-5.1,5.1,5.1,0,0,1,5.1,4.9,37,37,0,0,0,8.7,23.3c6.9,8.5,13.5,16.8,19.5,24.8a5.1,5.1,0,0,1-1,7A4.9,4.9,0,0,1,1066.1,802Zm174.5-45.1a4.7,4.7,0,0,1-2.8-.9,270.7,270.7,0,0,0-51.4-28.6,5.1,5.1,0,0,1-2.7-6.5,5,5,0,0,1,6.6-2.7,270.8,270.8,0,0,1,53.2,29.7,4.9,4.9,0,0,1,1.2,6.9A4.9,4.9,0,0,1,1240.6,756.9ZM1130.9,711h-.9a285.5,285.5,0,0,0-49.4-4.2h-.7a49,49,0,0,0-7.7.8,4.9,4.9,0,0,1-5.9-3.9,5,5,0,0,1,3.9-5.9,60,60,0,0,1,9.6-1h.8a296.4,296.4,0,0,1,51.2,4.4,5,5,0,0,1-.9,9.9Z"></path>
    <path class="cls-2"
          d="M846.8,1132.1a139.8,139.8,0,0,1-138.2-118.6,136.1,136.1,0,0,0-1.6,21.3,139.8,139.8,0,0,0,279.6,0,149.3,149.3,0,0,0-1.6-21.3A139.9,139.9,0,0,1,846.8,1132.1Z"></path>
    <path class="cls-3"
          d="M846.8,1189.6c-85.4,0-154.8-69.5-154.8-154.8S761.4,880,846.8,880s154.8,69.4,154.8,154.8S932.1,1189.6,846.8,1189.6Zm0-279.6a124.8,124.8,0,1,0,124.8,124.8A124.9,124.9,0,0,0,846.8,910Z"></path>
    <polygon class="cls-3"
             points="868.2 1013.3 868.2 970.4 825.3 970.4 825.3 1013.3 782.4 1013.3 782.4 1056.2 825.3 1056.2 825.3 1099.2 868.2 1099.2 868.2 1056.2 911.2 1056.2 911.2 1013.3 868.2 1013.3"></polygon>
    <path class="cls-3"
          d="M1267.4,1197.2a65.1,65.1,0,1,1,65.1-65.1A65.3,65.3,0,0,1,1267.4,1197.2Zm0-102.6a37.5,37.5,0,1,0,37.5,37.5A37.5,37.5,0,0,0,1267.4,1094.6Z"></path>
    <circle class="cls-3" cx="1143.1" cy="1265.3" r="23.9"></circle>
    <circle class="cls-3" cx="1167" cy="1338.6" r="17.1"></circle>
    <circle class="cls-3" cx="1025" cy="1322.1" r="16.5"></circle>
</svg>